<svg xmlns="http://www.w3.org/2000/svg" viewBox="0 0 628.9 135.3"><defs><style>.a{fill:#fff;}</style></defs><title>google</title><path class="a" d="M53.3,47.8V62.1H87.6c-1,8-3.7,13.9-7.8,18-5,5-12.8,10.5-26.5,10.5-21.1,0-37.6-17-37.6-38.1S32.2,14.4,53.3,14.4A36.38,36.38,0,0,1,79.2,24.6L89.3,14.5A50.12,50.12,0,0,0,53.3,0C24.3,0,0,23.6,0,52.5S24.3,104.9,53.4,105C69,105,80.8,99.9,90,90.3c9.5-9.4,12.4-22.7,12.4-33.5a47.76,47.76,0,0,0-.8-9Z"/><path class="a" d="M141.3,37.4c-18.7,0-33.9,14.2-33.9,33.8S122.6,105,141.3,105s33.9-14.3,33.9-33.8S160,37.4,141.3,37.4Zm0,54.2c-10.2,0-19.1-8.4-19.1-20.5s8.8-20.5,19.1-20.5,19.1,8.3,19.1,20.5S151.5,91.6,141.3,91.6Z"/><path class="a" d="M215.3,37.4c-18.7,0-33.9,14.2-33.9,33.8S196.6,105,215.3,105s33.9-14.3,33.9-33.8S234,37.4,215.3,37.4Zm0,54.2c-10.2,0-19.1-8.4-19.1-20.5s8.8-20.5,19.1-20.5,19.1,8.3,19.1,20.5S225.5,91.6,215.3,91.6Z"/><path class="a" d="M306.1,44.9h-.5c-3.3-4-9.7-7.6-17.8-7.6-16.9,0-32.4,14.8-32.4,33.9,0,18.9,15.5,33.7,32.4,33.7,8.1,0,14.5-3.6,17.8-7.7h.5v4.9c0,12.9-6.9,19.8-18,19.8-9.1,0-14.7-6.5-17-12l-12.9,5.4a32.21,32.21,0,0,0,30,20c17.4,0,32.1-10.2,32.1-35.2V39.4H306.1Zm-17,46.7c-10.2,0-18.8-8.6-18.8-20.4s8.6-20.6,18.8-20.6,18,8.7,18,20.6S299.2,91.6,289.1,91.6Z"/><rect class="a" x="330.5" y="3.6" width="14.8" height="99.3"/><path class="a" d="M413.3,58.9c-2.8-7.6-11.4-21.5-28.9-21.5s-31.9,13.7-31.9,33.8c0,18.9,14.3,33.8,33.5,33.8a33.84,33.84,0,0,0,28.2-15l-11.5-7.7c-3.9,5.6-9.1,9.3-16.7,9.3h0c-7.6,0-12.9-3.5-16.4-10.2l45.2-18.7ZM367.2,70.1c-.4-13,10.1-19.7,17.7-19.7,5.9,0,10.9,2.9,12.5,7.2Z"/><path class="a" d="M537.4,50.4h-.5V40.2H525.6v62.7h11.7V68.5c0-11.5,8.2-18.3,16.3-18.3a18.69,18.69,0,0,1,6.3.9l4.5-11a21.76,21.76,0,0,0-8.8-1.5C549,38.6,540,43.2,537.4,50.4Z"/><path class="a" d="M617.6,40.3V49h-.5c-3.9-5.8-11.4-10.8-21.4-10.8-16,0-29.8,14.2-29.8,33.4S579.7,105,595.7,105c10,0,17.6-5,21.4-10.8h.5v6c0,13.2-7.8,21.6-20.9,21.6a18.38,18.38,0,0,1-17.5-12l-10.8,4.5a30.18,30.18,0,0,0,28.4,18.4c16.5,0,32.1-10.1,32.1-32.9V40.3Zm-20,53.9c-10.5,0-20-8.6-20-22.7s9.5-22.7,20-22.7,20,8.4,20,22.7S608.1,94.2,597.6,94.2Z"/><path class="a" d="M433.1,86.3a8.7,8.7,0,1,0,8.7,8.7A8.58,8.58,0,0,0,433.1,86.3Z"/><path class="a" d="M483.8,38.1c-18.9,0-32.3,14.3-32.3,33.4s13.4,33.4,32.3,33.4,32.3-14.3,32.3-33.4S502.7,38.1,483.8,38.1Zm0,56.1c-10.5,0-20.5-8.3-20.5-22.7s10-22.7,20.5-22.7,20.5,8.4,20.5,22.7S494.3,94.2,483.8,94.2Z"/></svg>