<svg xmlns="http://www.w3.org/2000/svg" viewBox="0 0 55.28 55.28"><title>software</title><path class="a" d="M27.64,0A27.64,27.64,0,1,0,55.28,27.64,27.67,27.67,0,0,0,27.64,0Zm9.54,27.64a9.47,9.47,0,0,1-10.91,9.43A9.49,9.49,0,0,1,22,35.35a9.61,9.61,0,0,1-2.12-2.12A9.53,9.53,0,0,1,33.23,19.92,9.61,9.61,0,0,1,35.35,22,9.48,9.48,0,0,1,37.18,27.64Zm-1.81-9.85a12.55,12.55,0,0,0-2.6-1.58l3.61-11.6A24.67,24.67,0,0,1,44,9.2ZM27.64,3a24.59,24.59,0,0,1,5.88.71l-3.61,11.6A12.52,12.52,0,0,0,17.78,35.37L9.2,44A24.62,24.62,0,0,1,27.64,3ZM19.91,37.49a12.55,12.55,0,0,0,2.6,1.58l-3.61,11.6a24.67,24.67,0,0,1-7.57-4.59Zm7.73,14.78a24.6,24.6,0,0,1-5.88-.71L25.37,40A12.52,12.52,0,0,0,37.49,19.91l8.58-8.58a24.62,24.62,0,0,1-18.44,41Z"/><path class="a" d="M31.49,21.67l-.35-.21a7,7,0,0,0-2.86-.89c-.21,0-.42,0-.63,0a7.1,7.1,0,0,0-3.85,13.07l.35.21a7,7,0,0,0,2.86.9c.21,0,.42,0,.63,0a7.1,7.1,0,0,0,3.85-13.08Zm-3.22,9a3.11,3.11,0,0,1-.62.06,3.17,3.17,0,0,1-3.11-3.11,3.11,3.11,0,0,1,3.11-3.11,3.07,3.07,0,0,1,.85.13,3,3,0,0,1,2.12,2.12,3.07,3.07,0,0,1,.13.85A3.11,3.11,0,0,1,28.26,30.68Z"/></svg>
