<svg class="svgstore"><symbol viewBox="0 0 52.15 56.65" id="icon-book"><title>book</title><path class="a" d="M3.34,26.53h6.71a1.34,1.34,0,1,0,0-2.68H3.34A1.34,1.34,0,0,0,2,25.19,1.37,1.37,0,0,0,3.34,26.53Z"/><path class="a" d="M3.34,33.2h6.71a1.34,1.34,0,1,0,0-2.68H3.34a1.34,1.34,0,1,0,0,2.68Z"/><path class="a" d="M3.34,19.82h6.71a1.34,1.34,0,1,0,0-2.68H3.34a1.34,1.34,0,1,0,0,2.68Z"/><path class="a" d="M3.34,13.1h6.71a1.34,1.34,0,1,0,0-2.68H3.34a1.34,1.34,0,1,0,0,2.68Z"/><path class="a" d="M41.86,2H8.38a3,3,0,0,0-3,3V7A1.34,1.34,0,0,0,8,7V5c0-.24.1-.34.34-.34h7.15V52.35H8.38c-.24,0-.34-.1-.34-.34V50.47a1.34,1.34,0,0,0-2.68,0V52a3,3,0,0,0,3,3H41.86a3,3,0,0,0,3-3V5A3,3,0,0,0,41.86,2Zm.34,3V52c0,.24-.1.34-.34.34H18.06V4.71H41.86C42.09,4.71,42.2,4.81,42.2,5Z"/><path class="a" d="M48.42,5.39a1.34,1.34,0,0,0-1.34,1.34v43.6a1.34,1.34,0,1,0,2.68,0V6.73A1.34,1.34,0,0,0,48.42,5.39Z"/><path class="a" d="M3.34,39.92h6.71a1.34,1.34,0,1,0,0-2.68H3.34a1.34,1.34,0,1,0,0,2.68Z"/><path class="a" d="M11.39,45.29A1.34,1.34,0,0,0,10.05,44H3.34a1.34,1.34,0,1,0,0,2.68h6.71A1.34,1.34,0,0,0,11.39,45.29Z"/></symbol><symbol viewBox="0 0 45.24 51.74" id="icon-docs"><title>docs</title><path class="a" d="M43.13,18.08A46.14,46.14,0,0,0,38.71,13a45.56,45.56,0,0,0-5.05-4.42C31.07,6.72,29.83,6.5,29.12,6.5H10.44A3.94,3.94,0,0,0,6.5,10.44V47.81a3.94,3.94,0,0,0,3.94,3.94H41.31a3.94,3.94,0,0,0,3.94-3.94V22.62c0-.71-.22-2-2.12-4.55ZM40.29,19.3l.16.2h-8.2V11.3l.2.16m9.8,36.35a1,1,0,0,1-.94.94H10.44a1,1,0,0,1-.94-.94V10.44a1,1,0,0,1,.94-.94H29.25V21a1.5,1.5,0,0,0,1.5,1.5h11.5Z"/><path class="a" d="M22.62,0H3.94A3.94,3.94,0,0,0,0,3.94V41.31a4,4,0,0,0,3,3.82V3.94A1,1,0,0,1,3.94,3H28.3c-.41-.33-.8-.63-1.14-.88C24.58.22,23.33,0,22.62,0Z"/></symbol><symbol viewBox="0 0 768 768" id="icon-external"><title>external</title>  <path fill="#000" d="M576 384c-19.2 0-32 12.8-32 32v192c0 19.2-12.8 32-32 32h-352c-19.2 0-32-12.8-32-32v-352c0-19.2 12.8-32 32-32h192c19.2 0 32-12.8 32-32s-12.8-32-32-32h-192c-54.4 0-96 41.6-96 96v352c0 54.4 41.6 96 96 96h352c54.4 0 96-41.6 96-96v-192c0-19.2-12.8-32-32-32z"/> <path fill="#000" d="M700.8 83.2c-3.2-6.4-9.6-12.8-16-16-3.2-3.2-9.6-3.2-12.8-3.2h-192c-19.2 0-32 12.8-32 32s12.8 32 32 32h115.2l-297.6 297.6c-12.8 12.8-12.8 32 0 44.8 6.4 6.4 12.8 9.6 22.4 9.6s16-3.2 22.4-9.6l297.6-297.6v115.2c0 19.2 12.8 32 32 32s32-12.8 32-32v-192c0-3.2 0-9.6-3.2-12.8z"/> </symbol><symbol viewBox="0 0 52.15 56.65" id="icon-f"><title>f</title><polygon class="a" points="23.38 33.72 43.41 33.72 43.41 22.55 23.4 22.55 20.85 25.1 12.2 33.74 12.2 44.29 22.69 54.78 23.38 54.78 23.38 33.72"/><polygon class="a" points="19.91 26.3 19.91 13.73 43.41 13.73 43.41 2.48 8.74 2.48 8.74 37.49 11.29 34.94 19.93 26.3 19.91 26.3"/></symbol><symbol viewBox="0 0 55.03 55.03" id="icon-forum"><title>forum</title><path class="a" d="M47.48,0H7.55A7.56,7.56,0,0,0,0,7.56V53.18A1.84,1.84,0,0,0,1.15,54.9a1.91,1.91,0,0,0,.71.14h0a1.8,1.8,0,0,0,1.28-.54L14,43.63H47.48A7.56,7.56,0,0,0,55,36.07V7.56A7.56,7.56,0,0,0,47.48,0Zm3.85,36.08a3.87,3.87,0,0,1-3.85,3.85H13.26a1.87,1.87,0,0,0-1.31.54L3.7,48.72V7.56A3.87,3.87,0,0,1,7.55,3.7H47.48a3.87,3.87,0,0,1,3.85,3.85Z"/></symbol><symbol viewBox="0 0 49.11 52.67" id="icon-github"><title>github</title><path class="a" d="M49.11,19.49a14.71,14.71,0,0,0-3.18-9.07l-.07-.09,0-.11a14.63,14.63,0,0,0-.68-8.84A1.84,1.84,0,0,0,44,.13C42.7-.19,39.67-.21,34,3.34L34,3.39l-.1,0a33.52,33.52,0,0,0-15.1,0l-.1,0-.09-.06C12.94-.21,9.92-.19,8.62.14A1.82,1.82,0,0,0,7.41,1.36a12,12,0,0,0-.69,8.84l0,.12-.08.1A15.32,15.32,0,0,0,3.5,19.49C3.5,29.37,7.81,35.1,16.68,37l.26.06-.07.26a15.46,15.46,0,0,0-.68,4.31v.44l-.2,0c-4.85.93-6.61-.89-8.55-3.56-1-1.42-2.4-3.36-4.92-3.82A2.32,2.32,0,0,0,1,35,1.74,1.74,0,0,0,0,36.14,2.33,2.33,0,0,0,.3,37.7a1.74,1.74,0,0,0,1.16.91A7.16,7.16,0,0,1,4.14,41C6,43.55,8.92,47.38,15.9,46.45l.28,0v4.21a1.93,1.93,0,0,0,2.06,2.05,1.93,1.93,0,0,0,2.06-2.05v-9A5.8,5.8,0,0,1,22,37.3a1.6,1.6,0,0,0,.43-2l0-.08a2,2,0,0,0-1.66-1.43C14.39,32.93,7.61,31,7.61,19.72a10.6,10.6,0,0,1,2.83-7.31,2,2,0,0,0,.41-2.06,10.13,10.13,0,0,1-.24-5.9l.06-.23.23,0a15.52,15.52,0,0,1,6.1,3,2,2,0,0,0,1.84.19A27.9,27.9,0,0,1,34,7.49a2.23,2.23,0,0,0,1.67-.21,19.22,19.22,0,0,1,6-3l.24-.06.06.24a9.28,9.28,0,0,1-.24,5.68c-.25,1-.13,1.68.37,2A10.22,10.22,0,0,1,45,19.49c0,11.21-6.64,13.41-13.14,14.08A1.71,1.71,0,0,0,30.24,35a2.26,2.26,0,0,0,.4,2.07,6.36,6.36,0,0,1,1.69,4.56v9a2.06,2.06,0,0,0,4.11,0V41.86a6.93,6.93,0,0,0-.67-4.27l-.15-.29.32-.07C44.68,35.41,49.11,29.44,49.11,19.49Z"/></symbol><symbol viewBox="0 0 35.66 50.55" id="icon-gitter"><title>gitter</title><rect class="a" x="10.64" y="8.51" width="3.75" height="42.04"/><rect class="a" width="3.76" height="31.4"/><rect class="a" x="21.27" y="8.51" width="3.75" height="42.04"/><rect class="a" x="31.91" y="8.51" width="3.76" height="22.9"/></symbol><symbol viewBox="0 0 60.92 52.19" id="icon-heart"><title>heart</title><path class="a" d="M44.73,0C38.86,0,33.33,4.6,30.55,7.34l-.09.09-.09-.09C27.6,4.6,22.07,0,16.19,0,6.05,0,0,5.93,0,15.85,0,24.08,7.66,31,7.74,31.05L29,51.61a2,2,0,0,0,2.83,0L53.21,31.06c1.81-1.73,7.71-7.95,7.71-15.21C60.92,5.93,54.87,0,44.73,0Zm5.64,28.07h0l0,0L30.46,47.26l-.09-.08L10.54,28.06c-.67-.63-6.42-6.23-6.42-12.21,0-9.7,6.57-11.73,12.07-11.73,5.15,0,10.91,5.53,12.69,7.66a2.13,2.13,0,0,0,3.15,0c1.79-2.13,7.55-7.66,12.69-7.66,5.51,0,12.07,2,12.07,11.73C56.8,21.68,51.45,27.05,50.37,28.07Z"/></symbol><symbol viewBox="0 0 52.15 56.65" id="icon-package"><title>package</title><path class="a" d="M52.09,12.36s0-.07,0-.11a1.49,1.49,0,0,0-.12-.26l-.09-.12a1.48,1.48,0,0,0-.16-.19l-.12-.1-.09-.08-.12-.06-.08-.05L26.73.14a1.5,1.5,0,0,0-1.25,0L.88,11.39l-.08.05-.12.06-.09.08-.12.1a1.49,1.49,0,0,0-.16.19L.21,12a1.49,1.49,0,0,0-.12.26s0,.07,0,.11a1.49,1.49,0,0,0-.06.39V44.1a1.5,1.5,0,0,0,.89,1.37l24.6,11,.13,0,.11,0a1.35,1.35,0,0,0,.75,0l.11,0,.14,0,24.55-11.4a1.5,1.5,0,0,0,.87-1.36v-31A1.49,1.49,0,0,0,52.09,12.36Zm-26-9.21L47,12.71l-20.86,9-20.9-9ZM3,15l12.48,5.38,9.12,3.93V52.83L3,43.13ZM27.6,52.8V24.34l14.23-6.14L49.15,15V42.79Z"/></symbol><symbol viewBox="0 0 512 512" id="icon-play"><title>play</title><path d="M256,0C114.62,0,0,114.61,0,256S114.61,512,256,512,512,397.38,512,256,397.39,0,256,0Zm0,464C141.13,464,48,370.87,48,256S141.13,48,256,48s208,93.13,208,208S370.88,464,256,464ZM192,144,384,256,192,368Z"/></symbol><symbol viewBox="0 0 512 512" id="icon-rocket"><title>rocket</title>  <path d="M352 32l-160 160h-96l-96 128c0 0 101.708-28.326 161.033-15.042l-161.033 207.042 210.951-164.072c29.419 67.327-18.951 164.072-18.951 164.072l128-96v-96l160-160 32-160-160 32z"/> </symbol><symbol viewBox="0 0 55.28 55.28" id="icon-software"><title>software</title><path class="a" d="M27.64,0A27.64,27.64,0,1,0,55.28,27.64,27.67,27.67,0,0,0,27.64,0Zm9.54,27.64a9.47,9.47,0,0,1-10.91,9.43A9.49,9.49,0,0,1,22,35.35a9.61,9.61,0,0,1-2.12-2.12A9.53,9.53,0,0,1,33.23,19.92,9.61,9.61,0,0,1,35.35,22,9.48,9.48,0,0,1,37.18,27.64Zm-1.81-9.85a12.55,12.55,0,0,0-2.6-1.58l3.61-11.6A24.67,24.67,0,0,1,44,9.2ZM27.64,3a24.59,24.59,0,0,1,5.88.71l-3.61,11.6A12.52,12.52,0,0,0,17.78,35.37L9.2,44A24.62,24.62,0,0,1,27.64,3ZM19.91,37.49a12.55,12.55,0,0,0,2.6,1.58l-3.61,11.6a24.67,24.67,0,0,1-7.57-4.59Zm7.73,14.78a24.6,24.6,0,0,1-5.88-.71L25.37,40A12.52,12.52,0,0,0,37.49,19.91l8.58-8.58a24.62,24.62,0,0,1-18.44,41Z"/><path class="a" d="M31.49,21.67l-.35-.21a7,7,0,0,0-2.86-.89c-.21,0-.42,0-.63,0a7.1,7.1,0,0,0-3.85,13.07l.35.21a7,7,0,0,0,2.86.9c.21,0,.42,0,.63,0a7.1,7.1,0,0,0,3.85-13.08Zm-3.22,9a3.11,3.11,0,0,1-.62.06,3.17,3.17,0,0,1-3.11-3.11,3.11,3.11,0,0,1,3.11-3.11,3.07,3.07,0,0,1,.85.13,3,3,0,0,1,2.12,2.12,3.07,3.07,0,0,1,.13.85A3.11,3.11,0,0,1,28.26,30.68Z"/></symbol><symbol viewBox="0 0 54.52 54.78" id="icon-tools"><title>tools</title><path class="a" d="M40.18,21.25a10.43,10.43,0,0,0,3.26.49,11.15,11.15,0,0,0,7.95-3.26A10.56,10.56,0,0,0,53.6,6.67,1.21,1.21,0,0,0,52.7,6a1.26,1.26,0,0,0-1.08.36l-5.88,5.92a.57.57,0,0,1-.81,0L42.41,9.72a.56.56,0,0,1,0-.81l6-6a1.22,1.22,0,0,0,.36-1.07A1.18,1.18,0,0,0,48,1,10.56,10.56,0,0,0,36.17,3.09a11.41,11.41,0,0,0-2.68,11.33L14.34,33.53A10.43,10.43,0,0,0,11.08,33,11.15,11.15,0,0,0,3.13,36.3,10.56,10.56,0,0,0,.92,48.11a1.21,1.21,0,0,0,2,.35l5.88-5.92a.79.79,0,0,1,.45-.22.42.42,0,0,1,.36.09l2.52,2.65a.5.5,0,0,1,.15.37.64.64,0,0,1-.2.45L6.2,51.74a1.23,1.23,0,0,0-.36,1.08,1.26,1.26,0,0,0,.67.91,10.32,10.32,0,0,0,11.89-2,11.41,11.41,0,0,0,2.68-11.33ZM18.58,40.48h0a8.92,8.92,0,0,1-1.89,9.46,7.91,7.91,0,0,1-7.41,2.17l4.5-4.54a3,3,0,0,0,0-4.22L11.3,40.7A3.1,3.1,0,0,0,7,40.79L2.56,45.3A8.28,8.28,0,0,1,4.84,38a8.86,8.86,0,0,1,6.24-2.54,8,8,0,0,1,3.1.61,1.32,1.32,0,0,0,1.32-.25L35.73,15.59A1.21,1.21,0,0,0,36,14.25,8.93,8.93,0,0,1,37.87,4.8a7.91,7.91,0,0,1,7.41-2.17L40.75,7.16a2.89,2.89,0,0,0-.9,2.07,3,3,0,0,0,.9,2.16l2.52,2.52a3.06,3.06,0,0,0,4.27,0L52,9.43a8.28,8.28,0,0,1-2.27,7.3,8.87,8.87,0,0,1-6.24,2.54,8,8,0,0,1-3.1-.61,1.3,1.3,0,0,0-1.32.25L18.83,39.15A1.21,1.21,0,0,0,18.58,40.48Z"/><path class="a" d="M5.4,10.51a1.21,1.21,0,0,0,1.71,0l.83-.83L20.55,22.3a1.19,1.19,0,0,0,1.71,0,1.23,1.23,0,0,0,.36-.91,1.11,1.11,0,0,0-.36-.8L9.64,8l.83-.83a1.24,1.24,0,0,0,0-1.75l-5-5A1.22,1.22,0,0,0,4.57,0h0a1.1,1.1,0,0,0-.8.36L.36,3.76A1.23,1.23,0,0,0,0,4.67a1.11,1.11,0,0,0,.36.8ZM2.88,4.62,4.53,3,7.86,6.3,6.21,7.95Z"/><path class="a" d="M36.57,29.87a1.18,1.18,0,0,0-.91-.36,1.1,1.1,0,0,0-.8.36,1.23,1.23,0,0,0-.36.91,1.1,1.1,0,0,0,.36.8L51.7,48.41a.56.56,0,0,1,0,.82l-2.43,2.55a.61.61,0,0,1-.85,0L31.54,35a1.17,1.17,0,0,0-.91-.36,1.1,1.1,0,0,0-.8.36,1.23,1.23,0,0,0-.36.91,1.1,1.1,0,0,0,.36.8L46.75,53.49a3,3,0,0,0,4.31,0L53.45,51a3,3,0,0,0,0-4.27Z"/></symbol></svg>