<svg xmlns="http://www.w3.org/2000/svg" viewBox="-807 437.3 183.8 26.7">
<title>Frictionless Data</title>
<polygon points="-806.8,450.9 -804.7,450.9 -804.7,445.1 -799,445.1 -799,443.3 -804.7,443.3 -804.7,439.3 -797.9,439.3
	-797.9,437.4 -806.8,437.4 "/>
<path d="M-787.4,445.2c0.3-0.2,0.6-0.5,0.8-0.9c0.2-0.4,0.4-0.8,0.5-1.2c0.1-0.4,0.2-0.9,0.2-1.3c0-0.6-0.1-1.1-0.3-1.6
	c-0.2-0.5-0.5-1-0.9-1.4c-0.4-0.4-0.8-0.8-1.3-1c-0.5-0.3-1.1-0.4-1.7-0.4h-5.8v13.5h2.1v-4.7h3.1l2.9,4.7h2.4l-3.2-5.1
	C-788,445.7-787.7,445.5-787.4,445.2z M-789.2,444.1c-0.3,0.1-0.5,0.2-0.8,0.2h-3.7v-5h3.6c0.3,0,0.6,0.1,0.8,0.2
	c0.3,0.1,0.5,0.3,0.7,0.5c0.2,0.2,0.4,0.5,0.5,0.8c0.1,0.3,0.2,0.7,0.2,1c0,0.3,0,0.7-0.1,1c-0.1,0.3-0.2,0.6-0.4,0.8
	C-788.7,443.9-788.9,444-789.2,444.1z"/>
<rect x="-783.3" y="437.4" width="2.1" height="13.5"/>
<path d="M-769.5,447.9c-0.3,0.3-0.6,0.5-0.9,0.7c-0.3,0.2-0.6,0.3-1,0.4c-0.3,0.1-0.7,0.1-1,0.1c-0.6,0-1.2-0.1-1.8-0.4
	c-0.5-0.3-1-0.6-1.4-1.1c-0.4-0.5-0.7-1-0.9-1.6c-0.2-0.6-0.3-1.2-0.3-1.9c0-0.6,0.1-1.2,0.3-1.8c0.2-0.6,0.5-1.1,0.8-1.6
	c0.4-0.5,0.8-0.9,1.3-1.1c0.6-0.3,1.2-0.4,1.9-0.4c0.3,0,0.7,0,1,0.1c0.3,0.1,0.7,0.2,1,0.4c0.3,0.2,0.6,0.4,0.9,0.7
	c0.3,0.3,0.5,0.6,0.7,1l1.6-1c-0.5-0.9-1.1-1.6-2-2.1c-0.9-0.6-2-0.9-3.1-0.9c-1,0-1.9,0.2-2.8,0.6c-0.8,0.4-1.5,0.9-2.1,1.6
	c-0.6,0.6-1,1.4-1.3,2.2c-0.6,1.6-0.6,3.4,0,5c0.3,0.8,0.8,1.6,1.3,2.2c0.6,0.7,1.2,1.2,2,1.6c0.8,0.4,1.7,0.6,2.6,0.6
	c0.5,0,1.1-0.1,1.6-0.2c0.5-0.1,1.1-0.3,1.6-0.6c0.5-0.3,0.9-0.6,1.3-1c0.4-0.4,0.7-0.8,0.9-1.3l-1.8-1
	C-769.1,447.3-769.3,447.6-769.5,447.9z"/>
<polygon points="-766.5,439.3 -762,439.3 -762,450.9 -759.8,450.9 -759.8,439.3 -755.4,439.3 -755.4,437.4 -766.5,437.4 "/>
<rect x="-753.6" y="437.4" width="2.1" height="13.5"/>
<path d="M-738.1,439.5c-0.6-0.6-1.2-1.2-2-1.6c-0.8-0.4-1.7-0.6-2.7-0.6c-0.9,0-1.8,0.2-2.6,0.6c-0.8,0.4-1.4,0.9-2,1.5
	c-0.6,0.6-1,1.4-1.4,2.2c-0.3,0.8-0.5,1.7-0.5,2.6c0,0.9,0.2,1.7,0.5,2.5c0.3,0.8,0.7,1.5,1.3,2.2c0.6,0.6,1.2,1.2,2,1.5
	c1.7,0.8,3.6,0.8,5.2,0c0.8-0.4,1.5-0.9,2.1-1.5c0.6-0.6,1-1.4,1.4-2.2c0.6-1.6,0.6-3.4,0-5.1C-737.1,440.9-737.5,440.1-738.1,439.5
	z M-738.8,446c-0.2,0.6-0.5,1.1-0.8,1.6c-0.4,0.5-0.8,0.9-1.3,1.1c-0.6,0.3-1.2,0.4-1.8,0.4c-0.6,0-1.2-0.1-1.8-0.4
	c-0.5-0.3-1-0.6-1.4-1.1c-0.4-0.5-0.7-1-0.9-1.6c-0.2-0.6-0.3-1.2-0.3-1.8c0-0.6,0.1-1.3,0.3-1.9c0.2-0.6,0.5-1.1,0.8-1.6
	c0.4-0.5,0.8-0.8,1.3-1.1c1.1-0.6,2.5-0.6,3.6,0c0.5,0.3,1,0.6,1.3,1.1c0.4,0.5,0.7,1,0.9,1.6C-738.4,443.5-738.4,444.8-738.8,446
	L-738.8,446z"/>
<polygon points="-724.7,447.1 -732.4,437.4 -734.1,437.4 -734.1,450.9 -732,450.9 -732,441.4 -724.3,450.9 -722.6,450.9
	-722.6,437.4 -724.7,437.4 "/>
<polygon points="-717.4,437.4 -719.5,437.4 -719.5,450.9 -710.2,450.9 -710.2,449 -717.4,449 "/>
<polygon points="-706.3,444.9 -700.3,444.9 -700.3,443.1 -706.3,443.1 -706.3,439.3 -699.3,439.3 -699.3,437.4 -708.4,437.4
	-708.4,450.9 -699.2,450.9 -699.2,449 -706.3,449 "/>
<path d="M-689,444.5c-0.4-0.3-0.9-0.6-1.4-0.7c-0.6-0.2-1.2-0.4-1.8-0.6l-1.5-0.4c-0.3-0.1-0.7-0.2-1-0.4c-0.2-0.1-0.5-0.3-0.6-0.5
	c-0.1-0.2-0.2-0.5-0.2-0.8c0-0.5,0.2-1,0.6-1.4c0.6-0.4,1.3-0.5,2-0.5c0.4,0,0.8,0,1.2,0.1c0.4,0.1,0.7,0.2,1.1,0.3
	c0.3,0.1,0.6,0.3,0.9,0.5c0.2,0.1,0.4,0.3,0.5,0.4l1-1.8c-0.6-0.4-1.3-0.8-2-1.1c-0.8-0.3-1.7-0.4-2.6-0.4c-0.7,0-1.3,0.1-1.9,0.3
	c-0.6,0.2-1.1,0.4-1.5,0.8c-0.4,0.4-0.8,0.8-1,1.3c-0.3,0.5-0.4,1.2-0.4,1.8c0,0.5,0.1,0.9,0.3,1.4c0.2,0.4,0.4,0.7,0.8,1
	c0.4,0.3,0.8,0.5,1.2,0.7c0.6,0.2,1.2,0.4,1.8,0.6c0.6,0.2,1.1,0.3,1.6,0.4c0.4,0.1,0.8,0.3,1.2,0.5c0.3,0.1,0.5,0.3,0.7,0.6
	c0.2,0.2,0.3,0.6,0.3,0.9c0,0.5-0.2,1-0.7,1.3c-0.6,0.3-1.3,0.5-1.9,0.4c-0.5,0-1-0.1-1.5-0.2c-0.5-0.1-0.9-0.3-1.3-0.4
	c-0.4-0.2-0.7-0.3-1.1-0.6c-0.3-0.2-0.5-0.3-0.7-0.5l-1,1.8c0.8,0.6,1.7,1.1,2.6,1.4c1,0.3,2,0.5,3,0.5c0.6,0,1.3-0.1,1.9-0.2
	c0.6-0.1,1.1-0.4,1.6-0.7c0.4-0.3,0.8-0.7,1.1-1.2c0.3-0.5,0.4-1.2,0.4-1.8c0-0.5-0.1-1.1-0.3-1.5
	C-688.2,445.2-688.6,444.8-689,444.5z"/>
<path d="M-677.4,444.5c-0.4-0.3-0.9-0.6-1.4-0.7c-0.6-0.2-1.2-0.4-1.8-0.6l-1.5-0.4c-0.3-0.1-0.7-0.2-1-0.4
	c-0.2-0.1-0.5-0.3-0.6-0.5c-0.1-0.2-0.2-0.5-0.2-0.8c0-0.5,0.2-1,0.6-1.4c0.6-0.4,1.3-0.5,2-0.5c0.4,0,0.8,0,1.2,0.1
	c0.4,0.1,0.7,0.2,1.1,0.3c0.3,0.1,0.6,0.3,0.9,0.5c0.2,0.1,0.4,0.3,0.5,0.4l1-1.8c-0.6-0.4-1.3-0.8-2-1.1c-0.8-0.3-1.7-0.5-2.7-0.4
	c-0.7,0-1.3,0.1-1.9,0.3c-0.6,0.2-1.1,0.4-1.5,0.8c-0.4,0.4-0.8,0.8-1,1.3c-0.3,0.5-0.4,1.2-0.4,1.8c0,0.5,0.1,0.9,0.3,1.4
	c0.2,0.4,0.4,0.7,0.8,1c0.4,0.3,0.8,0.5,1.2,0.7c0.6,0.2,1.2,0.4,1.8,0.6c0.6,0.2,1.1,0.3,1.6,0.4c0.4,0.1,0.8,0.3,1.2,0.5
	c0.3,0.1,0.5,0.3,0.7,0.6c0.2,0.2,0.3,0.6,0.3,0.9c0,0.5-0.2,1-0.7,1.3c-0.6,0.3-1.3,0.5-1.9,0.4c-0.5,0-1-0.1-1.5-0.2
	c-0.5-0.1-0.9-0.3-1.3-0.4c-0.4-0.2-0.7-0.3-1.1-0.6c-0.3-0.2-0.5-0.3-0.7-0.5l-1,1.8c0.8,0.6,1.7,1.1,2.6,1.4c1,0.3,2,0.5,3,0.5
	c0.6,0,1.3-0.1,1.9-0.2c0.6-0.1,1.1-0.4,1.6-0.7c0.4-0.3,0.8-0.7,1.1-1.2c0.3-0.5,0.4-1.2,0.4-1.8c0-0.5-0.1-1.1-0.3-1.5
	C-676.7,445.2-677,444.8-677.4,444.5z"/>
<path d="M-659.7,439.4c-0.6-0.6-1.3-1.1-2-1.4c-0.9-0.4-1.9-0.6-2.9-0.5h-4.8v13.5h4.8c0.9,0,1.9-0.1,2.7-0.5
	c0.8-0.3,1.5-0.8,2.1-1.4c0.6-0.6,1-1.3,1.3-2.1c0.3-0.9,0.5-1.8,0.4-2.8c0-0.9-0.1-1.8-0.4-2.6C-658.7,440.7-659.1,440-659.7,439.4
	z M-660.4,446.1c-0.2,0.6-0.5,1.1-0.8,1.5c-0.4,0.4-0.9,0.8-1.4,1c-0.6,0.3-1.2,0.4-1.9,0.4h-2.7v-9.7h2.7c0.6,0,1.3,0.1,1.9,0.4
	c0.5,0.2,1,0.6,1.4,1c0.4,0.4,0.7,1,0.9,1.5c0.2,0.6,0.3,1.3,0.3,2C-660.2,444.8-660.2,445.5-660.4,446.1z"/>
<path d="M-652.2,437.4l-5.4,13.5h2.3l1.4-3.7h5.2l1.4,3.7h2.2l-5.3-13.5H-652.2z M-653.6,445.7l2.2-5.8l2.2,5.8H-653.6z"/>
<polygon points="-634.8,437.4 -646,437.4 -646,439.3 -641.5,439.3 -641.5,450.9 -639.3,450.9 -639.3,439.3 -634.8,439.3 "/>
<path d="M-628.5,437.4h-1.9l-5.4,13.5h2.3l1.4-3.7h5.2l1.4,3.7h2.2L-628.5,437.4z M-631.7,445.7l2.2-5.8l2.2,5.8H-631.7z"/>
<path d="M-802.1,457.9c-0.2-0.3-0.5-0.5-0.9-0.6c-0.4-0.1-0.7-0.2-1.1-0.2c-0.6,0-1.2,0.1-1.6,0.4c-0.3,0.3-0.5,0.7-0.5,1.1
	c0,0.2,0,0.4,0.1,0.6c0.1,0.2,0.2,0.3,0.4,0.4c0.2,0.1,0.4,0.2,0.7,0.3c0.3,0.1,0.6,0.2,1,0.2c0.4,0.1,0.7,0.2,1,0.3
	c0.3,0.1,0.6,0.2,0.8,0.4c0.2,0.1,0.4,0.3,0.5,0.5c0.1,0.2,0.2,0.5,0.2,0.8c0,0.3-0.1,0.5-0.2,0.8c-0.1,0.2-0.3,0.4-0.5,0.6
	c-0.2,0.2-0.5,0.3-0.8,0.3c-0.3,0.1-0.7,0.1-1,0.1c-0.5,0-1-0.1-1.5-0.3c-0.5-0.2-0.9-0.5-1.3-0.8l0.2-0.2c0.3,0.3,0.7,0.6,1.1,0.8
	c0.5,0.2,1,0.3,1.5,0.3c0.6,0,1.1-0.1,1.6-0.4c0.4-0.2,0.6-0.7,0.6-1.1c0-0.2,0-0.4-0.1-0.6c-0.1-0.2-0.2-0.3-0.4-0.4
	c-0.2-0.1-0.5-0.2-0.7-0.3c-0.3-0.1-0.7-0.2-1-0.3c-0.4-0.1-0.7-0.2-1-0.2c-0.3-0.1-0.6-0.2-0.9-0.3c-0.2-0.1-0.4-0.3-0.5-0.5
	c-0.1-0.2-0.2-0.5-0.1-0.7c0-0.3,0.1-0.6,0.2-0.8c0.1-0.2,0.3-0.4,0.5-0.6c0.2-0.2,0.5-0.3,0.8-0.4c0.3-0.1,0.7-0.1,1-0.1
	c0.4,0,0.8,0.1,1.2,0.2c0.4,0.1,0.7,0.4,1,0.6L-802.1,457.9z"/>
<path d="M-799.7,463.9v-7.1h2.9c0.3,0,0.6,0.1,0.8,0.2c0.2,0.1,0.5,0.3,0.6,0.5c0.2,0.2,0.3,0.4,0.4,0.7c0.1,0.3,0.2,0.5,0.2,0.8
	c0,0.3-0.1,0.6-0.2,0.8c-0.1,0.3-0.2,0.5-0.4,0.7c-0.2,0.2-0.4,0.4-0.6,0.5c-0.2,0.1-0.5,0.2-0.8,0.2h-2.6v2.7H-799.7z
	 M-799.4,460.9h2.6c0.2,0,0.5-0.1,0.7-0.2c0.2-0.1,0.4-0.2,0.5-0.4c0.1-0.2,0.3-0.4,0.3-0.6c0.1-0.2,0.1-0.4,0.1-0.7
	c0-0.2,0-0.5-0.1-0.7c-0.1-0.2-0.2-0.4-0.4-0.6c-0.2-0.2-0.3-0.3-0.5-0.4c-0.2-0.1-0.4-0.2-0.7-0.2h-2.5V460.9z"/>
<path d="M-788.3,463.6v0.3h-4.7v-7.1h4.6v0.3h-4.3v3h3.7v0.3h-3.7v3.1H-788.3z"/>
<path d="M-787,460.3c0-0.4,0.1-0.9,0.2-1.3c0.1-0.4,0.4-0.8,0.7-1.1c0.3-0.3,0.7-0.6,1.1-0.8c0.4-0.2,0.9-0.3,1.4-0.3
	c0.6,0,1.1,0.1,1.6,0.4c0.4,0.3,0.8,0.7,1,1.1l-0.3,0.1c-0.1-0.2-0.3-0.5-0.5-0.6c-0.2-0.2-0.4-0.3-0.6-0.4
	c-0.2-0.1-0.4-0.2-0.6-0.2c-0.2,0-0.4-0.1-0.7-0.1c-0.4,0-0.9,0.1-1.3,0.3c-0.4,0.2-0.7,0.4-0.9,0.8c-0.3,0.3-0.4,0.6-0.6,1
	c-0.1,0.4-0.2,0.8-0.2,1.2c0,0.4,0.1,0.9,0.2,1.2c0.1,0.4,0.4,0.7,0.6,1.1c0.3,0.3,0.6,0.5,1,0.7c0.4,0.2,0.8,0.3,1.2,0.3
	c0.5,0,0.9-0.1,1.3-0.3c0.2-0.1,0.4-0.3,0.6-0.4c0.2-0.2,0.4-0.4,0.5-0.6l0.3,0.1c-0.1,0.3-0.3,0.5-0.5,0.7
	c-0.2,0.2-0.4,0.4-0.7,0.5c-0.3,0.1-0.5,0.2-0.8,0.3c-0.3,0.1-0.6,0.1-0.8,0.1c-0.5,0-0.9-0.1-1.3-0.3c-0.4-0.2-0.7-0.5-1-0.8
	c-0.3-0.3-0.5-0.7-0.7-1.2C-786.9,461.2-787,460.8-787,460.3z"/>
<path d="M-779.1,463.9v-7.1h0.4v7.1H-779.1z"/>
<path d="M-776.3,463.9v-7.1h4.6v0.3h-4.3v3h3.6v0.3h-3.6v3.5H-776.3z"/>
<path d="M-769.8,463.9v-7.1h0.4v7.1H-769.8z"/>
<path d="M-767.6,460.3c0-0.4,0.1-0.9,0.2-1.3c0.1-0.4,0.4-0.8,0.7-1.1c0.3-0.3,0.6-0.6,1-0.8c0.4-0.2,0.9-0.3,1.4-0.3
	c0.6,0,1.1,0.1,1.6,0.4c0.4,0.3,0.8,0.7,1,1.1l-0.3,0.1c-0.1-0.2-0.3-0.5-0.5-0.6c-0.2-0.2-0.4-0.3-0.6-0.4
	c-0.2-0.1-0.4-0.2-0.6-0.2c-0.2,0-0.4-0.1-0.7-0.1c-0.4,0-0.9,0.1-1.3,0.3c-0.4,0.2-0.7,0.4-0.9,0.8c-0.3,0.3-0.4,0.6-0.6,1
	c-0.1,0.4-0.2,0.8-0.2,1.2c0,0.4,0.1,0.9,0.2,1.3c0.1,0.4,0.4,0.7,0.6,1.1c0.3,0.3,0.6,0.5,1,0.7c0.4,0.2,0.8,0.3,1.2,0.3
	c0.2,0,0.5,0,0.7-0.1c0.2-0.1,0.5-0.1,0.7-0.3c0.2-0.1,0.4-0.3,0.6-0.4c0.2-0.2,0.4-0.4,0.5-0.6l0.3,0.1c-0.1,0.3-0.3,0.5-0.5,0.7
	c-0.2,0.2-0.4,0.4-0.7,0.5c-0.3,0.1-0.5,0.2-0.8,0.3c-0.3,0.1-0.6,0.1-0.8,0.1c-0.5,0-0.9-0.1-1.3-0.3c-0.4-0.2-0.7-0.5-1-0.8
	c-0.3-0.3-0.5-0.7-0.7-1.2C-767.4,461.3-767.5,460.8-767.6,460.3z"/>
<path d="M-757.5,456.8h0.3l3,7.1h-0.4l-1-2.4h-3.6l-1,2.4h-0.4L-757.5,456.8z M-755.7,461.2l-1.7-3.9l-1.7,3.9H-755.7z"/>
<path d="M-748.3,457.2h-2.7v6.8h-0.3v-6.8h-2.7v-0.3h5.7L-748.3,457.2z"/>
<path d="M-746.7,463.9v-7.1h0.4v7.1H-746.7z"/>
<path d="M-741.1,464c-0.5,0-0.9-0.1-1.3-0.3c-0.4-0.2-0.7-0.5-1-0.8c-0.3-0.3-0.5-0.7-0.7-1.1c-0.2-0.4-0.2-0.9-0.2-1.3
	c0-0.5,0.1-0.9,0.2-1.4c0.2-0.4,0.4-0.8,0.7-1.1c0.3-0.3,0.6-0.6,1-0.8c0.4-0.2,0.9-0.3,1.3-0.3c0.5,0,0.9,0.1,1.3,0.3
	c0.4,0.2,0.7,0.5,1,0.8c0.3,0.3,0.5,0.7,0.7,1.1c0.5,1.3,0.2,2.8-0.7,3.8c-0.3,0.3-0.6,0.6-1,0.8C-740.1,463.9-740.6,464-741.1,464z
	 M-744.1,460.4c0,0.4,0.1,0.8,0.2,1.2c0.1,0.4,0.3,0.7,0.6,1c0.3,0.3,0.6,0.6,0.9,0.7c0.4,0.2,0.8,0.3,1.2,0.3
	c0.4,0,0.8-0.1,1.2-0.3c0.4-0.2,0.7-0.4,0.9-0.7c0.3-0.3,0.5-0.7,0.6-1c0.1-0.4,0.2-0.8,0.2-1.2c0-0.4-0.1-0.8-0.2-1.2
	c-0.1-0.4-0.4-0.7-0.6-1c-0.3-0.3-0.6-0.5-0.9-0.7c-0.8-0.4-1.6-0.4-2.4,0c-0.4,0.2-0.7,0.4-0.9,0.8
	C-743.8,458.8-744,459.6-744.1,460.4L-744.1,460.4z"/>
<path d="M-735.5,457.5v6.4h-0.4v-7.1h0.3l5.2,6.6v-6.6h0.3v7.1h-0.3L-735.5,457.5z"/>
<path d="M-723.5,457.9c-0.2-0.3-0.5-0.5-0.9-0.6c-0.4-0.1-0.7-0.2-1.1-0.2c-0.6,0-1.2,0.1-1.6,0.4c-0.3,0.3-0.5,0.7-0.5,1.1
	c0,0.2,0,0.4,0.1,0.6c0.1,0.2,0.2,0.3,0.4,0.4c0.2,0.1,0.4,0.2,0.7,0.3c0.3,0.1,0.6,0.2,1,0.2c0.4,0.1,0.7,0.2,1,0.3
	c0.3,0.1,0.6,0.2,0.8,0.4c0.2,0.1,0.4,0.3,0.5,0.5c0.1,0.2,0.2,0.5,0.2,0.8c0,0.3-0.1,0.5-0.2,0.8c-0.1,0.2-0.3,0.4-0.5,0.6
	c-0.2,0.2-0.5,0.3-0.8,0.3c-0.3,0.1-0.7,0.1-1,0.1c-0.5,0-1-0.1-1.5-0.3c-0.5-0.2-0.9-0.5-1.3-0.8l0.2-0.2c0.3,0.3,0.7,0.6,1.1,0.8
	c0.5,0.2,1,0.3,1.4,0.3c0.5,0,1.1-0.1,1.5-0.4c0.4-0.2,0.6-0.7,0.6-1.1c0-0.2,0-0.4-0.1-0.6c-0.1-0.2-0.2-0.3-0.4-0.4
	c-0.2-0.1-0.5-0.2-0.7-0.3c-0.3-0.1-0.7-0.2-1-0.3c-0.4-0.1-0.7-0.2-1-0.2c-0.3-0.1-0.5-0.2-0.8-0.3c-0.2-0.1-0.4-0.3-0.5-0.5
	c-0.1-0.2-0.2-0.5-0.2-0.7c0-0.3,0.1-0.6,0.2-0.8c0.1-0.2,0.3-0.4,0.5-0.6c0.2-0.2,0.5-0.3,0.8-0.4c0.3-0.1,0.7-0.1,1-0.1
	c0.4,0,0.8,0.1,1.2,0.2c0.4,0.1,0.7,0.4,1,0.6L-723.5,457.9z"/>
<path d="M-716,456.8h0.3l3,7.1h-0.3l-1-2.4h-3.6l-1,2.4h-0.4L-716,456.8z M-714.2,461.2l-1.7-3.9l-1.7,3.9L-714.2,461.2z"/>
<path d="M-710.7,457.5v6.4h-0.3v-7.1h0.3l5.2,6.6v-6.6h0.4v7.1h-0.3L-710.7,457.5z"/>
<path d="M-702.8,463.9v-7.1h2.3c0.5,0,1,0.1,1.5,0.3c0.4,0.2,0.7,0.4,1,0.8c0.3,0.3,0.5,0.7,0.6,1.1c0.1,0.4,0.2,0.9,0.2,1.4
	c0,0.5-0.1,1-0.2,1.5c-0.1,0.4-0.4,0.8-0.7,1.1c-0.3,0.3-0.7,0.6-1,0.7c-0.4,0.2-0.9,0.3-1.4,0.2H-702.8z M-697.5,460.4
	c0-0.4-0.1-0.9-0.2-1.3c-0.1-0.4-0.3-0.7-0.6-1c-0.3-0.3-0.6-0.5-1-0.7c-0.4-0.2-0.8-0.2-1.3-0.2h-2v6.4h2c0.4,0,0.9-0.1,1.3-0.2
	c0.4-0.2,0.7-0.4,0.9-0.7c0.3-0.3,0.4-0.6,0.6-1C-697.5,461.3-697.4,460.8-697.5,460.4z"/>
<path d="M-683.3,464c-0.5,0-0.9-0.1-1.3-0.3c-0.4-0.2-0.7-0.5-1-0.8c-0.3-0.3-0.5-0.7-0.7-1.1c-0.2-0.4-0.2-0.9-0.2-1.3
	c0-0.5,0.1-0.9,0.2-1.4c0.2-0.4,0.4-0.8,0.7-1.1c0.3-0.3,0.6-0.6,1-0.8c0.4-0.2,0.9-0.3,1.3-0.3c0.5,0,0.9,0.1,1.4,0.3
	c0.4,0.2,0.7,0.5,1,0.8c0.3,0.3,0.5,0.7,0.7,1.1c0.5,1.3,0.2,2.8-0.7,3.8c-0.3,0.3-0.6,0.6-1,0.8C-682.4,463.9-682.9,464-683.3,464z
	 M-686.3,460.4c0,0.4,0.1,0.8,0.2,1.2c0.1,0.4,0.3,0.7,0.6,1c0.3,0.3,0.6,0.6,0.9,0.7c0.4,0.2,0.8,0.3,1.2,0.3
	c0.4,0,0.8-0.1,1.2-0.3c0.4-0.2,0.7-0.4,0.9-0.7c0.3-0.3,0.5-0.7,0.6-1c0.1-0.4,0.2-0.8,0.2-1.2c0-0.4-0.1-0.8-0.2-1.2
	c-0.1-0.4-0.4-0.7-0.6-1c-0.3-0.3-0.6-0.5-0.9-0.7c-0.8-0.4-1.6-0.4-2.4,0c-0.4,0.2-0.7,0.4-0.9,0.8
	C-686,458.8-686.3,459.6-686.3,460.4L-686.3,460.4z"/>
<path d="M-689.3,457.7c-0.2-0.3-0.5-0.5-0.9-0.6c-0.4-0.1-0.7-0.2-1.1-0.2c-0.6,0-1.2,0.1-1.6,0.4c-0.3,0.3-0.5,0.7-0.5,1.1
	c0,0.2,0,0.4,0.1,0.6c0.1,0.2,0.2,0.3,0.4,0.4c0.2,0.1,0.4,0.2,0.7,0.3c0.3,0.1,0.6,0.2,1,0.2c0.4,0.1,0.7,0.2,1,0.3
	c0.3,0.1,0.6,0.2,0.8,0.4c0.2,0.1,0.4,0.3,0.5,0.5c0.1,0.2,0.2,0.5,0.2,0.8c0,0.3-0.1,0.5-0.2,0.8c-0.1,0.2-0.3,0.4-0.5,0.6
	c-0.2,0.2-0.5,0.3-0.8,0.3c-0.3,0.1-0.7,0.1-1,0.1c-0.5,0-1-0.1-1.5-0.3c-0.5-0.2-0.9-0.5-1.3-0.8l0.2-0.2c0.3,0.3,0.7,0.6,1.1,0.8
	c0.5,0.2,1,0.3,1.5,0.3c0.6,0,1.1-0.1,1.6-0.4c0.4-0.2,0.6-0.7,0.6-1.1c0-0.2,0-0.4-0.1-0.6c-0.1-0.2-0.2-0.3-0.4-0.4
	c-0.2-0.1-0.5-0.2-0.7-0.3c-0.3-0.1-0.7-0.2-1-0.3c-0.4-0.1-0.7-0.2-1-0.2c-0.3-0.1-0.6-0.2-0.9-0.3c-0.2-0.1-0.4-0.3-0.5-0.5
	c-0.1-0.2-0.2-0.5-0.2-0.7c0-0.3,0.1-0.6,0.2-0.8c0.1-0.2,0.3-0.4,0.5-0.6c0.2-0.2,0.5-0.3,0.8-0.4c0.3-0.1,0.7-0.1,1-0.1
	c0.4,0,0.8,0.1,1.2,0.2c0.4,0.1,0.7,0.4,1,0.6L-689.3,457.7z"/>
<path d="M-678.3,464v-7.1h4.6v0.3h-4.3v3h3.6v0.3h-3.6v3.5H-678.3z"/>
<path d="M-666.3,457.2h-2.7v6.8h-0.3v-6.8h-2.7v-0.3h5.7L-666.3,457.2z"/>
<path d="M-652,456.9h0.3l3,7.1h-0.4l-1-2.4h-3.6l-1,2.4h-0.4L-652,456.9z M-650.2,461.2l-1.7-3.9l-1.7,3.9H-650.2z"/>
<path d="M-636.6,463.7v0.3h-4.7v-7.1h4.6v0.3h-4.3v3h3.7v0.3h-3.7v3.1H-636.6z"/>
<g>
	<g>
		<path d="M-662.5,463.8l-2.3-6.9l0.3-0.2l2.3,6.9L-662.5,463.8z"/>
		<path d="M-662.5,463.9l2.1-7l0.2,0.1l-2.1,7L-662.5,463.9z"/>
	</g>
	<g>
		<path d="M-657.8,463.8l-2.5-6.9l0.3-0.2l2.5,6.9L-657.8,463.8z"/>
		<path d="M-657.7,463.9l2.3-7l0.3,0.1l-2.3,7L-657.7,463.9z"/>
	</g>
</g>
<path d="M-647.7,464v-7.1h2.9c0.3,0,0.6,0.1,0.8,0.2c0.2,0.1,0.5,0.3,0.6,0.5c0.2,0.2,0.3,0.4,0.4,0.7c0.1,0.3,0.2,0.5,0.2,0.8
	c0,0.3-0.1,0.6-0.2,0.8c-0.1,0.3-0.2,0.5-0.4,0.7c-0.2,0.2-0.4,0.4-0.6,0.5c-0.2,0.1-0.5,0.2-0.8,0.2h-2.6v2.7H-647.7z
	 M-647.4,460.9h2.6c0.2,0,0.5-0.1,0.7-0.2c0.2-0.1,0.4-0.2,0.5-0.4c0.1-0.2,0.3-0.4,0.3-0.6c0.1-0.2,0.1-0.4,0.1-0.7
	c0-0.2,0-0.5-0.1-0.7c-0.1-0.2-0.2-0.4-0.4-0.6c-0.2-0.2-0.3-0.3-0.5-0.4c-0.2-0.1-0.4-0.2-0.7-0.2h-2.5V460.9z"/>
<path d="M-643,464l-1.8-3l0.3-0.2l1.8,3L-643,464z"/>
</svg>
