<svg xmlns="http://www.w3.org/2000/svg" viewBox="0 0 183.8 26.68"><title>Frictionless Data</title><polygon points="0.15 13.59 2.28 13.59 2.28 7.77 8.02 7.77 8.02 6 2.28 6 2.28 1.98 9.14 1.98 9.14 0.1 0.15 0.1 0.15 13.59"/><path d="M19.64,7.88A3.73,3.73,0,0,0,20.48,7,4.59,4.59,0,0,0,21,5.79a4.5,4.5,0,0,0,.19-1.31,4.31,4.31,0,0,0-.31-1.61A4.69,4.69,0,0,0,20,1.47a4.31,4.31,0,0,0-1.32-1A3.75,3.75,0,0,0,17,.09H11.15v13.5h2.13V8.89H16.4l2.93,4.69h2.41L18.56,8.46A3.46,3.46,0,0,0,19.64,7.88ZM17.83,6.81A1.72,1.72,0,0,1,17,7H13.28V2h3.61a1.74,1.74,0,0,1,.81.2,2.26,2.26,0,0,1,.68.54,2.8,2.8,0,0,1,.48.8,2.62,2.62,0,0,1,.18,1,3,3,0,0,1-.15,1,2.8,2.8,0,0,1-.42.81A2,2,0,0,1,17.83,6.81Z"/><rect x="23.71" y="0.09" width="2.13" height="13.49"/><path d="M37.46,10.56a4,4,0,0,1-.89.69,3.78,3.78,0,0,1-1,.4,4.33,4.33,0,0,1-1,.13,3.77,3.77,0,0,1-1.75-.41,4.41,4.41,0,0,1-1.38-1.09,5.09,5.09,0,0,1-.9-1.58,5.49,5.49,0,0,1-.32-1.88,5.78,5.78,0,0,1,.28-1.75,5,5,0,0,1,.82-1.58,4.14,4.14,0,0,1,1.34-1.13,3.88,3.88,0,0,1,1.86-.43,5,5,0,0,1,1,.1,3.81,3.81,0,0,1,1,.35,3.34,3.34,0,0,1,.87.67,3.83,3.83,0,0,1,.69,1l1.61-1a5.32,5.32,0,0,0-2-2.13A5.84,5.84,0,0,0,34.56,0,6.24,6.24,0,0,0,31.8.61a6.47,6.47,0,0,0-2.06,1.55,6.7,6.7,0,0,0-1.28,2.17,7,7,0,0,0,0,5,7.3,7.3,0,0,0,1.33,2.22,6.84,6.84,0,0,0,2,1.59,5.6,5.6,0,0,0,2.6.61A6.64,6.64,0,0,0,36,13.54a6.82,6.82,0,0,0,1.57-.61,5.79,5.79,0,0,0,1.33-1,4.16,4.16,0,0,0,.91-1.34L38,9.59A3.47,3.47,0,0,1,37.46,10.56Z"/><polygon points="40.51 1.98 45.01 1.98 45.01 13.59 47.16 13.59 47.16 1.98 51.64 1.98 51.64 0.1 40.51 0.1 40.51 1.98"/><rect x="53.44" y="0.09" width="2.13" height="13.49"/><path d="M68.92,2.17a6.61,6.61,0,0,0-2-1.57A5.76,5.76,0,0,0,64.26,0a6,6,0,0,0-2.59.56,6.48,6.48,0,0,0-2,1.51,7.16,7.16,0,0,0-1.36,2.18,6.88,6.88,0,0,0-.49,2.58,7.11,7.11,0,0,0,.47,2.53,7,7,0,0,0,1.32,2.19,6.59,6.59,0,0,0,2,1.54,6.24,6.24,0,0,0,5.21,0,6.65,6.65,0,0,0,2.06-1.5,6.8,6.8,0,0,0,1.36-2.18,7,7,0,0,0,0-5.08A7.2,7.2,0,0,0,68.92,2.17Zm-.69,6.46a5.08,5.08,0,0,1-.84,1.58,4.27,4.27,0,0,1-1.34,1.13,3.75,3.75,0,0,1-1.82.43,3.87,3.87,0,0,1-1.79-.41,4.24,4.24,0,0,1-1.36-1.09,5,5,0,0,1-.86-1.58,5.69,5.69,0,0,1-.3-1.84A5.62,5.62,0,0,1,60.22,5a5,5,0,0,1,.84-1.57,4.35,4.35,0,0,1,1.35-1.11,4,4,0,0,1,3.58,0A4.33,4.33,0,0,1,67.34,3.4,4.93,4.93,0,0,1,68.21,5a5.77,5.77,0,0,1,0,3.64Z"/><polygon points="82.29 9.82 74.57 0.1 72.9 0.1 72.9 13.59 75.03 13.59 75.03 4.08 82.67 13.59 84.43 13.59 84.43 0.11 82.29 0.11 82.29 9.82"/><polygon points="89.6 0.1 87.47 0.1 87.47 13.59 96.84 13.59 96.84 11.71 89.6 11.71 89.6 0.1"/><polygon points="100.7 7.58 106.72 7.58 106.72 5.81 100.7 5.81 100.7 1.98 107.65 1.98 107.65 0.1 98.57 0.1 98.57 13.59 107.82 13.59 107.82 11.71 100.7 11.71 100.7 7.58"/><path d="M118,7.22a5.28,5.28,0,0,0-1.4-.74,16.87,16.87,0,0,0-1.85-.55l-1.46-.39a4.78,4.78,0,0,1-1-.42,1.71,1.71,0,0,1-.62-.55,1.48,1.48,0,0,1-.2-.81,1.64,1.64,0,0,1,.64-1.37,3.24,3.24,0,0,1,2-.49A5.28,5.28,0,0,1,115.3,2a6.16,6.16,0,0,1,1.06.34,5.57,5.57,0,0,1,.85.45,3,3,0,0,1,.55.45l1-1.75a8.41,8.41,0,0,0-2-1.08A7.11,7.11,0,0,0,114.13,0a6.78,6.78,0,0,0-1.94.27,4.52,4.52,0,0,0-1.55.79,3.76,3.76,0,0,0-1,1.29,3.92,3.92,0,0,0-.38,1.76,3.26,3.26,0,0,0,.26,1.36,2.81,2.81,0,0,0,.75,1,4.4,4.4,0,0,0,1.25.71,16,16,0,0,0,1.76.56q.87.23,1.56.44a6.36,6.36,0,0,1,1.16.46,2.21,2.21,0,0,1,.73.6,1.39,1.39,0,0,1,.26.86,1.44,1.44,0,0,1-.68,1.29,3.61,3.61,0,0,1-1.94.44,6.13,6.13,0,0,1-1.5-.18,9.44,9.44,0,0,1-1.34-.44,6.51,6.51,0,0,1-1.08-.56,4.55,4.55,0,0,1-.71-.55l-1,1.82a8.51,8.51,0,0,0,2.59,1.36,9.56,9.56,0,0,0,3,.46,8.12,8.12,0,0,0,1.92-.22,4.72,4.72,0,0,0,1.57-.68,3.32,3.32,0,0,0,1.06-1.21,3.75,3.75,0,0,0,.39-1.77A3.48,3.48,0,0,0,119,8.31,3,3,0,0,0,118,7.22Z"/><path d="M129.63,7.22a5.28,5.28,0,0,0-1.4-.74,16.87,16.87,0,0,0-1.85-.55l-1.46-.39a4.78,4.78,0,0,1-1-.42,1.71,1.71,0,0,1-.62-.55,1.48,1.48,0,0,1-.2-.81,1.64,1.64,0,0,1,.64-1.37,3.24,3.24,0,0,1,2-.49,5.28,5.28,0,0,1,1.19.13,6.16,6.16,0,0,1,1.06.34,5.57,5.57,0,0,1,.85.45,3,3,0,0,1,.55.45l1-1.75a8.41,8.41,0,0,0-2-1.08A7.11,7.11,0,0,0,125.74,0a6.78,6.78,0,0,0-1.94.27,4.52,4.52,0,0,0-1.55.79,3.76,3.76,0,0,0-1,1.29,3.92,3.92,0,0,0-.38,1.76,3.26,3.26,0,0,0,.26,1.36,2.81,2.81,0,0,0,.75,1,4.4,4.4,0,0,0,1.25.71,16,16,0,0,0,1.76.56q.87.23,1.56.44a6.36,6.36,0,0,1,1.16.46,2.21,2.21,0,0,1,.73.6,1.39,1.39,0,0,1,.26.86,1.44,1.44,0,0,1-.68,1.29,3.61,3.61,0,0,1-1.94.44,6.13,6.13,0,0,1-1.5-.18,9.44,9.44,0,0,1-1.34-.44,6.51,6.51,0,0,1-1.08-.56,4.55,4.55,0,0,1-.71-.55l-1,1.82a8.51,8.51,0,0,0,2.59,1.36,9.56,9.56,0,0,0,3,.46,8.12,8.12,0,0,0,1.92-.22,4.72,4.72,0,0,0,1.57-.68,3.32,3.32,0,0,0,1.06-1.21,3.75,3.75,0,0,0,.39-1.77,3.48,3.48,0,0,0-.31-1.55A3,3,0,0,0,129.63,7.22Z"/><path d="M147.35,2.07A5.89,5.89,0,0,0,145.3.63,7.14,7.14,0,0,0,142.44.1h-4.79V13.59h4.79a7.3,7.3,0,0,0,2.72-.48,5.86,5.86,0,0,0,2.07-1.37,6,6,0,0,0,1.32-2.13A7.89,7.89,0,0,0,149,6.82a8,8,0,0,0-.42-2.61A6,6,0,0,0,147.35,2.07Zm-.79,6.69a4.42,4.42,0,0,1-.84,1.55,3.9,3.9,0,0,1-1.39,1,4.59,4.59,0,0,1-1.89.37h-2.66V2h2.66a4.57,4.57,0,0,1,1.86.36,4,4,0,0,1,1.39,1,4.28,4.28,0,0,1,.87,1.53,6.22,6.22,0,0,1,.29,2,6.32,6.32,0,0,1-.29,1.87Z"/><path d="M154.75.09l-5.36,13.49h2.26l1.41-3.67h5.21l1.42,3.67h2.24L156.61.09Zm-1.31,8.25,2.24-5.79,2.17,5.79Z"/><polygon points="172.18 0.1 161.04 0.1 161.04 1.98 165.54 1.98 165.54 13.59 167.69 13.59 167.69 1.98 172.18 1.98 172.18 0.1"/><path d="M178.48.09h-1.86l-5.36,13.49h2.26l1.41-3.67h5.21l1.42,3.67h2.24Zm-3.17,8.25,2.24-5.79,2.17,5.79Z"/><path class="a" d="M4.86,20.57A2.21,2.21,0,0,0,4,20a3.16,3.16,0,0,0-1.1-.17,2.53,2.53,0,0,0-1.64.43,1.43,1.43,0,0,0-.51,1.15A1.33,1.33,0,0,0,.87,22a1.09,1.09,0,0,0,.38.41,2.39,2.39,0,0,0,.67.29q.41.12,1,.24t1,.26a3.06,3.06,0,0,1,.8.36,1.53,1.53,0,0,1,.51.54,1.6,1.6,0,0,1,.18.79,1.71,1.71,0,0,1-.17.79,1.56,1.56,0,0,1-.5.57,2.37,2.37,0,0,1-.8.34,4.28,4.28,0,0,1-1,.12,4.18,4.18,0,0,1-1.53-.26,3.86,3.86,0,0,1-1.26-.82l.21-.25a3.35,3.35,0,0,0,1.14.77,3.83,3.83,0,0,0,1.45.26A2.92,2.92,0,0,0,4.53,26a1.23,1.23,0,0,0,.57-1.12A1.36,1.36,0,0,0,5,24.24a1.23,1.23,0,0,0-.42-.45,2.92,2.92,0,0,0-.72-.32,10.45,10.45,0,0,0-1-.26q-.58-.12-1-.25A2.78,2.78,0,0,1,1,22.64a1.34,1.34,0,0,1-.46-.49,1.54,1.54,0,0,1-.15-.73,1.86,1.86,0,0,1,.18-.83,1.69,1.69,0,0,1,.5-.61,2.33,2.33,0,0,1,.79-.37,3.73,3.73,0,0,1,1-.13,3.37,3.37,0,0,1,1.21.2,2.66,2.66,0,0,1,1,.64Z"/><path class="a" d="M7.27,26.62v-7.1h2.91a1.76,1.76,0,0,1,.81.19,2.18,2.18,0,0,1,.64.5,2.35,2.35,0,0,1,.42.7,2.12,2.12,0,0,1,.16.79,2.34,2.34,0,0,1-.15.81,2.28,2.28,0,0,1-.4.7,2,2,0,0,1-.62.49,1.73,1.73,0,0,1-.8.18H7.62v2.74Zm.35-3.06h2.61a1.43,1.43,0,0,0,.68-.16,1.62,1.62,0,0,0,.51-.42,2,2,0,0,0,.33-.6,2.11,2.11,0,0,0,.11-.68,1.85,1.85,0,0,0-.13-.7,2,2,0,0,0-.37-.59,1.84,1.84,0,0,0-.53-.41,1.43,1.43,0,0,0-.66-.16H7.62Z"/><path class="a" d="M18.66,26.3v.32H14v-7.1h4.6v.32H14.32v3H18v.32H14.32V26.3Z"/><path class="a" d="M20,23a3.75,3.75,0,0,1,.23-1.27,3.61,3.61,0,0,1,.65-1.13,3.34,3.34,0,0,1,1.06-.82,3.12,3.12,0,0,1,1.42-.31,2.89,2.89,0,0,1,1.62.43,2.68,2.68,0,0,1,1,1.12l-.3.14a2.56,2.56,0,0,0-.46-.64,2.35,2.35,0,0,0-.58-.42,2.56,2.56,0,0,0-.64-.23,3.23,3.23,0,0,0-.66-.07,2.73,2.73,0,0,0-1.26.28,3,3,0,0,0-.94.75,3.24,3.24,0,0,0-.58,1A3.66,3.66,0,0,0,20.32,23a3.46,3.46,0,0,0,.23,1.25,3.41,3.41,0,0,0,.63,1.06,3.1,3.1,0,0,0,1,.72,2.65,2.65,0,0,0,1.18.27A3,3,0,0,0,24.69,26a2.69,2.69,0,0,0,.61-.44,2.57,2.57,0,0,0,.48-.65l.31.12a2.37,2.37,0,0,1-.49.71,3,3,0,0,1-.69.52,3.28,3.28,0,0,1-.8.32,3.42,3.42,0,0,1-.83.1,2.81,2.81,0,0,1-1.33-.32,3.55,3.55,0,0,1-1-.83,3.86,3.86,0,0,1-.69-1.17A3.79,3.79,0,0,1,20,23Z"/><path class="a" d="M27.91,26.62v-7.1h.35v7.1Z"/><path class="a" d="M30.68,26.62v-7.1h4.6v.32H31v3h3.61v.31H31v3.47Z"/><path class="a" d="M37.16,26.62v-7.1h.35v7.1Z"/><path class="a" d="M39.43,23a3.77,3.77,0,0,1,.22-1.27,3.63,3.63,0,0,1,.66-1.13,3.35,3.35,0,0,1,1.05-.82,3.13,3.13,0,0,1,1.43-.31,2.88,2.88,0,0,1,1.61.43,2.68,2.68,0,0,1,1,1.12l-.3.14a2.56,2.56,0,0,0-.46-.64,2.37,2.37,0,0,0-.58-.42,2.56,2.56,0,0,0-.64-.23,3.23,3.23,0,0,0-.66-.07,2.74,2.74,0,0,0-1.27.28,2.94,2.94,0,0,0-.93.75,3.22,3.22,0,0,0-.58,1,3.66,3.66,0,0,0-.2,1.17A3.46,3.46,0,0,0,40,24.3a3.41,3.41,0,0,0,.63,1.06,3.1,3.1,0,0,0,1,.72,2.64,2.64,0,0,0,1.18.27,2.87,2.87,0,0,0,.69-.09,2.84,2.84,0,0,0,.68-.26,2.67,2.67,0,0,0,.61-.44,2.54,2.54,0,0,0,.48-.65l.31.12a2.37,2.37,0,0,1-.49.71,3.07,3.07,0,0,1-.69.52,3.29,3.29,0,0,1-.81.32,3.42,3.42,0,0,1-.83.1,2.82,2.82,0,0,1-1.33-.32,3.56,3.56,0,0,1-1-.83,3.88,3.88,0,0,1-.68-1.17A3.79,3.79,0,0,1,39.43,23Z"/><path class="a" d="M49.53,19.52h.3l3.05,7.1h-.37l-1-2.45H47.9l-1,2.45h-.38Zm1.82,4.35L49.68,20,48,23.87Z"/><path class="a" d="M58.71,19.84H56v6.78H55.7V19.84H53v-.32h5.67Z"/><path class="a" d="M60.35,26.62v-7.1h.35v7.1Z"/><path class="a" d="M65.94,26.67a3,3,0,0,1-1.35-.31,3.49,3.49,0,0,1-1-.81,3.62,3.62,0,0,1-.68-1.15,3.81,3.81,0,0,1-.24-1.33,3.69,3.69,0,0,1,.25-1.36,3.79,3.79,0,0,1,.7-1.15,3.37,3.37,0,0,1,1-.8,3,3,0,0,1,1.32-.29,2.9,2.9,0,0,1,1.35.32,3.43,3.43,0,0,1,1,.83A3.79,3.79,0,0,1,69,21.76a3.76,3.76,0,0,1-.71,3.82,3.4,3.4,0,0,1-1,.79A2.93,2.93,0,0,1,65.94,26.67Zm-3-3.6a3.47,3.47,0,0,0,.22,1.23,3.38,3.38,0,0,0,.61,1,3,3,0,0,0,.94.73,2.66,2.66,0,0,0,1.2.27,2.58,2.58,0,0,0,1.21-.29,3.08,3.08,0,0,0,.93-.74,3.34,3.34,0,0,0,.6-1.05,3.53,3.53,0,0,0,.21-1.19,3.42,3.42,0,0,0-.23-1.23,3.45,3.45,0,0,0-.62-1,3,3,0,0,0-.94-.72,2.71,2.71,0,0,0-2.39,0,3.09,3.09,0,0,0-.94.75A3.52,3.52,0,0,0,63,23.07Z"/><path class="a" d="M71.52,20.18v6.44h-.35v-7.1h.26l5.22,6.55V19.52H77v7.1h-.34Z"/><path class="a" d="M83.54,20.57a2.2,2.2,0,0,0-.86-.61,3.16,3.16,0,0,0-1.1-.17,2.53,2.53,0,0,0-1.64.43,1.43,1.43,0,0,0-.51,1.15,1.33,1.33,0,0,0,.13.61,1.09,1.09,0,0,0,.39.41,2.37,2.37,0,0,0,.67.29q.41.12,1,.24t1,.26a3.08,3.08,0,0,1,.8.36,1.53,1.53,0,0,1,.51.54,1.59,1.59,0,0,1,.18.79,1.71,1.71,0,0,1-.17.79,1.56,1.56,0,0,1-.5.57,2.37,2.37,0,0,1-.79.34,4.29,4.29,0,0,1-1,.12,4.19,4.19,0,0,1-1.53-.26,3.87,3.87,0,0,1-1.26-.82l.21-.25a3.35,3.35,0,0,0,1.14.77,3.83,3.83,0,0,0,1.45.26A2.92,2.92,0,0,0,83.2,26a1.23,1.23,0,0,0,.58-1.12,1.36,1.36,0,0,0-.14-.64,1.21,1.21,0,0,0-.42-.45,2.9,2.9,0,0,0-.72-.32,10.45,10.45,0,0,0-1-.26q-.58-.12-1-.25a2.75,2.75,0,0,1-.75-.33,1.32,1.32,0,0,1-.46-.49,1.54,1.54,0,0,1-.16-.73,1.86,1.86,0,0,1,.18-.83,1.69,1.69,0,0,1,.5-.61,2.33,2.33,0,0,1,.79-.37,3.73,3.73,0,0,1,1-.13,3.37,3.37,0,0,1,1.21.2,2.65,2.65,0,0,1,.95.64Z"/><path class="a" d="M91,19.52h.3l3.05,7.1H94l-1-2.45H89.36l-1,2.45h-.38Zm1.82,4.35L91.14,20l-1.68,3.91Z"/><path class="a" d="M96.33,20.18v6.44H96v-7.1h.26l5.22,6.55V19.52h.35v7.1h-.34Z"/><path class="a" d="M104.23,26.62v-7.1h2.32a3.59,3.59,0,0,1,1.47.28,2.94,2.94,0,0,1,1,.76,3.21,3.21,0,0,1,.63,1.13,4.42,4.42,0,0,1,.21,1.38,4.3,4.3,0,0,1-.24,1.46,3.2,3.2,0,0,1-.67,1.12,3,3,0,0,1-1.05.72,3.62,3.62,0,0,1-1.39.25Zm5.32-3.56a4.09,4.09,0,0,0-.2-1.29,2.85,2.85,0,0,0-.58-1,2.66,2.66,0,0,0-.95-.67,3.22,3.22,0,0,0-1.28-.24h-2V26.3h2a3.21,3.21,0,0,0,1.3-.25,2.62,2.62,0,0,0,.94-.68,2.86,2.86,0,0,0,.57-1A4.19,4.19,0,0,0,109.55,23.06Z"/><path class="a" d="M119.55,19.84h-2.66v6.78h-.35V19.84h-2.66v-.32h5.67Z"/><path class="a" d="M123.68,26.67a3,3,0,0,1-1.35-.31,3.49,3.49,0,0,1-1-.81,3.62,3.62,0,0,1-.68-1.15,3.81,3.81,0,0,1-.24-1.33,3.69,3.69,0,0,1,.25-1.36,3.79,3.79,0,0,1,.7-1.15,3.37,3.37,0,0,1,1-.8,3,3,0,0,1,1.32-.29,2.9,2.9,0,0,1,1.35.32,3.43,3.43,0,0,1,1,.83,3.79,3.79,0,0,1,.67,1.15,3.76,3.76,0,0,1-.71,3.82,3.4,3.4,0,0,1-1,.79A2.93,2.93,0,0,1,123.68,26.67Zm-3-3.6a3.47,3.47,0,0,0,.22,1.23,3.38,3.38,0,0,0,.61,1,3,3,0,0,0,.94.73,2.66,2.66,0,0,0,1.2.27,2.58,2.58,0,0,0,1.21-.29,3.08,3.08,0,0,0,.93-.74,3.34,3.34,0,0,0,.6-1.05,3.53,3.53,0,0,0,.21-1.19,3.42,3.42,0,0,0-.23-1.23,3.45,3.45,0,0,0-.62-1,3,3,0,0,0-.94-.72,2.71,2.71,0,0,0-2.39,0,3.09,3.09,0,0,0-.94.75,3.52,3.52,0,0,0-.82,2.24Z"/><path class="a" d="M131.73,26.67a3,3,0,0,1-1.35-.31,3.49,3.49,0,0,1-1-.81,3.62,3.62,0,0,1-.68-1.15,3.81,3.81,0,0,1-.24-1.33,3.69,3.69,0,0,1,.25-1.36,3.79,3.79,0,0,1,.7-1.15,3.37,3.37,0,0,1,1-.8,3,3,0,0,1,1.32-.29,2.9,2.9,0,0,1,1.35.32,3.43,3.43,0,0,1,1,.83,3.79,3.79,0,0,1,.67,1.15,3.76,3.76,0,0,1-.71,3.82,3.4,3.4,0,0,1-1,.79A2.93,2.93,0,0,1,131.73,26.67Zm-3-3.6A3.47,3.47,0,0,0,129,24.3a3.38,3.38,0,0,0,.61,1,3,3,0,0,0,.94.73,2.66,2.66,0,0,0,1.2.27,2.58,2.58,0,0,0,1.21-.29,3.08,3.08,0,0,0,.93-.74,3.34,3.34,0,0,0,.6-1.05,3.53,3.53,0,0,0,.21-1.19,3.42,3.42,0,0,0-.23-1.23,3.45,3.45,0,0,0-.62-1,3,3,0,0,0-.94-.72,2.71,2.71,0,0,0-2.39,0,3.09,3.09,0,0,0-.94.75,3.52,3.52,0,0,0-.82,2.24Z"/><path class="a" d="M137,26.62v-7.1h.35V26.3h4.35v.32Z"/><path class="a" d="M143.26,26.62v-7.1h.35v7.1Z"/><path class="a" d="M146.38,20.18v6.44H146v-7.1h.26l5.22,6.55V19.52h.35v7.1h-.34Z"/><path class="a" d="M159.6,25.46a3.25,3.25,0,0,1-2.48,1.21,2.91,2.91,0,0,1-1.34-.31,3.46,3.46,0,0,1-1.05-.83,3.92,3.92,0,0,1-.69-1.16,3.58,3.58,0,0,1-.25-1.3,3.87,3.87,0,0,1,.24-1.35,3.68,3.68,0,0,1,.67-1.15,3.34,3.34,0,0,1,1-.8,2.85,2.85,0,0,1,1.3-.3,3.77,3.77,0,0,1,1,.12,2.83,2.83,0,0,1,.76.32,2.38,2.38,0,0,1,.57.49,3.14,3.14,0,0,1,.41.63l-.29.15a2.41,2.41,0,0,0-1-1A3.06,3.06,0,0,0,157,19.8a2.53,2.53,0,0,0-1.21.29,3,3,0,0,0-.91.75,3.37,3.37,0,0,0-.58,1,3.68,3.68,0,0,0-.2,1.2,3.33,3.33,0,0,0,.24,1.24,3.46,3.46,0,0,0,.64,1,3.15,3.15,0,0,0,1,.72,2.65,2.65,0,0,0,1.18.27,2.75,2.75,0,0,0,1.27-.31,4,4,0,0,0,1.19-1V23.51H158v-.3h2v3.41h-.32Z"/></svg>
