<svg xmlns="http://www.w3.org/2000/svg" viewBox="0 0 183.85 26.69"><title>Frictionless Data</title><polygon points="0.2 13.59 2.33 13.59 2.33 7.77 8.07 7.77 8.07 6 2.33 6 2.33 1.98 9.19 1.98 9.19 0.1 0.2 0.1 0.2 13.59"/><path d="M19.69,7.88A3.72,3.72,0,0,0,20.53,7a4.59,4.59,0,0,0,.53-1.16,4.52,4.52,0,0,0,.19-1.31,4.31,4.31,0,0,0-.31-1.61,4.69,4.69,0,0,0-.86-1.41,4.31,4.31,0,0,0-1.32-1A3.75,3.75,0,0,0,17.07.09H11.2V13.58h2.13V8.89h3.12l2.93,4.69h2.41L18.61,8.46A3.45,3.45,0,0,0,19.69,7.88ZM17.88,6.81a1.72,1.72,0,0,1-.83.2H13.33V2h3.61a1.74,1.74,0,0,1,.81.2,2.25,2.25,0,0,1,.68.54,2.81,2.81,0,0,1,.48.8,2.62,2.62,0,0,1,.18,1,3.06,3.06,0,0,1-.15,1,2.81,2.81,0,0,1-.42.81A2,2,0,0,1,17.88,6.81Z"/><rect x="23.76" y="0.09" width="2.13" height="13.49"/><path d="M37.51,10.56a4,4,0,0,1-.89.69,3.77,3.77,0,0,1-1,.4,4.38,4.38,0,0,1-1,.12,3.78,3.78,0,0,1-1.75-.41,4.41,4.41,0,0,1-1.38-1.09,5.1,5.1,0,0,1-.9-1.58,5.5,5.5,0,0,1-.32-1.88,5.78,5.78,0,0,1,.28-1.75,5.06,5.06,0,0,1,.82-1.58,4.14,4.14,0,0,1,1.34-1.13,3.88,3.88,0,0,1,1.86-.43,5,5,0,0,1,1,.1,3.8,3.8,0,0,1,1,.35,3.35,3.35,0,0,1,.87.67,3.83,3.83,0,0,1,.68,1L39.74,3a5.32,5.32,0,0,0-2-2.13A5.84,5.84,0,0,0,34.61,0a6.24,6.24,0,0,0-2.76.59,6.47,6.47,0,0,0-2.06,1.55,6.7,6.7,0,0,0-1.28,2.17,7,7,0,0,0,0,5,7.3,7.3,0,0,0,1.33,2.22,6.83,6.83,0,0,0,2,1.59,5.59,5.59,0,0,0,2.6.61,6.64,6.64,0,0,0,1.63-.21,6.81,6.81,0,0,0,1.57-.61,5.79,5.79,0,0,0,1.33-1,4.13,4.13,0,0,0,.91-1.34l-1.77-1A3.45,3.45,0,0,1,37.51,10.56Z"/><polygon points="40.56 1.98 45.06 1.98 45.06 13.59 47.21 13.59 47.21 1.98 51.69 1.98 51.69 0.1 40.56 0.1 40.56 1.98"/><rect x="53.5" y="0.09" width="2.13" height="13.49"/><path d="M69,2.17a6.61,6.61,0,0,0-2-1.57A5.76,5.76,0,0,0,64.31,0a6,6,0,0,0-2.59.56,6.48,6.48,0,0,0-2.05,1.51A7.16,7.16,0,0,0,58.3,4.26a6.88,6.88,0,0,0-.49,2.58,7.11,7.11,0,0,0,.47,2.53,6.93,6.93,0,0,0,1.32,2.19,6.57,6.57,0,0,0,2,1.54,6.23,6.23,0,0,0,5.21,0,6.65,6.65,0,0,0,2.06-1.5,6.8,6.8,0,0,0,1.36-2.17,7,7,0,0,0,0-5.08A7.2,7.2,0,0,0,69,2.17Zm-.69,6.46a5.08,5.08,0,0,1-.84,1.58,4.25,4.25,0,0,1-1.34,1.13,3.75,3.75,0,0,1-1.82.43,3.86,3.86,0,0,1-1.79-.41,4.23,4.23,0,0,1-1.36-1.09,5,5,0,0,1-.86-1.58A5.69,5.69,0,0,1,60,6.84,5.62,5.62,0,0,1,60.27,5a5,5,0,0,1,.84-1.57,4.35,4.35,0,0,1,1.35-1.11,4,4,0,0,1,3.58,0,4.33,4.33,0,0,1,1.35,1.08A4.93,4.93,0,0,1,68.26,5a5.77,5.77,0,0,1,0,3.64Z"/><polygon points="82.34 9.82 74.62 0.1 72.95 0.1 72.95 13.59 75.08 13.59 75.08 4.08 82.72 13.59 84.48 13.59 84.48 0.11 82.34 0.11 82.34 9.82"/><polygon points="89.65 0.1 87.52 0.1 87.52 13.59 96.89 13.59 96.89 11.7 89.65 11.7 89.65 0.1"/><polygon points="100.75 7.58 106.77 7.58 106.77 5.81 100.75 5.81 100.75 1.98 107.7 1.98 107.7 0.1 98.62 0.1 98.62 13.59 107.87 13.59 107.87 11.7 100.75 11.7 100.75 7.58"/><path d="M118.08,7.22a5.28,5.28,0,0,0-1.4-.74,16.87,16.87,0,0,0-1.85-.55l-1.46-.39a4.78,4.78,0,0,1-1-.42,1.71,1.71,0,0,1-.62-.55,1.48,1.48,0,0,1-.2-.81,1.64,1.64,0,0,1,.64-1.37,3.24,3.24,0,0,1,2-.49,5.28,5.28,0,0,1,1.19.13,6.16,6.16,0,0,1,1.06.34,5.57,5.57,0,0,1,.85.45,3,3,0,0,1,.55.45l1-1.75a8.41,8.41,0,0,0-2-1.08A7.11,7.11,0,0,0,114.18,0a6.78,6.78,0,0,0-1.94.27,4.52,4.52,0,0,0-1.55.79,3.76,3.76,0,0,0-1,1.29,3.92,3.92,0,0,0-.38,1.76,3.26,3.26,0,0,0,.26,1.36,2.81,2.81,0,0,0,.75,1,4.4,4.4,0,0,0,1.25.71,16,16,0,0,0,1.76.56q.87.23,1.56.44a6.36,6.36,0,0,1,1.16.46,2.21,2.21,0,0,1,.73.6,1.39,1.39,0,0,1,.26.86,1.44,1.44,0,0,1-.68,1.29,3.61,3.61,0,0,1-1.94.44,6.13,6.13,0,0,1-1.5-.18,9.44,9.44,0,0,1-1.34-.44,6.62,6.62,0,0,1-1.08-.56,4.55,4.55,0,0,1-.71-.55l-1,1.82a8.51,8.51,0,0,0,2.59,1.36,9.56,9.56,0,0,0,3,.46,8.07,8.07,0,0,0,1.92-.22,4.7,4.7,0,0,0,1.57-.68,3.33,3.33,0,0,0,1.06-1.21,3.75,3.75,0,0,0,.39-1.77A3.48,3.48,0,0,0,119,8.29,3,3,0,0,0,118.08,7.22Z"/><path d="M129.68,7.22a5.28,5.28,0,0,0-1.4-.74,16.87,16.87,0,0,0-1.85-.55L125,5.54a4.78,4.78,0,0,1-1-.42,1.71,1.71,0,0,1-.62-.55,1.48,1.48,0,0,1-.2-.81,1.64,1.64,0,0,1,.64-1.37,3.24,3.24,0,0,1,2-.49,5.28,5.28,0,0,1,1.19.13,6.16,6.16,0,0,1,1.06.34,5.57,5.57,0,0,1,.85.45,3,3,0,0,1,.55.45l1-1.75a8.41,8.41,0,0,0-2-1.08A7.11,7.11,0,0,0,125.79,0a6.78,6.78,0,0,0-1.94.27,4.52,4.52,0,0,0-1.55.79,3.76,3.76,0,0,0-1,1.29,3.92,3.92,0,0,0-.38,1.76,3.26,3.26,0,0,0,.26,1.36,2.81,2.81,0,0,0,.75,1,4.4,4.4,0,0,0,1.25.71,16,16,0,0,0,1.76.56q.87.23,1.56.44a6.36,6.36,0,0,1,1.16.46,2.21,2.21,0,0,1,.73.6,1.39,1.39,0,0,1,.26.86,1.44,1.44,0,0,1-.68,1.29,3.61,3.61,0,0,1-1.94.44,6.13,6.13,0,0,1-1.5-.18,9.44,9.44,0,0,1-1.34-.44,6.62,6.62,0,0,1-1.08-.56,4.55,4.55,0,0,1-.71-.55l-1,1.82A8.51,8.51,0,0,0,123,13.25a9.56,9.56,0,0,0,3,.46,8.07,8.07,0,0,0,1.92-.22,4.7,4.7,0,0,0,1.57-.68,3.33,3.33,0,0,0,1.06-1.21,3.75,3.75,0,0,0,.39-1.77,3.48,3.48,0,0,0-.31-1.55A3,3,0,0,0,129.68,7.22Z"/><path d="M147.4,2.07A5.89,5.89,0,0,0,145.35.63a7.14,7.14,0,0,0-2.86-.53H137.7V13.58h4.79a7.28,7.28,0,0,0,2.72-.48,5.85,5.85,0,0,0,2.07-1.37A6.06,6.06,0,0,0,148.6,9.6a7.89,7.89,0,0,0,.47-2.78,8.05,8.05,0,0,0-.42-2.61A6,6,0,0,0,147.4,2.07Zm-.79,6.69a4.42,4.42,0,0,1-.84,1.55,3.89,3.89,0,0,1-1.39,1,4.57,4.57,0,0,1-1.89.37h-2.66V2h2.66a4.57,4.57,0,0,1,1.86.36,4,4,0,0,1,1.39,1,4.28,4.28,0,0,1,.87,1.53,6.22,6.22,0,0,1,.29,2A6.32,6.32,0,0,1,146.61,8.76Z"/><path d="M154.8.09l-5.36,13.49h2.26l1.41-3.67h5.21l1.42,3.67H162L156.66.09Zm-1.31,8.25,2.24-5.79,2.17,5.79Z"/><polygon points="172.23 0.1 161.09 0.1 161.09 1.98 165.59 1.98 165.59 13.59 167.74 13.59 167.74 1.98 172.23 1.98 172.23 0.1"/><path d="M178.53.09h-1.86l-5.36,13.49h2.26L175,9.92h5.21l1.42,3.67h2.24Zm-3.17,8.25,2.24-5.79,2.17,5.79Z"/><path d="M4.75,23.43A2.92,2.92,0,0,0,4,23.05a9.78,9.78,0,0,0-1-.27q-.51-.11-.88-.22a2.5,2.5,0,0,1-.62-.26A1,1,0,0,1,1.1,22,1.06,1.06,0,0,1,1,21.42a1.19,1.19,0,0,1,.43-1,2.14,2.14,0,0,1,1.37-.36,2.93,2.93,0,0,1,1.14.21,2.17,2.17,0,0,1,.8.55l.34-.56a3.38,3.38,0,0,0-1-.6,3.48,3.48,0,0,0-1.27-.22,3.58,3.58,0,0,0-1,.14A2.48,2.48,0,0,0,1,20a1.72,1.72,0,0,0-.53.64,2,2,0,0,0-.18.88,1.64,1.64,0,0,0,.14.73,1.36,1.36,0,0,0,.44.5,2.6,2.6,0,0,0,.71.35q.42.14,1,.27t.93.24a2.88,2.88,0,0,1,.67.28,1.17,1.17,0,0,1,.4.39,1.06,1.06,0,0,1,.14.55,1,1,0,0,1-.48.92,2.44,2.44,0,0,1-1.33.31A3.92,3.92,0,0,1,2.09,26a3.74,3.74,0,0,1-.7-.21,3.28,3.28,0,0,1-.59-.32,2.73,2.73,0,0,1-.46-.38L0,25.67a4.24,4.24,0,0,0,2.85,1,4.36,4.36,0,0,0,1-.11,2.37,2.37,0,0,0,.81-.36,1.7,1.7,0,0,0,.53-.6,1.81,1.81,0,0,0,.19-.85,1.7,1.7,0,0,0-.17-.8A1.56,1.56,0,0,0,4.75,23.43Z"/><path d="M11.59,20.24a2.21,2.21,0,0,0-.67-.51,1.84,1.84,0,0,0-.84-.19H7.14v7.1h.7V24h2.3a1.83,1.83,0,0,0,.83-.19,2.12,2.12,0,0,0,.64-.5,2.29,2.29,0,0,0,.42-.72,2.39,2.39,0,0,0,.15-.84A2.17,2.17,0,0,0,12,21,2.42,2.42,0,0,0,11.59,20.24Zm-.2,2.14a1.7,1.7,0,0,1-.28.52,1.36,1.36,0,0,1-.44.36,1.19,1.19,0,0,1-.56.13H7.84V20.15H10a1.29,1.29,0,0,1,.56.13,1.43,1.43,0,0,1,.46.35,1.73,1.73,0,0,1,.42,1.14A1.91,1.91,0,0,1,11.39,22.38Z"/><polygon points="14.56 23.3 18.03 23.3 18.03 22.71 14.56 22.71 14.56 20.15 18.54 20.15 18.54 19.54 13.86 19.54 13.86 26.64 18.63 26.64 18.63 26.02 14.56 26.02 14.56 23.3"/><path d="M25,25.34a2.56,2.56,0,0,1-.54.41,2.41,2.41,0,0,1-.61.24,2.66,2.66,0,0,1-.62.07,2.3,2.3,0,0,1-1.05-.25,2.69,2.69,0,0,1-.84-.66,3.23,3.23,0,0,1-.56-1,3.16,3.16,0,0,1-.21-1.13A3.44,3.44,0,0,1,20.7,22a3,3,0,0,1,.5-.95,2.63,2.63,0,0,1,.83-.68,2.38,2.38,0,0,1,1.13-.26,2.8,2.8,0,0,1,.59.06,2.25,2.25,0,0,1,.58.21,2.32,2.32,0,0,1,.53.39,2.11,2.11,0,0,1,.42.59l.55-.34a2.62,2.62,0,0,0-1-1.12,3,3,0,0,0-1.62-.43,3.15,3.15,0,0,0-1.43.31,3.36,3.36,0,0,0-1.06.82,3.53,3.53,0,0,0-.65,1.13,3.74,3.74,0,0,0,0,2.61,3.86,3.86,0,0,0,.69,1.17,3.52,3.52,0,0,0,1,.83,2.84,2.84,0,0,0,1.34.32,3.33,3.33,0,0,0,.83-.11,3.44,3.44,0,0,0,.8-.32,3.15,3.15,0,0,0,.69-.51A2.18,2.18,0,0,0,26,25l-.58-.3A2.13,2.13,0,0,1,25,25.34Z"/><rect x="27.66" y="19.54" width="0.7" height="7.1"/><polygon points="30.64 26.64 31.34 26.64 31.34 23.34 34.68 23.34 34.68 22.77 31.34 22.77 31.34 20.15 35.3 20.15 35.3 19.54 30.64 19.54 30.64 26.64"/><rect x="37.03" y="19.54" width="0.7" height="7.1"/><path d="M44.67,25.34a2.61,2.61,0,0,1-.54.41,2.41,2.41,0,0,1-.61.24,2.65,2.65,0,0,1-.61.07,2.3,2.3,0,0,1-1.06-.25,2.69,2.69,0,0,1-.84-.66,3.23,3.23,0,0,1-.56-1,3.16,3.16,0,0,1-.21-1.13A3.44,3.44,0,0,1,40.41,22a3,3,0,0,1,.5-.95,2.62,2.62,0,0,1,.83-.68,2.38,2.38,0,0,1,1.13-.26,2.8,2.8,0,0,1,.59.06,2.25,2.25,0,0,1,.58.21,2.34,2.34,0,0,1,.53.39,2.13,2.13,0,0,1,.42.59l.55-.34a2.62,2.62,0,0,0-1-1.12,3,3,0,0,0-1.62-.43,3.15,3.15,0,0,0-1.43.31,3.36,3.36,0,0,0-1.06.82,3.55,3.55,0,0,0-.66,1.13,3.75,3.75,0,0,0,0,2.61,3.88,3.88,0,0,0,.68,1.17,3.54,3.54,0,0,0,1.05.83,2.84,2.84,0,0,0,1.34.32,3.33,3.33,0,0,0,.83-.11,3.44,3.44,0,0,0,.8-.32,3.17,3.17,0,0,0,.69-.51,2.18,2.18,0,0,0,.48-.71l-.58-.3A2.11,2.11,0,0,1,44.67,25.34Z"/><path d="M49.47,19.54l-3,7.1h.75l.91-2.22h3.19l.92,2.22H53l-3-7.1Zm-1.16,4.33,1.45-3.51,1.43,3.51Z"/><polygon points="53.11 20.15 55.64 20.15 55.64 26.64 56.34 26.64 56.34 20.15 58.87 20.15 58.87 19.54 53.11 19.54 53.11 20.15"/><rect x="60.43" y="19.54" width="0.7" height="7.1"/><path d="M68.68,20.63a3.4,3.4,0,0,0-1-.83,2.93,2.93,0,0,0-1.36-.32,3,3,0,0,0-1.32.29,3.4,3.4,0,0,0-1.06.8,3.74,3.74,0,0,0-.71,1.15,3.69,3.69,0,0,0-.25,1.36,3.81,3.81,0,0,0,.24,1.33,3.68,3.68,0,0,0,.68,1.15,3.37,3.37,0,0,0,1.05.81,3.14,3.14,0,0,0,2.68,0,3.38,3.38,0,0,0,1.05-.79,3.75,3.75,0,0,0,.71-3.82A3.81,3.81,0,0,0,68.68,20.63Zm0,3.54a3.16,3.16,0,0,1-.53,1,2.67,2.67,0,0,1-.83.68,2.44,2.44,0,0,1-2.16,0,2.65,2.65,0,0,1-.83-.66,3,3,0,0,1-.54-.95,3.33,3.33,0,0,1-.19-1.12A3.26,3.26,0,0,1,63.82,22a3.16,3.16,0,0,1,.53-1,2.59,2.59,0,0,1,.83-.67,2.32,2.32,0,0,1,1.09-.25,2.28,2.28,0,0,1,1.06.25,2.69,2.69,0,0,1,.83.65,3.05,3.05,0,0,1,.54.95,3.21,3.21,0,0,1,.2,1.12A3.27,3.27,0,0,1,68.71,24.17Z"/><polygon points="76.66 25.44 71.96 19.54 71.42 19.54 71.42 26.64 72.12 26.64 72.12 20.84 76.75 26.64 77.36 26.64 77.36 19.55 76.66 19.55 76.66 25.44"/><path d="M83.82,23.43a2.92,2.92,0,0,0-.78-.37,9.72,9.72,0,0,0-1-.27q-.51-.11-.88-.22a2.5,2.5,0,0,1-.62-.26,1,1,0,0,1-.35-.35,1.06,1.06,0,0,1-.12-.53,1.18,1.18,0,0,1,.43-1,2.14,2.14,0,0,1,1.37-.36,2.93,2.93,0,0,1,1.14.21,2.17,2.17,0,0,1,.8.55l.34-.56a3.38,3.38,0,0,0-1-.6,3.48,3.48,0,0,0-1.26-.22,3.58,3.58,0,0,0-1,.14A2.48,2.48,0,0,0,80,20a1.73,1.73,0,0,0-.53.64,2,2,0,0,0-.18.88,1.64,1.64,0,0,0,.14.73,1.36,1.36,0,0,0,.44.5,2.6,2.6,0,0,0,.71.35q.42.14,1,.27t.93.24a2.87,2.87,0,0,1,.67.28,1.18,1.18,0,0,1,.41.39,1.06,1.06,0,0,1,.13.55,1,1,0,0,1-.48.92,2.43,2.43,0,0,1-1.32.31,3.93,3.93,0,0,1-.78-.08,3.74,3.74,0,0,1-.7-.21,3.28,3.28,0,0,1-.59-.32,2.77,2.77,0,0,1-.46-.38l-.35.57a4.23,4.23,0,0,0,2.85,1,4.36,4.36,0,0,0,1-.11,2.37,2.37,0,0,0,.81-.36,1.7,1.7,0,0,0,.53-.6,1.8,1.8,0,0,0,.19-.85,1.69,1.69,0,0,0-.17-.8A1.56,1.56,0,0,0,83.82,23.43Z"/><path d="M91.15,19.54l-3,7.1h.75l.91-2.22H93l.92,2.22h.74l-3-7.1ZM90,23.87l1.45-3.51,1.43,3.51Z"/><polygon points="101.45 25.44 96.75 19.54 96.21 19.54 96.21 26.64 96.91 26.64 96.91 20.84 101.54 26.64 102.15 26.64 102.15 19.55 101.45 19.55 101.45 25.44"/><path d="M109.38,20.58a3,3,0,0,0-1.06-.76,3.66,3.66,0,0,0-1.49-.28h-2.41v7.1h2.41a3.69,3.69,0,0,0,1.41-.25,3.07,3.07,0,0,0,1.07-.72,3.2,3.2,0,0,0,.68-1.12,4.23,4.23,0,0,0,.24-1.46A4.34,4.34,0,0,0,110,21.7,3.2,3.2,0,0,0,109.38,20.58Zm0,3.67a2.7,2.7,0,0,1-.52.93,2.37,2.37,0,0,1-.84.62,2.85,2.85,0,0,1-1.17.22h-1.71V20.15h1.71a2.89,2.89,0,0,1,1.15.22,2.35,2.35,0,0,1,.84.6,2.65,2.65,0,0,1,.53.92,3.67,3.67,0,0,1,.18,1.18A3.75,3.75,0,0,1,109.36,24.24Z"/><path d="M119.31,23.43a2.92,2.92,0,0,0-.78-.37,9.72,9.72,0,0,0-1-.27q-.51-.11-.88-.22a2.5,2.5,0,0,1-.62-.26,1,1,0,0,1-.35-.35,1.06,1.06,0,0,1-.12-.53,1.18,1.18,0,0,1,.43-1,2.14,2.14,0,0,1,1.37-.36,2.93,2.93,0,0,1,1.14.21,2.17,2.17,0,0,1,.8.55l.34-.56a3.38,3.38,0,0,0-1-.6,3.48,3.48,0,0,0-1.26-.22,3.58,3.58,0,0,0-1,.14,2.48,2.48,0,0,0-.8.39,1.73,1.73,0,0,0-.53.64,2,2,0,0,0-.18.88,1.64,1.64,0,0,0,.14.73,1.36,1.36,0,0,0,.44.5,2.6,2.6,0,0,0,.71.35q.42.14,1,.27t.93.24a2.87,2.87,0,0,1,.67.28,1.18,1.18,0,0,1,.41.39,1.06,1.06,0,0,1,.13.55,1,1,0,0,1-.48.92,2.43,2.43,0,0,1-1.32.31,3.93,3.93,0,0,1-.78-.08,3.74,3.74,0,0,1-.7-.21,3.28,3.28,0,0,1-.59-.32,2.77,2.77,0,0,1-.46-.38l-.35.57a4.23,4.23,0,0,0,2.85,1,4.36,4.36,0,0,0,1-.11,2.37,2.37,0,0,0,.81-.36,1.7,1.7,0,0,0,.53-.6,1.8,1.8,0,0,0,.19-.85,1.69,1.69,0,0,0-.17-.8A1.56,1.56,0,0,0,119.31,23.43Z"/><path d="M127,20.63a3.4,3.4,0,0,0-1-.83,2.93,2.93,0,0,0-1.36-.32,3,3,0,0,0-1.32.29,3.4,3.4,0,0,0-1.06.8,3.74,3.74,0,0,0-.71,1.15,3.69,3.69,0,0,0-.25,1.36,3.81,3.81,0,0,0,.24,1.33,3.68,3.68,0,0,0,.68,1.15,3.37,3.37,0,0,0,1.05.81,3.14,3.14,0,0,0,2.68,0,3.38,3.38,0,0,0,1.05-.79,3.75,3.75,0,0,0,.71-3.82A3.81,3.81,0,0,0,127,20.63Zm0,3.54a3.16,3.16,0,0,1-.53,1,2.67,2.67,0,0,1-.83.68,2.44,2.44,0,0,1-2.16,0,2.65,2.65,0,0,1-.83-.66,3,3,0,0,1-.54-.95,3.33,3.33,0,0,1-.19-1.12,3.26,3.26,0,0,1,.18-1.08,3.16,3.16,0,0,1,.53-1,2.59,2.59,0,0,1,.83-.67,2.32,2.32,0,0,1,1.09-.25,2.28,2.28,0,0,1,1.06.25,2.69,2.69,0,0,1,.83.65A3.05,3.05,0,0,1,127,22a3.21,3.21,0,0,1,.2,1.12A3.27,3.27,0,0,1,127,24.17Z"/><polygon points="129.71 26.64 130.41 26.64 130.41 23.34 133.75 23.34 133.75 22.77 130.41 22.77 130.41 20.15 134.37 20.15 134.37 19.54 129.71 19.54 129.71 26.64"/><polygon points="135.38 20.15 137.91 20.15 137.91 26.64 138.61 26.64 138.61 20.15 141.14 20.15 141.14 19.54 135.38 19.54 135.38 20.15"/><polygon points="148.83 25.82 147.47 22.61 148.71 19.59 148.04 19.59 147.03 22.11 146.03 19.59 145.37 19.59 146.61 22.61 145.26 25.82 142.68 19.54 141.93 19.54 144.93 26.64 145.54 26.64 147.04 23.13 148.53 26.64 149.15 26.64 152.16 19.54 151.4 19.54 148.83 25.82"/><path d="M155.25,19.54l-3,7.1H153l.91-2.22h3.19l.92,2.22h.74l-3-7.1Zm-1.16,4.33,1.45-3.51L157,23.87Z"/><path d="M164.48,23.63a1.93,1.93,0,0,0,.5-.48,2.31,2.31,0,0,0,.32-.64,2.42,2.42,0,0,0,.12-.75,2.22,2.22,0,0,0-.16-.81,2.34,2.34,0,0,0-.43-.71,2.23,2.23,0,0,0-.67-.51,1.85,1.85,0,0,0-.85-.19h-3v7.1h.7V24h2.1l1.67,2.62h.79l-1.74-2.74A1.73,1.73,0,0,0,164.48,23.63ZM161,23.39V20.15h2.26a1.25,1.25,0,0,1,.56.13,1.47,1.47,0,0,1,.46.35,1.73,1.73,0,0,1,.42,1.13,1.86,1.86,0,0,1-.1.61,1.79,1.79,0,0,1-.28.52,1.35,1.35,0,0,1-.44.37,1.19,1.19,0,0,1-.56.13Z"/><polygon points="168.04 26.02 168.04 23.3 171.51 23.3 171.51 22.71 168.04 22.71 168.04 20.15 172.02 20.15 172.02 19.54 167.34 19.54 167.34 26.64 172.11 26.64 172.11 26.02 168.04 26.02"/></svg>
