<svg xmlns="http://www.w3.org/2000/svg" viewBox="0 0 293.3 18.31"><defs><style>.a{fill:#fff;}</style></defs><title>sloan-foundation</title><path class="a" d="M16.57,17.42a5.75,5.75,0,0,1-1.08-2.22C12.23,6.29,11.09,2.82,10.4.69c0-.08-.11-.14-.5-.14s-.3,0-.33.08C7.91,5,5.25,10.88,3,15.59A5.54,5.54,0,0,1,2,17.2c-.36.36-.5.44-2,.53-.06,0-.06.19,0,.19,1.74-.06,3.82-.06,5.32,0,.06,0,.08-.22,0-.22-1.88-.11-2.16-.19-2.16-.83A3.83,3.83,0,0,1,3.5,15.7c.53-1.3.8-2,1.36-3.16a.28.28,0,0,1,.28-.14c.8,0,1.41,0,2.52,0,2.19,0,3.52,0,3.93.06.44,1.33,1.14,3.21,1.41,4.07.17.53.14.75,0,.89s-.58.22-1.77.3c-.06,0-.06.22,0,.22,1.63-.06,2.35,0,3.32,0s2.46.06,4,.08c.06,0,.06-.25,0-.25C17,17.67,16.8,17.64,16.57,17.42ZM5.11,12C6,9.91,7.44,6.73,8.57,4.07h0c.72,1.91,1.94,5.23,2.88,8C9.82,12.1,6.8,12.07,5.11,12Z"/><path class="a" d="M25.3,17.7c-1.69-.06-1.8-.08-1.86-.14s-.22-.36-.22-1.14c0-2.27,0-4.79,0-7.5,0-3,0-5.46.06-8.34,0-.19,0-.25-.19-.25-1.69.06-2.74.06-4.32,0-.11,0-.11.25,0,.25,1.61.06,1.72.06,1.8.14s.08.25.08.66c.06,3.07.06,5.87.06,9.67,0,1.74-.08,4.29-.08,5.65,0,.55,0,.69-.08.78s-.3.11-1.8.11c-.06,0-.08.25,0,.25,2.55,0,4.1,0,6.54.08C25.38,17.95,25.38,17.7,25.3,17.7Z"/><path class="a" d="M33.16,17.67c-2.13,0-2.44-.11-2.52-.19s-.08-.11-.08-1c0-2.41,0-6.7-.06-8.92.55,0,2.66,0,3.35,0,.08,0,.11-.3,0-.3-.83,0-2.16,0-3.35,0V4.85a8.39,8.39,0,0,1,.58-3.52,2,2,0,0,1,2-1.05c1.5,0,2.13.83,1.94,1s-.66.14-1.08.55a1.25,1.25,0,0,0-.36.94A1.25,1.25,0,0,0,34.91,4a1.35,1.35,0,0,0,1.36-1.5C36.26,1.14,34.85,0,33.05,0a4.6,4.6,0,0,0-3.57,1.5C28.18,2.8,27.93,4.68,28,7.2c-.39,0-1.66,0-2.19,0-.08,0-.08.3,0,.3H28c.08,1.38.08,7.45.08,8.83,0,.94,0,1.16-.11,1.27a8.61,8.61,0,0,1-2.1.11c-.14,0-.11.25,0,.25,1.94,0,6.56-.06,7.28-.06C33.24,17.89,33.24,17.67,33.16,17.67Z"/><path class="a" d="M42,6.81c-1.58,0-2.55,1.94-3.35,4h-.06c0-.86.06-2.55.06-3.27,0-.39,0-.44-.5-.44s-3.3.08-4.1.08c-.11,0-.11.22,0,.22,1.61,0,1.74.06,1.83.14s.25,1.08.25,3.46c0,1.11,0,3.57,0,4.57a8.54,8.54,0,0,1-.17,2c-.08.08-.28.08-2.13.11-.11,0-.08.25,0,.25H41c.11,0,.11-.25,0-.25a8.29,8.29,0,0,1-2.16-.17,6.67,6.67,0,0,1-.14-2V12.6a5.61,5.61,0,0,1,.69-2.77c.69-1.36,1.55-2.52,2.33-2.52.3,0,.44.14.44.25s-.8.58-.8,1.58a1.25,1.25,0,0,0,1.33,1.27,1.65,1.65,0,0,0,1.55-1.74A2,2,0,0,0,42,6.81Z"/><path class="a" d="M50.8,6.65a5.77,5.77,0,0,0-4.13,1.94,5.55,5.55,0,0,0-1.61,3.79,5.29,5.29,0,0,0,1.61,4,6.71,6.71,0,0,0,4.57,1.86A5,5,0,0,0,56,14.79c0-.11-.25-.22-.3-.14-.8,2.08-2.27,3.21-4.15,3.21a2.73,2.73,0,0,1-2.85-1.61,9.46,9.46,0,0,1-.66-4.1c1.41-.06,3.54-.08,8-.06a.22.22,0,0,0,.17-.25A5.18,5.18,0,0,0,54.7,8.28,5.52,5.52,0,0,0,50.8,6.65ZM48,11.8A9.42,9.42,0,0,1,48.67,8a2.21,2.21,0,0,1,2-1.14c1.77,0,2.55,1.41,2.74,4.87Z"/><path class="a" d="M70.3,17.7c-1.63,0-1.83,0-1.91-.11s-.17-.39-.17-1.52c0-2.63-.06-4.15-.06-7.12,0-2.35.08-5.84.14-8.39,0-.22-.06-.28-.19-.28-1.69.08-2.82.11-4.6.11-.06,0-.06.25,0,.25,1.77,0,2,.08,2,.17s.11.39.11,1c0,1.47,0,4.6,0,6.59h0a4.32,4.32,0,0,0-3-1.69,5.27,5.27,0,0,0-3.41,1.77,5.9,5.9,0,0,0-1.8,4.32,5.77,5.77,0,0,0,1.66,4.13,4.19,4.19,0,0,0,3,1.38,4,4,0,0,0,3.43-2.41h0c.08,1.88.14,2.08.25,2.08,1.14,0,2.63-.06,4.46-.06C70.43,17.92,70.43,17.7,70.3,17.7Zm-4.9-2a3.32,3.32,0,0,1-2.8,2,1.77,1.77,0,0,1-1.77-1.05c-.36-.72-.53-1.69-.53-4.13a9,9,0,0,1,.64-4.13,2.22,2.22,0,0,1,2-1.27,3.82,3.82,0,0,1,2.66,1.69c.11.25.14.58.14,2.85C65.7,14.84,65.64,15.23,65.39,15.7Z"/><path class="a" d="M85,17.61c-3,0-3.07-.06-3.16-.14s-.08-.36-.08-3.93V10.08s0-.06.06-.06.61.08,1.69.08A9.17,9.17,0,0,0,90,7.75a3.36,3.36,0,0,0,1.14-2.52,3.11,3.11,0,0,0-.94-2.35c-1.16-1.16-3.3-1.83-6.29-1.83-2.82,0-5.93,0-7.56,0-.08,0-.08.25,0,.25,1.94,0,2.3.06,2.38.14a35.12,35.12,0,0,1,.17,4.35c0,2.1,0,3.24,0,6.26,0,4.93-.06,5.4-.14,5.48a19.22,19.22,0,0,1-2.55.17c-.08,0-.08.25,0,.25,1.47-.06,2.71-.08,4.24-.08,1.77,0,3.66,0,4.51,0C85.08,17.86,85.05,17.61,85,17.61ZM81.73,3.93c0-2.33,0-2.44.11-2.49s.28-.14,1.86-.14c2.35,0,3.38.3,3.93,1.44a6,6,0,0,1,.47,2.55A6.07,6.07,0,0,1,87.69,8c-.58,1.16-2,1.77-4.29,1.77-1.47,0-1.55-.06-1.61-.11s-.06-.14-.06-1Z"/><path class="a" d="M91.4,14.68a1.65,1.65,0,0,0-1.69,1.66,1.75,1.75,0,0,0,1.58,1.8A1.8,1.8,0,0,0,93,16.26,1.62,1.62,0,0,0,91.4,14.68Z"/><path class="a" d="M107.57,7.81c-3-.8-4.13-1.44-4.13-3.21a3.25,3.25,0,0,1,.91-2.3,3.94,3.94,0,0,1,3.07-1.08,4.36,4.36,0,0,1,3.24,1.27,11.56,11.56,0,0,1,2.16,3.9c0,.11.22.06.22,0a32.54,32.54,0,0,1,.06-5.46c0-.08-.19-.14-.22,0-.33.69-.72,1.36-.91,1.36a8.33,8.33,0,0,0-4.54-1.3c-3.49,0-5.82,2.44-5.82,5.07a3.63,3.63,0,0,0,1.08,2.88c.83.83,2.22,1.44,5,2.16,3.27.83,4.46,1.74,4.46,3.52a3,3,0,0,1-.91,2.33,4.26,4.26,0,0,1-3,1,5.58,5.58,0,0,1-4-1.41,13.65,13.65,0,0,1-2.63-4.62.1.1,0,0,0-.19.06,42.53,42.53,0,0,1,.19,6,.1.1,0,0,0,.19.06c.44-.78.94-1.3,1.25-1.3.58,0,2,1.52,5.12,1.52,3.32,0,5.9-2.19,5.9-5.1a3.7,3.7,0,0,0-1.11-2.94C112.14,9.36,110.7,8.61,107.57,7.81Z"/><path class="a" d="M122.33,17.7c-1.69-.06-1.8-.08-1.86-.14s-.22-.36-.22-1.14c0-2.27,0-4.79,0-7.5,0-3,0-5.46.06-8.34,0-.19,0-.25-.19-.25-1.69.06-2.74.06-4.32,0-.11,0-.11.25,0,.25,1.61.06,1.72.06,1.8.14s.08.25.08.66c.06,3.07.06,5.87.06,9.67,0,1.74-.08,4.29-.08,5.65,0,.55,0,.69-.08.78s-.3.11-1.8.11c-.06,0-.08.25,0,.25,2.55,0,4.1,0,6.54.08C122.41,17.95,122.41,17.7,122.33,17.7Z"/><path class="a" d="M129.64,6.7a6.43,6.43,0,0,0-4.51,1.83,5.65,5.65,0,0,0-1.74,4A5.17,5.17,0,0,0,125,16.39a6.57,6.57,0,0,0,4.4,1.86,6.07,6.07,0,0,0,4.32-1.83,5.35,5.35,0,0,0,1.77-3.82,5.73,5.73,0,0,0-1.8-4.18A5.66,5.66,0,0,0,129.64,6.7Zm2.24,9.91A2.33,2.33,0,0,1,129.44,18c-1.88,0-3.13-1.38-3.13-5.46a8.8,8.8,0,0,1,.72-4A2.68,2.68,0,0,1,129.61,7,2.38,2.38,0,0,1,132,8.28a8.06,8.06,0,0,1,.53,3.27C132.55,14.4,132.32,15.73,131.88,16.62Z"/><path class="a" d="M148.8,15.48c-.28,1.41-.89,2.08-1.5,2.08s-.72-.28-.72-.89c0-1.86.08-4.46.08-5.84a3.67,3.67,0,0,0-1-2.82,4.56,4.56,0,0,0-3.38-1.22,4.71,4.71,0,0,0-3.38,1.3,1.92,1.92,0,0,0-.69,1.44,1.43,1.43,0,0,0,2.85.06c0-1.19-1.22-1.25-1.22-1.58s.89-1,2.16-1a2,2,0,0,1,1.55.53,2.2,2.2,0,0,1,.53,1.66c0,.91,0,2.1,0,2.52-3.3.25-5,.89-6,1.88a2.41,2.41,0,0,0-.8,1.74,3,3,0,0,0,3.24,2.74A4.52,4.52,0,0,0,144,16.34a2.35,2.35,0,0,0,2.49,1.83c1.5,0,2.3-1.08,2.55-2.63C149,15.43,148.83,15.43,148.8,15.48Zm-4.74-.78a3.32,3.32,0,0,1-.14,1.27,3.67,3.67,0,0,1-2.58,1.55c-1,0-1.39-.75-1.39-2.3,0-2.44.72-2.91,4.15-3.18C144.09,13.68,144.09,13.85,144.06,14.71Z"/><path class="a" d="M163.12,17.75a5.58,5.58,0,0,1-1.63-.14c-.14-.17-.19-.72-.19-3.32,0-1.19,0-2.66,0-3.6,0-2.66-1.25-4-3.32-4-1.88,0-3,1.41-4.13,3.54h0c0-.72.06-1.94.08-2.82,0-.19,0-.25-.19-.25-1.27,0-3,0-4.4,0-.11,0-.11.22,0,.22,1.5,0,1.69.06,1.77.14a4.26,4.26,0,0,1,.19,1.69v6.26a6.7,6.7,0,0,1-.14,2.1c-.08.08-.33.08-1.83.11-.08,0-.11.22,0,.22,2.1-.06,4.21,0,6.23,0,.14,0,.14-.22,0-.22-1.38-.06-1.55-.14-1.61-.19a5.18,5.18,0,0,1-.11-1.5c0-.89-.06-3-.06-4a3.31,3.31,0,0,1,.33-1.83c.64-1.27,1.77-2.66,3-2.66s1.58.91,1.58,2.46c0,.53,0,6.12,0,6.45a3,3,0,0,1-.08,1.11c-.08.08-.33.08-1.27.11-.08,0-.08.22,0,.22,2,0,3.19,0,5.73.06C163.2,18,163.2,17.75,163.12,17.75Z"/><path class="a" d="M182.44,1c-3.07.06-3.82,0-7.7,0L168.9,1c-.08,0-.08.22,0,.22,2.22.06,2.38.14,2.46.22s.06.19.08,1.5c0,1.72.06,4.43.06,6.12,0,2.6,0,4.87,0,7.2a2.72,2.72,0,0,1-.14,1.22c-.08.08-.42.11-2.66.19-.06,0-.06.22,0,.22,1.33,0,2.91,0,4.6,0h4.26c.06,0,.06-.22,0-.22-2.66-.06-2.88-.11-3-.19s-.17-.36-.17-1c0-.91-.08-6-.06-7.2.11,0,.91-.06,1.44-.06,1.74,0,2.24.14,2.46.39s.53,1.05.78,2.66c0,.06.19.06.19,0,0-.89-.06-2-.06-3s.08-2.44.14-3.54c0-.11-.25-.11-.25,0-.28,2.22-.47,2.6-.72,2.85a3.79,3.79,0,0,1-2.27.42,5.71,5.71,0,0,1-1.72-.08c0-1.72,0-5.23,0-5.82a6.77,6.77,0,0,1,.08-1.58,13,13,0,0,1,2.77-.08c2.38,0,2.69.17,3.27.75s1,1.55,1.83,4.49c0,.08.19.08.19,0,.11-2,.11-3.63.14-5.32C182.64,1.08,182.58,1,182.44,1Z"/><path class="a" d="M189.17,6.7a6.43,6.43,0,0,0-4.51,1.83,5.65,5.65,0,0,0-1.74,4,5.17,5.17,0,0,0,1.63,3.85,6.57,6.57,0,0,0,4.4,1.86,6.07,6.07,0,0,0,4.32-1.83A5.35,5.35,0,0,0,195,12.6a5.73,5.73,0,0,0-1.8-4.18A5.66,5.66,0,0,0,189.17,6.7Zm2.24,9.91A2.33,2.33,0,0,1,189,18c-1.88,0-3.13-1.38-3.13-5.46a8.8,8.8,0,0,1,.72-4A2.68,2.68,0,0,1,189.15,7a2.38,2.38,0,0,1,2.41,1.33,8.06,8.06,0,0,1,.53,3.27C192.08,14.4,191.86,15.73,191.42,16.62Z"/><path class="a" d="M209.47,17.7c-1.72-.06-1.86-.06-2-.17a3.49,3.49,0,0,1-.08-1.25c0-2.74.11-8.86.11-9s-.14-.17-.61-.17c-.11,0-3.49,0-4.29.06-.14,0-.11.25,0,.25,1.8,0,1.94.06,2.08.17s.22.58.22,1.66c0,.89-.06,2.41-.06,4a3.7,3.7,0,0,1-.47,1.86c-.66,1.33-1.55,2.24-2.49,2.24s-1.69-.78-1.69-2V7.48c0-.25-.06-.33-.28-.33-.64,0-2.08.08-4.24.06-.14,0-.14.25,0,.25,1.41.06,1.72.08,1.83.19s.17.36.17,1.16c0,1-.06,4.76-.06,6.09a3.1,3.1,0,0,0,.78,2.46,3.41,3.41,0,0,0,2.46.91c1.66,0,3-1.38,3.88-3.18h0c-.06,2.49.17,2.91.36,2.91,1.08,0,3.3-.06,4.32-.06C209.58,17.95,209.58,17.7,209.47,17.7Z"/><path class="a" d="M223.7,17.75a5.58,5.58,0,0,1-1.63-.14c-.14-.17-.19-.72-.19-3.32,0-1.19,0-2.66,0-3.6,0-2.66-1.25-4-3.32-4-1.88,0-3,1.41-4.13,3.54h0c0-.72.06-1.94.08-2.82,0-.19,0-.25-.19-.25-1.27,0-3,0-4.4,0-.11,0-.11.22,0,.22,1.5,0,1.69.06,1.77.14a4.26,4.26,0,0,1,.19,1.69v6.26a6.7,6.7,0,0,1-.14,2.1c-.08.08-.33.08-1.83.11-.08,0-.11.22,0,.22,2.1-.06,4.21,0,6.23,0,.14,0,.14-.22,0-.22-1.38-.06-1.55-.14-1.61-.19a5.18,5.18,0,0,1-.11-1.5c0-.89-.06-3-.06-4a3.31,3.31,0,0,1,.33-1.83c.64-1.27,1.77-2.66,3-2.66s1.58.91,1.58,2.46c0,.53,0,6.12,0,6.45a3,3,0,0,1-.08,1.11c-.08.08-.33.08-1.27.11-.08,0-.08.22,0,.22,2,0,3.19,0,5.73.06C223.79,18,223.79,17.75,223.7,17.75Z"/><path class="a" d="M237.22,17.7c-1.63,0-1.83,0-1.91-.11s-.17-.39-.17-1.52c0-2.63-.06-4.15-.06-7.12,0-2.35.08-5.84.14-8.39,0-.22-.06-.28-.19-.28-1.69.08-2.82.11-4.6.11-.06,0-.06.25,0,.25,1.77,0,2,.08,2,.17s.11.39.11,1c0,1.47,0,4.6,0,6.59h0a4.32,4.32,0,0,0-3-1.69,5.27,5.27,0,0,0-3.41,1.77,5.9,5.9,0,0,0-1.8,4.32A5.77,5.77,0,0,0,226,16.92a4.19,4.19,0,0,0,3,1.38,4,4,0,0,0,3.43-2.41h0c.08,1.88.14,2.08.25,2.08,1.14,0,2.63-.06,4.46-.06C237.36,17.92,237.36,17.7,237.22,17.7Zm-4.9-2a3.32,3.32,0,0,1-2.8,2,1.77,1.77,0,0,1-1.77-1.05c-.36-.72-.53-1.69-.53-4.13a9,9,0,0,1,.64-4.13,2.22,2.22,0,0,1,2-1.27,3.81,3.81,0,0,1,2.66,1.69c.11.25.14.58.14,2.85C232.62,14.84,232.57,15.23,232.32,15.7Z"/><path class="a" d="M249.93,15.48c-.28,1.41-.89,2.08-1.5,2.08s-.72-.28-.72-.89c0-1.86.08-4.46.08-5.84a3.67,3.67,0,0,0-1-2.82,4.56,4.56,0,0,0-3.38-1.22,4.71,4.71,0,0,0-3.38,1.3,1.92,1.92,0,0,0-.69,1.44,1.43,1.43,0,0,0,2.85.06C242.23,8.39,241,8.34,241,8s.89-1,2.16-1a2,2,0,0,1,1.55.53,2.2,2.2,0,0,1,.53,1.66c0,.91,0,2.1,0,2.52-3.3.25-5,.89-6,1.88a2.41,2.41,0,0,0-.8,1.74,3,3,0,0,0,3.24,2.74,4.52,4.52,0,0,0,3.38-1.77,2.35,2.35,0,0,0,2.49,1.83c1.5,0,2.3-1.08,2.55-2.63C250.15,15.43,250,15.43,249.93,15.48Zm-4.74-.78a3.32,3.32,0,0,1-.14,1.27,3.67,3.67,0,0,1-2.58,1.55c-1,0-1.39-.75-1.39-2.3,0-2.44.72-2.91,4.15-3.18C245.22,13.68,245.22,13.85,245.19,14.71Z"/><path class="a" d="M258.07,14.73c-.47,1.86-1.3,2.82-2.19,2.82a1.47,1.47,0,0,1-1.36-.72c-.17-.3-.22-.53-.22-2.24,0-2.41.06-5.84.14-7.06.22,0,1.14-.06,3.32-.06.11,0,.17-.25.06-.25l-3.38-.06c0-.94,0-2.88.11-4,0-.14-.17-.14-.19,0a8.89,8.89,0,0,1-1.66,3.41c-.42.42-1,.58-2.74.66-.11,0-.14.25,0,.25s1.8,0,2,0c-.08,2.13-.11,5.54-.11,7.23a3,3,0,0,0,.75,2.41,3.43,3.43,0,0,0,2.55.91c1.63,0,2.71-1.14,3.16-3.32C258.32,14.62,258.1,14.62,258.07,14.73Z"/><path class="a" d="M265.52,17.67c-1.58,0-1.94-.06-2-.14s-.14-.64-.14-3.3c0-1.94,0-4.9,0-6.92,0-.19-.06-.25-.22-.25-.55,0-2.35.06-4.57.08-.08,0-.08.25,0,.25,1.8,0,2,0,2.1.11a1.27,1.27,0,0,1,.17.8c.06,1.44.11,4.54.11,5.59,0,.78,0,1.38,0,2.38a3.23,3.23,0,0,1-.14,1.25c-.11.11-.53.11-2.1.14-.11,0-.08.22,0,.22l6.87,0C265.6,17.92,265.6,17.67,265.52,17.67Z"/><path class="a" d="M262,3.68A1.76,1.76,0,0,0,263.66,2,1.38,1.38,0,0,0,262.28.66a1.62,1.62,0,0,0-1.25.5,1.53,1.53,0,0,0-.42,1.08A1.46,1.46,0,0,0,262,3.68Z"/><path class="a" d="M272.5,6.7A6.43,6.43,0,0,0,268,8.53a5.65,5.65,0,0,0-1.74,4,5.17,5.17,0,0,0,1.63,3.85,6.57,6.57,0,0,0,4.4,1.86,6.07,6.07,0,0,0,4.32-1.83,5.35,5.35,0,0,0,1.77-3.82,5.73,5.73,0,0,0-1.8-4.18A5.66,5.66,0,0,0,272.5,6.7Zm2.24,9.91A2.33,2.33,0,0,1,272.3,18c-1.88,0-3.13-1.38-3.13-5.46a8.8,8.8,0,0,1,.72-4A2.68,2.68,0,0,1,272.47,7a2.38,2.38,0,0,1,2.41,1.33,8.06,8.06,0,0,1,.53,3.27C275.4,14.4,275.18,15.73,274.74,16.62Z"/><path class="a" d="M293.24,17.75a5.58,5.58,0,0,1-1.63-.14c-.14-.17-.19-.72-.19-3.32,0-1.19,0-2.66,0-3.6,0-2.66-1.25-4-3.32-4-1.88,0-3,1.41-4.13,3.54h0c0-.72.06-1.94.08-2.82,0-.19,0-.25-.19-.25-1.27,0-3,0-4.4,0-.11,0-.11.22,0,.22,1.5,0,1.69.06,1.77.14a4.26,4.26,0,0,1,.19,1.69v6.26a6.7,6.7,0,0,1-.14,2.1c-.08.08-.33.08-1.83.11-.08,0-.11.22,0,.22,2.1-.06,4.21,0,6.23,0,.14,0,.14-.22,0-.22-1.38-.06-1.55-.14-1.61-.19A5.19,5.19,0,0,1,284,16c0-.89-.06-3-.06-4a3.31,3.31,0,0,1,.33-1.83c.64-1.27,1.77-2.66,3-2.66s1.58.91,1.58,2.46c0,.53,0,6.12,0,6.45a3,3,0,0,1-.08,1.11c-.08.08-.33.08-1.27.11-.08,0-.08.22,0,.22,2,0,3.19,0,5.73.06C293.32,18,293.32,17.75,293.24,17.75Z"/></svg>