<svg xmlns="http://www.w3.org/2000/svg" viewBox="0 0 45.24 51.74"><title>docs</title><path class="a" d="M43.13,18.08A46.14,46.14,0,0,0,38.71,13a45.56,45.56,0,0,0-5.05-4.42C31.07,6.72,29.83,6.5,29.12,6.5H10.44A3.94,3.94,0,0,0,6.5,10.44V47.81a3.94,3.94,0,0,0,3.94,3.94H41.31a3.94,3.94,0,0,0,3.94-3.94V22.62c0-.71-.22-2-2.12-4.55ZM40.29,19.3l.16.2h-8.2V11.3l.2.16m9.8,36.35a1,1,0,0,1-.94.94H10.44a1,1,0,0,1-.94-.94V10.44a1,1,0,0,1,.94-.94H29.25V21a1.5,1.5,0,0,0,1.5,1.5h11.5Z"/><path class="a" d="M22.62,0H3.94A3.94,3.94,0,0,0,0,3.94V41.31a4,4,0,0,0,3,3.82V3.94A1,1,0,0,1,3.94,3H28.3c-.41-.33-.8-.63-1.14-.88C24.58.22,23.33,0,22.62,0Z"/></svg>
