<svg version="1.1" xmlns="http://www.w3.org/2000/svg" viewBox="0 0 768 768">
<title>external</title>
<path fill="#000" d="M576 384c-19.2 0-32 12.8-32 32v192c0 19.2-12.8 32-32 32h-352c-19.2 0-32-12.8-32-32v-352c0-19.2 12.8-32 32-32h192c19.2 0 32-12.8 32-32s-12.8-32-32-32h-192c-54.4 0-96 41.6-96 96v352c0 54.4 41.6 96 96 96h352c54.4 0 96-41.6 96-96v-192c0-19.2-12.8-32-32-32z"></path>
<path fill="#000" d="M700.8 83.2c-3.2-6.4-9.6-12.8-16-16-3.2-3.2-9.6-3.2-12.8-3.2h-192c-19.2 0-32 12.8-32 32s12.8 32 32 32h115.2l-297.6 297.6c-12.8 12.8-12.8 32 0 44.8 6.4 6.4 12.8 9.6 22.4 9.6s16-3.2 22.4-9.6l297.6-297.6v115.2c0 19.2 12.8 32 32 32s32-12.8 32-32v-192c0-3.2 0-9.6-3.2-12.8z"></path>
</svg>
