<svg xmlns="http://www.w3.org/2000/svg" viewBox="0 0 49.11 52.67"><title>github</title><path class="a" d="M49.11,19.49a14.71,14.71,0,0,0-3.18-9.07l-.07-.09,0-.11a14.63,14.63,0,0,0-.68-8.84A1.84,1.84,0,0,0,44,.13C42.7-.19,39.67-.21,34,3.34L34,3.39l-.1,0a33.52,33.52,0,0,0-15.1,0l-.1,0-.09-.06C12.94-.21,9.92-.19,8.62.14A1.82,1.82,0,0,0,7.41,1.36a12,12,0,0,0-.69,8.84l0,.12-.08.1A15.32,15.32,0,0,0,3.5,19.49C3.5,29.37,7.81,35.1,16.68,37l.26.06-.07.26a15.46,15.46,0,0,0-.68,4.31v.44l-.2,0c-4.85.93-6.61-.89-8.55-3.56-1-1.42-2.4-3.36-4.92-3.82A2.32,2.32,0,0,0,1,35,1.74,1.74,0,0,0,0,36.14,2.33,2.33,0,0,0,.3,37.7a1.74,1.74,0,0,0,1.16.91A7.16,7.16,0,0,1,4.14,41C6,43.55,8.92,47.38,15.9,46.45l.28,0v4.21a1.93,1.93,0,0,0,2.06,2.05,1.93,1.93,0,0,0,2.06-2.05v-9A5.8,5.8,0,0,1,22,37.3a1.6,1.6,0,0,0,.43-2l0-.08a2,2,0,0,0-1.66-1.43C14.39,32.93,7.61,31,7.61,19.72a10.6,10.6,0,0,1,2.83-7.31,2,2,0,0,0,.41-2.06,10.13,10.13,0,0,1-.24-5.9l.06-.23.23,0a15.52,15.52,0,0,1,6.1,3,2,2,0,0,0,1.84.19A27.9,27.9,0,0,1,34,7.49a2.23,2.23,0,0,0,1.67-.21,19.22,19.22,0,0,1,6-3l.24-.06.06.24a9.28,9.28,0,0,1-.24,5.68c-.25,1-.13,1.68.37,2A10.22,10.22,0,0,1,45,19.49c0,11.21-6.64,13.41-13.14,14.08A1.71,1.71,0,0,0,30.24,35a2.26,2.26,0,0,0,.4,2.07,6.36,6.36,0,0,1,1.69,4.56v9a2.06,2.06,0,0,0,4.11,0V41.86a6.93,6.93,0,0,0-.67-4.27l-.15-.29.32-.07C44.68,35.41,49.11,29.44,49.11,19.49Z"/></svg>
