<svg xmlns="http://www.w3.org/2000/svg" viewBox="0 0 60.92 52.19"><title>heart</title><path class="a" d="M44.73,0C38.86,0,33.33,4.6,30.55,7.34l-.09.09-.09-.09C27.6,4.6,22.07,0,16.19,0,6.05,0,0,5.93,0,15.85,0,24.08,7.66,31,7.74,31.05L29,51.61a2,2,0,0,0,2.83,0L53.21,31.06c1.81-1.73,7.71-7.95,7.71-15.21C60.92,5.93,54.87,0,44.73,0Zm5.64,28.07h0l0,0L30.46,47.26l-.09-.08L10.54,28.06c-.67-.63-6.42-6.23-6.42-12.21,0-9.7,6.57-11.73,12.07-11.73,5.15,0,10.91,5.53,12.69,7.66a2.13,2.13,0,0,0,3.15,0c1.79-2.13,7.55-7.66,12.69-7.66,5.51,0,12.07,2,12.07,11.73C56.8,21.68,51.45,27.05,50.37,28.07Z"/></svg>
