<svg xmlns="http://www.w3.org/2000/svg" viewBox="0 0 52.15 56.65"><title>package</title><path class="a" d="M52.09,12.36s0-.07,0-.11a1.49,1.49,0,0,0-.12-.26l-.09-.12a1.48,1.48,0,0,0-.16-.19l-.12-.1-.09-.08-.12-.06-.08-.05L26.73.14a1.5,1.5,0,0,0-1.25,0L.88,11.39l-.08.05-.12.06-.09.08-.12.1a1.49,1.49,0,0,0-.16.19L.21,12a1.49,1.49,0,0,0-.12.26s0,.07,0,.11a1.49,1.49,0,0,0-.06.39V44.1a1.5,1.5,0,0,0,.89,1.37l24.6,11,.13,0,.11,0a1.35,1.35,0,0,0,.75,0l.11,0,.14,0,24.55-11.4a1.5,1.5,0,0,0,.87-1.36v-31A1.49,1.49,0,0,0,52.09,12.36Zm-26-9.21L47,12.71l-20.86,9-20.9-9ZM3,15l12.48,5.38,9.12,3.93V52.83L3,43.13ZM27.6,52.8V24.34l14.23-6.14L49.15,15V42.79Z"/></svg>
