<svg xmlns="http://www.w3.org/2000/svg" viewBox="0 0 55.78 55.78"><title>software</title><path class="a" d="M27.89,0A27.89,27.89,0,1,0,55.78,27.89,27.92,27.92,0,0,0,27.89,0Zm9.54,27.89a9.49,9.49,0,0,1-11.16,9.4,9.49,9.49,0,0,1-4.18-1.83,9.61,9.61,0,0,1-1.77-1.77A9.53,9.53,0,0,1,33.69,20.33a9.61,9.61,0,0,1,1.77,1.77A9.48,9.48,0,0,1,37.43,27.89Zm-1.61-9.7a12.56,12.56,0,0,0-3-1.84L36.33,5a24.42,24.42,0,0,1,7.89,4.79ZM27.89,3.5a24.35,24.35,0,0,1,6.05.76L30.41,15.6A12.54,12.54,0,0,0,18.19,35.83L9.79,44.22A24.38,24.38,0,0,1,27.89,3.5ZM20,37.59a12.56,12.56,0,0,0,3,1.84L19.45,50.77A24.42,24.42,0,0,1,11.56,46Zm7.94,14.69a24.35,24.35,0,0,1-6.05-.76l3.53-11.34A12.54,12.54,0,0,0,37.59,20L46,11.56a24.38,24.38,0,0,1-18.1,40.72Z"/><path class="a" d="M31.95,22.06a7.12,7.12,0,1,0,1.77,1.77A7.12,7.12,0,0,0,31.95,22.06ZM28.24,31a3,3,0,0,1-.35,0,3.1,3.1,0,0,1-.35-6.18,3,3,0,0,1,.35,0A3.1,3.1,0,0,1,28.24,31Z"/></svg>
