<svg xmlns="http://www.w3.org/2000/svg" viewBox="0 0 54.52 54.78"><title>tools</title><path class="a" d="M40.18,21.25a10.43,10.43,0,0,0,3.26.49,11.15,11.15,0,0,0,7.95-3.26A10.56,10.56,0,0,0,53.6,6.67,1.21,1.21,0,0,0,52.7,6a1.26,1.26,0,0,0-1.08.36l-5.88,5.92a.57.57,0,0,1-.81,0L42.41,9.72a.56.56,0,0,1,0-.81l6-6a1.22,1.22,0,0,0,.36-1.07A1.18,1.18,0,0,0,48,1,10.56,10.56,0,0,0,36.17,3.09a11.41,11.41,0,0,0-2.68,11.33L14.34,33.53A10.43,10.43,0,0,0,11.08,33,11.15,11.15,0,0,0,3.13,36.3,10.56,10.56,0,0,0,.92,48.11a1.21,1.21,0,0,0,2,.35l5.88-5.92a.79.79,0,0,1,.45-.22.42.42,0,0,1,.36.09l2.52,2.65a.5.5,0,0,1,.15.37.64.64,0,0,1-.2.45L6.2,51.74a1.23,1.23,0,0,0-.36,1.08,1.26,1.26,0,0,0,.67.91,10.32,10.32,0,0,0,11.89-2,11.41,11.41,0,0,0,2.68-11.33ZM18.58,40.48h0a8.92,8.92,0,0,1-1.89,9.46,7.91,7.91,0,0,1-7.41,2.17l4.5-4.54a3,3,0,0,0,0-4.22L11.3,40.7A3.1,3.1,0,0,0,7,40.79L2.56,45.3A8.28,8.28,0,0,1,4.84,38a8.86,8.86,0,0,1,6.24-2.54,8,8,0,0,1,3.1.61,1.32,1.32,0,0,0,1.32-.25L35.73,15.59A1.21,1.21,0,0,0,36,14.25,8.93,8.93,0,0,1,37.87,4.8a7.91,7.91,0,0,1,7.41-2.17L40.75,7.16a2.89,2.89,0,0,0-.9,2.07,3,3,0,0,0,.9,2.16l2.52,2.52a3.06,3.06,0,0,0,4.27,0L52,9.43a8.28,8.28,0,0,1-2.27,7.3,8.87,8.87,0,0,1-6.24,2.54,8,8,0,0,1-3.1-.61,1.3,1.3,0,0,0-1.32.25L18.83,39.15A1.21,1.21,0,0,0,18.58,40.48Z"/><path class="a" d="M5.4,10.51a1.21,1.21,0,0,0,1.71,0l.83-.83L20.55,22.3a1.19,1.19,0,0,0,1.71,0,1.23,1.23,0,0,0,.36-.91,1.11,1.11,0,0,0-.36-.8L9.64,8l.83-.83a1.24,1.24,0,0,0,0-1.75l-5-5A1.22,1.22,0,0,0,4.57,0h0a1.1,1.1,0,0,0-.8.36L.36,3.76A1.23,1.23,0,0,0,0,4.67a1.11,1.11,0,0,0,.36.8ZM2.88,4.62,4.53,3,7.86,6.3,6.21,7.95Z"/><path class="a" d="M36.57,29.87a1.18,1.18,0,0,0-.91-.36,1.1,1.1,0,0,0-.8.36,1.23,1.23,0,0,0-.36.91,1.1,1.1,0,0,0,.36.8L51.7,48.41a.56.56,0,0,1,0,.82l-2.43,2.55a.61.61,0,0,1-.85,0L31.54,35a1.17,1.17,0,0,0-.91-.36,1.1,1.1,0,0,0-.8.36,1.23,1.23,0,0,0-.36.91,1.1,1.1,0,0,0,.36.8L46.75,53.49a3,3,0,0,0,4.31,0L53.45,51a3,3,0,0,0,0-4.27Z"/></svg>
