<?xml version="1.0" standalone="yes"?>

<svg version="1.1" viewBox="0.0 0.0 645.8556430446195 792.6430446194225" fill="none" stroke="none" stroke-linecap="square" stroke-miterlimit="10" xmlns="http://www.w3.org/2000/svg" xmlns:xlink="http://www.w3.org/1999/xlink"><clipPath id="p.0"><path d="m0 0l645.85565 0l0 792.64307l-645.85565 0l0 -792.64307z" clip-rule="nonzero"></path></clipPath><g clip-path="url(#p.0)"><path fill="#000000" fill-opacity="0.0" d="m0 0l645.85565 0l0 792.64307l-645.85565 0z" fill-rule="nonzero"></path><path fill="#f2e394" d="m926.6532 576.7997l0 0c0 -10.837158 8.785278 -19.622437 19.622437 -19.622437l132.50317 0c5.2042236 0 10.19519 2.0673828 13.875122 5.7472534c3.6799316 3.6799316 5.7473145 8.6710205 5.7473145 13.875183l0 78.48743c0 10.837158 -8.785278 19.622437 -19.622437 19.622437l-132.50317 0c-10.837158 0 -19.622437 -8.785278 -19.622437 -19.622437z" fill-rule="nonzero"></path><path stroke="#000000" stroke-width="2.0" stroke-linejoin="round" stroke-linecap="butt" d="m926.6532 576.7997l0 0c0 -10.837158 8.785278 -19.622437 19.622437 -19.622437l132.50317 0c5.2042236 0 10.19519 2.0673828 13.875122 5.7472534c3.6799316 3.6799316 5.7473145 8.6710205 5.7473145 13.875183l0 78.48743c0 10.837158 -8.785278 19.622437 -19.622437 19.622437l-132.50317 0c-10.837158 0 -19.622437 -8.785278 -19.622437 -19.622437z" fill-rule="nonzero"></path><path fill="#f2ae72" d="m749.281 694.52936l0 0c0 -10.837158 8.785278 -19.622437 19.622437 -19.622437l132.50317 0c5.2041626 0 10.19519 2.0673218 13.875122 5.7472534c3.6799316 3.6799316 5.7473145 8.670959 5.7473145 13.875183l0 78.487366c0 10.837219 -8.785278 19.622437 -19.622437 19.622437l-132.50317 0c-10.837158 0 -19.622437 -8.785217 -19.622437 -19.622437z" fill-rule="nonzero"></path><path stroke="#000000" stroke-width="2.0" stroke-linejoin="round" stroke-linecap="butt" d="m749.281 694.52936l0 0c0 -10.837158 8.785278 -19.622437 19.622437 -19.622437l132.50317 0c5.2041626 0 10.19519 2.0673218 13.875122 5.7472534c3.6799316 3.6799316 5.7473145 8.670959 5.7473145 13.875183l0 78.487366c0 10.837219 -8.785278 19.622437 -19.622437 19.622437l-132.50317 0c-10.837158 0 -19.622437 -8.785217 -19.622437 -19.622437z" fill-rule="nonzero"></path><path fill="#d96459" d="m926.65485 694.532l0 0c0 -10.837158 8.785278 -19.622437 19.622437 -19.622437l132.50311 0c5.2042236 0 10.1953125 2.0673218 13.875244 5.7472534c3.6799316 3.6799316 5.7471924 8.670959 5.7471924 13.875183l0 78.487366c0 10.837219 -8.785156 19.622437 -19.622437 19.622437l-132.50311 0c-10.837158 0 -19.622437 -8.785217 -19.622437 -19.622437z" fill-rule="nonzero"></path><path stroke="#000000" stroke-width="2.0" stroke-linejoin="round" stroke-linecap="butt" d="m926.65485 694.532l0 0c0 -10.837158 8.785278 -19.622437 19.622437 -19.622437l132.50311 0c5.2042236 0 10.1953125 2.0673218 13.875244 5.7472534c3.6799316 3.6799316 5.7471924 8.670959 5.7471924 13.875183l0 78.487366c0 10.837219 -8.785156 19.622437 -19.622437 19.622437l-132.50311 0c-10.837158 0 -19.622437 -8.785217 -19.622437 -19.622437z" fill-rule="nonzero"></path><path fill="#3d85c6" d="m732.7665 319.8827l0 0c0 -10.837158 8.785278 -19.622437 19.622437 -19.622437l132.50317 0c5.2041626 0 10.195251 2.0673523 13.875122 5.747284c3.6799316 3.6799011 5.7473145 8.670959 5.7473145 13.875153l0 78.4874c0 10.837189 -8.785278 19.622437 -19.622437 19.622437l-132.50317 0c-10.837158 0 -19.622437 -8.785248 -19.622437 -19.622437z" fill-rule="nonzero"></path><path stroke="#000000" stroke-width="2.0" stroke-linejoin="round" stroke-linecap="butt" d="m732.7665 319.8827l0 0c0 -10.837158 8.785278 -19.622437 19.622437 -19.622437l132.50317 0c5.2041626 0 10.195251 2.0673523 13.875122 5.747284c3.6799316 3.6799011 5.7473145 8.670959 5.7473145 13.875153l0 78.4874c0 10.837189 -8.785278 19.622437 -19.622437 19.622437l-132.50317 0c-10.837158 0 -19.622437 -8.785248 -19.622437 -19.622437z" fill-rule="nonzero"></path><path fill="#79bd9a" d="m984.4698 210.93083l0 0c0 -10.837173 8.785278 -19.622437 19.622498 -19.622437l132.50317 0c5.2041016 0 10.19519 2.0673676 13.875122 5.747284c3.6799316 3.6799164 5.7473145 8.670959 5.7473145 13.875153l0 78.48741c0 10.837189 -8.785278 19.622437 -19.622437 19.622437l-132.50317 0c-10.837219 0 -19.622498 -8.785248 -19.622498 -19.622437z" fill-rule="nonzero"></path><path stroke="#000000" stroke-width="2.0" stroke-linejoin="round" stroke-linecap="butt" d="m984.4698 210.93083l0 0c0 -10.837173 8.785278 -19.622437 19.622498 -19.622437l132.50317 0c5.2041016 0 10.19519 2.0673676 13.875122 5.747284c3.6799316 3.6799164 5.7473145 8.670959 5.7473145 13.875153l0 78.48741c0 10.837189 -8.785278 19.622437 -19.622437 19.622437l-132.50317 0c-10.837219 0 -19.622498 -8.785248 -19.622498 -19.622437z" fill-rule="nonzero"></path><path fill="#b6d7a8" d="m347.19553 147.12599l234.20474 0l0 90.078735l-234.20474 0z" fill-rule="nonzero"></path><path stroke="#000000" stroke-width="2.0" stroke-linejoin="round" stroke-linecap="butt" d="m347.19553 147.12599l234.20474 0l0 90.078735l-234.20474 0z" fill-rule="nonzero"></path><path fill="#000099" d="m430.26874 189.22598l0 2.078125l-1.78125 0l0 3.984375q0 1.203125 0.046875 1.40625q0.0625 0.1875 0.234375 0.328125q0.1875 0.125 0.453125 0.125q0.359375 0 1.046875 -0.25l0.21875 2.015625q-0.90625 0.390625 -2.0625 0.390625q-0.703125 0 -1.265625 -0.234375q-0.5625 -0.234375 -0.828125 -0.609375q-0.265625 -0.375 -0.375 -1.015625q-0.078125 -0.453125 -0.078125 -1.84375l0 -4.296875l-1.203125 0l0 -2.078125l1.203125 0l0 -1.953125l2.609375 -1.515625l0 3.46875l1.78125 0zm3.650177 3.015625l-2.359375 -0.4375q0.390625 -1.421875 1.359375 -2.109375q0.984375 -0.6875 2.90625 -0.6875q1.734375 0 2.59375 0.421875q0.859375 0.40625 1.203125 1.046875q0.34375 0.625 0.34375 2.328125l-0.03125 3.046875q0 1.296875 0.125 1.921875q0.125 0.609375 0.46875 1.3125l-2.578125 0q-0.09375 -0.265625 -0.25 -0.765625q-0.0625 -0.234375 -0.09375 -0.3125q-0.65625 0.65625 -1.421875 0.984375q-0.765625 0.3125 -1.625 0.3125q-1.515625 0 -2.40625 -0.8125q-0.875 -0.828125 -0.875 -2.09375q0 -0.84375 0.390625 -1.484375q0.40625 -0.65625 1.125 -1.0q0.71875 -0.359375 2.078125 -0.625q1.828125 -0.328125 2.53125 -0.625l0 -0.265625q0 -0.75 -0.375 -1.0625q-0.359375 -0.328125 -1.390625 -0.328125q-0.703125 0 -1.09375 0.28125q-0.390625 0.265625 -0.625 0.953125zm3.484375 2.109375q-0.5 0.171875 -1.59375 0.40625q-1.078125 0.234375 -1.40625 0.453125q-0.515625 0.359375 -0.515625 0.921875q0 0.546875 0.40625 0.953125q0.40625 0.390625 1.046875 0.390625q0.703125 0 1.34375 -0.46875q0.46875 -0.359375 0.625 -0.859375q0.09375 -0.34375 0.09375 -1.28125l0 -0.515625zm4.8288574 4.734375l0 -13.59375l2.609375 0l0 4.890625q1.203125 -1.375 2.859375 -1.375q1.796875 0 2.96875 1.3125q1.1875 1.296875 1.1875 3.734375q0 2.53125 -1.203125 3.890625q-1.203125 1.359375 -2.921875 1.359375q-0.84375 0 -1.671875 -0.421875q-0.8125 -0.421875 -1.40625 -1.25l0 1.453125l-2.421875 0zm2.59375 -5.140625q0 1.53125 0.484375 2.265625q0.671875 1.03125 1.796875 1.03125q0.859375 0 1.46875 -0.734375q0.609375 -0.734375 0.609375 -2.328125q0 -1.6875 -0.609375 -2.421875q-0.609375 -0.75 -1.578125 -0.75q-0.9375 0 -1.5625 0.734375q-0.609375 0.71875 -0.609375 2.203125zm15.395966 5.140625l0 -1.46875q-0.53125 0.78125 -1.40625 1.234375q-0.875 0.453125 -1.859375 0.453125q-0.984375 0 -1.78125 -0.4375q-0.78125 -0.4375 -1.140625 -1.21875q-0.34375 -0.796875 -0.34375 -2.1875l0 -6.234375l2.609375 0l0 4.53125q0 2.078125 0.140625 2.546875q0.140625 0.46875 0.515625 0.75q0.390625 0.265625 0.96875 0.265625q0.671875 0 1.203125 -0.359375q0.53125 -0.375 0.71875 -0.90625q0.1875 -0.546875 0.1875 -2.671875l0 -4.15625l2.609375 0l0 9.859375l-2.421875 0zm4.911621 0l0 -13.59375l2.609375 0l0 13.59375l-2.609375 0zm7.1364136 -6.84375l-2.359375 -0.4375q0.390625 -1.421875 1.359375 -2.109375q0.984375 -0.6875 2.90625 -0.6875q1.734375 0 2.59375 0.421875q0.859375 0.40625 1.203125 1.046875q0.34375 0.625 0.34375 2.328125l-0.03125 3.046875q0 1.296875 0.125 1.921875q0.125 0.609375 0.46875 1.3125l-2.578125 0q-0.09375 -0.265625 -0.25 -0.765625q-0.0625 -0.234375 -0.09375 -0.3125q-0.65625 0.65625 -1.421875 0.984375q-0.765625 0.3125 -1.625 0.3125q-1.515625 0 -2.40625 -0.8125q-0.875 -0.828125 -0.875 -2.09375q0 -0.84375 0.390625 -1.484375q0.40625 -0.65625 1.125 -1.0q0.71875 -0.359375 2.078125 -0.625q1.828125 -0.328125 2.53125 -0.625l0 -0.265625q0 -0.75 -0.375 -1.0625q-0.359375 -0.328125 -1.390625 -0.328125q-0.703125 0 -1.09375 0.28125q-0.390625 0.265625 -0.625 0.953125zm3.484375 2.109375q-0.5 0.171875 -1.59375 0.40625q-1.078125 0.234375 -1.40625 0.453125q-0.515625 0.359375 -0.515625 0.921875q0 0.546875 0.40625 0.953125q0.40625 0.390625 1.046875 0.390625q0.703125 0 1.34375 -0.46875q0.46875 -0.359375 0.625 -0.859375q0.09375 -0.34375 0.09375 -1.28125l0 -0.515625zm9.453857 -5.125l0 2.078125l-1.78125 0l0 3.984375q0 1.203125 0.046875 1.40625q0.0625 0.1875 0.234375 0.328125q0.1875 0.125 0.453125 0.125q0.359375 0 1.046875 -0.25l0.21875 2.015625q-0.90625 0.390625 -2.0625 0.390625q-0.703125 0 -1.265625 -0.234375q-0.5625 -0.234375 -0.828125 -0.609375q-0.265625 -0.375 -0.375 -1.015625q-0.078125 -0.453125 -0.078125 -1.84375l0 -4.296875l-1.203125 0l0 -2.078125l1.203125 0l0 -1.953125l2.609375 -1.515625l0 3.46875l1.78125 0zm1.103302 4.796875q0 -1.296875 0.640625 -2.515625q0.640625 -1.21875 1.8125 -1.859375q1.171875 -0.640625 2.609375 -0.640625q2.25 0 3.671875 1.453125q1.421875 1.453125 1.421875 3.671875q0 2.234375 -1.4375 3.703125q-1.4375 1.46875 -3.625 1.46875q-1.359375 0 -2.59375 -0.609375q-1.21875 -0.609375 -1.859375 -1.796875q-0.640625 -1.1875 -0.640625 -2.875zm2.671875 0.140625q0 1.46875 0.6875 2.25q0.703125 0.765625 1.71875 0.765625q1.015625 0 1.703125 -0.765625q0.703125 -0.78125 0.703125 -2.265625q0 -1.453125 -0.703125 -2.234375q-0.6875 -0.78125 -1.703125 -0.78125q-1.015625 0 -1.71875 0.78125q-0.6875 0.78125 -0.6875 2.25zm11.817841 4.921875l-2.609375 0l0 -9.859375l2.421875 0l0 1.40625q0.625 -0.984375 1.109375 -1.296875q0.5 -0.328125 1.140625 -0.328125q0.890625 0 1.71875 0.5l-0.8125 2.265625q-0.65625 -0.421875 -1.21875 -0.421875q-0.546875 0 -0.9375 0.296875q-0.375 0.296875 -0.59375 1.09375q-0.21875 0.78125 -0.21875 3.296875l0 3.046875z" fill-rule="nonzero"></path><path stroke="#000099" stroke-width="1.9596353769302368" stroke-linecap="butt" d="m424.39374 201.06322l79.80832 0" fill-rule="nonzero"></path><a xlink:href="https://www.google.com/url?q=https://github.com/frictionlessdata/tabulator-py&amp;sa=D&amp;ust=1462192849542000&amp;usg=AFQjCNErAazvpiQzXa6nqmQzaJleK1-rfg" target="_blank" rel="noreferrer"><path fill="transparent" fill-opacity="0" d="m424.39374 203.03848l0 -20.84375l79.80832 0l0 20.84375zm79.80832 0l0 -20.84375l0 0l0 20.84375z" fill-rule="evenodd"></path></a><a xlink:href="https://www.google.com/url?q=https://github.com/frictionlessdata/tabulator-py&amp;sa=D&amp;ust=1462192849543000&amp;usg=AFQjCNFRSMSPxusGSB3SRvSbSVfnTfzoEA" target="_blank" rel="noreferrer"><path fill="transparent" fill-opacity="0" d="m504.20206 203.03848l0 -20.84375l0 0l0 20.84375z" fill-rule="evenodd"></path></a><path fill="#b6d7a8" d="m205.82414 327.9134l234.20473 0l0 90.078735l-234.20473 0z" fill-rule="nonzero"></path><path stroke="#000000" stroke-width="2.0" stroke-linejoin="round" stroke-linecap="butt" d="m205.82414 327.9134l234.20473 0l0 90.078735l-234.20473 0z" fill-rule="nonzero"></path><path fill="#000099" d="m248.5482 368.68524l0 -2.40625l2.609375 0l0 2.40625l-2.609375 0zm2.609375 1.328125l0 9.546875q0 1.890625 -0.25 2.65625q-0.25 0.78125 -0.953125 1.21875q-0.703125 0.4375 -1.78125 0.4375q-0.390625 0 -0.84375 -0.078125q-0.453125 -0.0625 -0.96875 -0.203125l0.453125 -2.21875q0.1875 0.03125 0.359375 0.046875q0.15625 0.03125 0.296875 0.03125q0.390625 0 0.640625 -0.171875q0.265625 -0.171875 0.34375 -0.421875q0.09375 -0.234375 0.09375 -1.4375l0 -9.40625l2.609375 0zm1.7145538 7.046875l2.609375 -0.390625q0.171875 0.75 0.671875 1.15625q0.515625 0.390625 1.4375 0.390625q1.0 0 1.515625 -0.375q0.34375 -0.265625 0.34375 -0.703125q0 -0.296875 -0.1875 -0.484375q-0.1875 -0.1875 -0.875 -0.34375q-3.140625 -0.703125 -4.0 -1.265625q-1.15625 -0.796875 -1.15625 -2.21875q0 -1.28125 1.0 -2.15625q1.015625 -0.875 3.140625 -0.875q2.03125 0 3.0 0.65625q0.984375 0.65625 1.359375 1.953125l-2.453125 0.453125q-0.15625 -0.578125 -0.609375 -0.875q-0.4375 -0.3125 -1.25 -0.3125q-1.03125 0 -1.46875 0.296875q-0.296875 0.203125 -0.296875 0.515625q0 0.28125 0.25 0.484375q0.359375 0.25 2.4375 0.734375q2.078125 0.46875 2.90625 1.15625q0.828125 0.6875 0.828125 1.9375q0 1.359375 -1.140625 2.328125q-1.125 0.96875 -3.34375 0.96875q-2.015625 0 -3.1875 -0.8125q-1.171875 -0.8125 -1.53125 -2.21875zm10.688202 -2.25q0 -1.296875 0.640625 -2.515625q0.640625 -1.21875 1.8125 -1.859375q1.171875 -0.640625 2.609375 -0.640625q2.25 0 3.671875 1.453125q1.421875 1.453125 1.421875 3.671875q0 2.234375 -1.4375 3.703125q-1.4375 1.46875 -3.625 1.46875q-1.359375 0 -2.59375 -0.609375q-1.21875 -0.609375 -1.859375 -1.796875q-0.640625 -1.1875 -0.640625 -2.875zm2.671875 0.140625q0 1.46875 0.6875 2.25q0.703125 0.765625 1.71875 0.765625q1.015625 0 1.703125 -0.765625q0.703125 -0.78125 0.703125 -2.265625q0 -1.453125 -0.703125 -2.234375q-0.6875 -0.78125 -1.703125 -0.78125q-1.015625 0 -1.71875 0.78125q-0.6875 0.78125 -0.6875 2.25zm18.286621 4.921875l-2.609375 0l0 -5.03125q0 -1.59375 -0.171875 -2.0625q-0.15625 -0.46875 -0.53125 -0.71875q-0.375 -0.265625 -0.90625 -0.265625q-0.6875 0 -1.234375 0.375q-0.53125 0.359375 -0.734375 0.984375q-0.1875 0.609375 -0.1875 2.25l0 4.46875l-2.609375 0l0 -9.859375l2.421875 0l0 1.453125q1.296875 -1.671875 3.25 -1.671875q0.859375 0 1.578125 0.3125q0.71875 0.3125 1.078125 0.796875q0.359375 0.484375 0.5 1.09375q0.15625 0.609375 0.15625 1.75l0 6.125zm6.9428406 -9.859375l0 2.078125l-1.78125 0l0 3.984375q0 1.203125 0.046875 1.40625q0.0625 0.1875 0.234375 0.328125q0.1875 0.125 0.453125 0.125q0.359375 0 1.046875 -0.25l0.21875 2.015625q-0.90625 0.390625 -2.0625 0.390625q-0.703125 0 -1.265625 -0.234375q-0.5625 -0.234375 -0.828125 -0.609375q-0.265625 -0.375 -0.375 -1.015625q-0.078125 -0.453125 -0.078125 -1.84375l0 -4.296875l-1.203125 0l0 -2.078125l1.203125 0l0 -1.953125l2.609375 -1.515625l0 3.46875l1.78125 0zm3.650177 3.015625l-2.359375 -0.4375q0.390625 -1.421875 1.359375 -2.109375q0.984375 -0.6875 2.90625 -0.6875q1.734375 0 2.59375 0.421875q0.859375 0.40625 1.203125 1.046875q0.34375 0.625 0.34375 2.328125l-0.03125 3.046875q0 1.296875 0.125 1.921875q0.125 0.609375 0.46875 1.3125l-2.578125 0q-0.09375 -0.265625 -0.25 -0.765625q-0.0625 -0.234375 -0.09375 -0.3125q-0.65625 0.65625 -1.421875 0.984375q-0.765625 0.3125 -1.625 0.3125q-1.515625 0 -2.40625 -0.8125q-0.875 -0.828125 -0.875 -2.09375q0 -0.84375 0.390625 -1.484375q0.40625 -0.65625 1.125 -1.0q0.71875 -0.359375 2.078125 -0.625q1.828125 -0.328125 2.53125 -0.625l0 -0.265625q0 -0.75 -0.375 -1.0625q-0.359375 -0.328125 -1.390625 -0.328125q-0.703125 0 -1.09375 0.28125q-0.390625 0.265625 -0.625 0.953125zm3.484375 2.109375q-0.5 0.171875 -1.59375 0.40625q-1.078125 0.234375 -1.40625 0.453125q-0.515625 0.359375 -0.515625 0.921875q0 0.546875 0.40625 0.953125q0.40625 0.390625 1.046875 0.390625q0.703125 0 1.34375 -0.46875q0.46875 -0.359375 0.625 -0.859375q0.09375 -0.34375 0.09375 -1.28125l0 -0.515625zm4.8288574 4.734375l0 -13.59375l2.609375 0l0 4.890625q1.203125 -1.375 2.859375 -1.375q1.796875 0 2.96875 1.3125q1.1875 1.296875 1.1875 3.734375q0 2.53125 -1.203125 3.890625q-1.203125 1.359375 -2.921875 1.359375q-0.84375 0 -1.671875 -0.421875q-0.8125 -0.421875 -1.40625 -1.25l0 1.453125l-2.421875 0zm2.59375 -5.140625q0 1.53125 0.484375 2.265625q0.671875 1.03125 1.796875 1.03125q0.859375 0 1.46875 -0.734375q0.609375 -0.734375 0.609375 -2.328125q0 -1.6875 -0.609375 -2.421875q-0.609375 -0.75 -1.578125 -0.75q-0.9375 0 -1.5625 0.734375q-0.609375 0.71875 -0.609375 2.203125zm8.911591 5.140625l0 -13.59375l2.609375 0l0 13.59375l-2.609375 0zm10.886444 -3.140625l2.609375 0.4375q-0.5 1.4375 -1.59375 2.1875q-1.078125 0.734375 -2.703125 0.734375q-2.5625 0 -3.796875 -1.671875q-0.96875 -1.34375 -0.96875 -3.40625q0 -2.4375 1.265625 -3.828125q1.28125 -1.390625 3.25 -1.390625q2.1875 0 3.453125 1.453125q1.28125 1.453125 1.234375 4.453125l-6.53125 0q0.015625 1.15625 0.625 1.8125q0.609375 0.640625 1.5 0.640625q0.609375 0 1.03125 -0.328125q0.421875 -0.34375 0.625 -1.09375zm0.15625 -2.625q-0.03125 -1.140625 -0.59375 -1.71875q-0.546875 -0.59375 -1.34375 -0.59375q-0.859375 0 -1.40625 0.625q-0.5625 0.609375 -0.546875 1.6875l3.890625 0zm3.610077 2.953125l2.609375 -0.390625q0.171875 0.75 0.671875 1.15625q0.515625 0.390625 1.4375305 0.390625q1.0 0 1.515625 -0.375q0.34375 -0.265625 0.34375 -0.703125q0 -0.296875 -0.1875 -0.484375q-0.1875 -0.1875 -0.875 -0.34375q-3.1406555 -0.703125 -4.0000305 -1.265625q-1.15625 -0.796875 -1.15625 -2.21875q0 -1.28125 1.0 -2.15625q1.015625 -0.875 3.1406555 -0.875q2.03125 0 3.0 0.65625q0.984375 0.65625 1.359375 1.953125l-2.453125 0.453125q-0.15625 -0.578125 -0.609375 -0.875q-0.4375 -0.3125 -1.25 -0.3125q-1.0312805 0 -1.4687805 0.296875q-0.296875 0.203125 -0.296875 0.515625q0 0.28125 0.25 0.484375q0.359375 0.25 2.4375305 0.734375q2.078125 0.46875 2.90625 1.15625q0.828125 0.6875 0.828125 1.9375q0 1.359375 -1.140625 2.328125q-1.125 0.96875 -3.34375 0.96875q-2.0156555 0 -3.1875305 -0.8125q-1.171875 -0.8125 -1.53125 -2.21875zm19.875732 -4.125l-2.5625 0.46875q-0.140625 -0.78125 -0.59375 -1.171875q-0.453125 -0.390625 -1.1875 -0.390625q-0.984375 0 -1.5625 0.671875q-0.578125 0.671875 -0.578125 2.25q0 1.765625 0.578125 2.484375q0.59375 0.71875 1.59375 0.71875q0.75 0 1.21875 -0.421875q0.46875 -0.421875 0.671875 -1.453125l2.546875 0.4375q-0.390625 1.765625 -1.53125 2.671875q-1.125 0.890625 -3.03125 0.890625q-2.15625 0 -3.453125 -1.359375q-1.28125 -1.359375 -1.28125 -3.78125q0 -2.4375 1.296875 -3.796875q1.296875 -1.359375 3.484375 -1.359375q1.796875 0 2.859375 0.78125q1.0625 0.765625 1.53125 2.359375zm4.3913574 -6.65625l0 5.0q1.25 -1.484375 3.015625 -1.484375q0.890625 0 1.609375 0.34375q0.734375 0.328125 1.09375 0.84375q0.375 0.515625 0.5 1.15625q0.140625 0.625 0.140625 1.953125l0 5.78125l-2.609375 0l0 -5.203125q0 -1.546875 -0.15625 -1.96875q-0.140625 -0.421875 -0.515625 -0.65625q-0.375 -0.25 -0.9375 -0.25q-0.65625 0 -1.171875 0.3125q-0.5 0.3125 -0.734375 0.953125q-0.234375 0.640625 -0.234375 1.875l0 4.9375l-2.609375 0l0 -13.59375l2.609375 0zm14.489716 10.453125l2.609375 0.4375q-0.5 1.4375 -1.59375 2.1875q-1.078125 0.734375 -2.703125 0.734375q-2.5625 0 -3.796875 -1.671875q-0.96875 -1.34375 -0.96875 -3.40625q0 -2.4375 1.265625 -3.828125q1.28125 -1.390625 3.25 -1.390625q2.1875 0 3.453125 1.453125q1.28125 1.453125 1.234375 4.453125l-6.53125 0q0.015625 1.15625 0.625 1.8125q0.609375 0.640625 1.5 0.640625q0.609375 0 1.03125 -0.328125q0.421875 -0.34375 0.625 -1.09375zm0.15625 -2.625q-0.03125 -1.140625 -0.59375 -1.71875q-0.546875 -0.59375 -1.34375 -0.59375q-0.859375 0 -1.40625 0.625q-0.5625 0.609375 -0.546875 1.6875l3.890625 0zm4.3288574 -4.09375l2.40625 0l0 1.359375q1.28125 -1.578125 3.0625 -1.578125q0.953125 0 1.640625 0.390625q0.703125 0.390625 1.140625 1.1875q0.65625 -0.796875 1.40625 -1.1875q0.75 -0.390625 1.609375 -0.390625q1.078125 0 1.828125 0.453125q0.75 0.4375 1.125 1.28125q0.265625 0.640625 0.265625 2.046875l0 6.296875l-2.609375 0l0 -5.625q0 -1.46875 -0.265625 -1.90625q-0.359375 -0.546875 -1.109375 -0.546875q-0.546875 0 -1.03125 0.34375q-0.484375 0.328125 -0.703125 0.96875q-0.203125 0.640625 -0.203125 2.03125l0 4.734375l-2.609375 0l0 -5.40625q0 -1.4375 -0.140625 -1.84375q-0.140625 -0.421875 -0.4375 -0.625q-0.28125 -0.203125 -0.78125 -0.203125q-0.609375 0 -1.09375 0.328125q-0.484375 0.3125 -0.6875 0.9375q-0.203125 0.609375 -0.203125 2.03125l0 4.78125l-2.609375 0l0 -9.859375zm18.729004 3.015625l-2.359375 -0.4375q0.390625 -1.421875 1.359375 -2.109375q0.984375 -0.6875 2.90625 -0.6875q1.734375 0 2.59375 0.421875q0.859375 0.40625 1.203125 1.046875q0.34375 0.625 0.34375 2.328125l-0.03125 3.046875q0 1.296875 0.125 1.921875q0.125 0.609375 0.46875 1.3125l-2.578125 0q-0.09375 -0.265625 -0.25 -0.765625q-0.0625 -0.234375 -0.09375 -0.3125q-0.65625 0.65625 -1.421875 0.984375q-0.765625 0.3125 -1.625 0.3125q-1.515625 0 -2.40625 -0.8125q-0.875 -0.828125 -0.875 -2.09375q0 -0.84375 0.390625 -1.484375q0.40625 -0.65625 1.125 -1.0q0.71875 -0.359375 2.078125 -0.625q1.828125 -0.328125 2.53125 -0.625l0 -0.265625q0 -0.75 -0.375 -1.0625q-0.359375 -0.328125 -1.390625 -0.328125q-0.703125 0 -1.09375 0.28125q-0.390625 0.265625 -0.625 0.953125zm3.484375 2.109375q-0.5 0.171875 -1.59375 0.40625q-1.078125 0.234375 -1.40625 0.453125q-0.515625 0.359375 -0.515625 0.921875q0 0.546875 0.40625 0.953125q0.40625 0.390625 1.046875 0.390625q0.703125 0 1.34375 -0.46875q0.46875 -0.359375 0.625 -0.859375q0.09375 -0.34375 0.09375 -1.28125l0 -0.515625z" fill-rule="nonzero"></path><path stroke="#000099" stroke-width="1.9596353769302368" stroke-linecap="butt" d="m247.2357 381.85062l151.38164 0" fill-rule="nonzero"></path><a xlink:href="https://www.google.com/url?q=https://github.com/frictionlessdata/jsontableschema-py&amp;sa=D&amp;ust=1462192849545000&amp;usg=AFQjCNGslZuKtPW7ovbwNXHixl0u5bDk8w" target="_blank" rel="noreferrer"><path fill="transparent" fill-opacity="0" d="m247.2357 383.82587l0 -20.84375l151.3816 0l0 20.84375zm151.3816 0l0 -20.84375l0 0l0 20.84375z" fill-rule="evenodd"></path></a><a xlink:href="https://www.google.com/url?q=https://github.com/frictionlessdata/jsontableschema-py&amp;sa=D&amp;ust=1462192849545000&amp;usg=AFQjCNGslZuKtPW7ovbwNXHixl0u5bDk8w" target="_blank" rel="noreferrer"><path fill="transparent" fill-opacity="0" d="m398.61734 383.82587l0 -20.84375l0 0l0 20.84375z" fill-rule="evenodd"></path></a><path fill="#b6d7a8" d="m35.514435 520.4252l261.22833 0l0 90.0788l-261.22833 0z" fill-rule="nonzero"></path><path stroke="#000000" stroke-width="2.0" stroke-linejoin="round" stroke-linecap="butt" d="m35.514435 520.4252l261.22833 0l0 90.0788l-261.22833 0z" fill-rule="nonzero"></path><path fill="#000099" d="m75.16646 561.1971l0 -2.40625l2.609375 0l0 2.40625l-2.609375 0zm2.609375 1.328125l0 9.546875q0 1.890625 -0.25 2.65625q-0.25 0.78125 -0.953125 1.21875q-0.703125 0.4375 -1.78125 0.4375q-0.390625 0 -0.84375 -0.078125q-0.453125 -0.0625 -0.96875 -0.203125l0.453125 -2.21875q0.1875 0.03125 0.359375 0.046875q0.15625 0.03125 0.296875 0.03125q0.390625 0 0.640625 -0.171875q0.265625 -0.171875 0.34375 -0.421875q0.09375 -0.234375 0.09375 -1.4375l0 -9.40625l2.609375 0zm1.7145538 7.046875l2.609375 -0.390625q0.171875 0.75 0.671875 1.15625q0.515625 0.390625 1.4375 0.390625q1.0 0 1.515625 -0.375q0.34375 -0.265625 0.34375 -0.703125q0 -0.296875 -0.1875 -0.484375q-0.1875 -0.1875 -0.875 -0.34375q-3.140625 -0.703125 -4.0 -1.265625q-1.15625 -0.796875 -1.15625 -2.21875q0 -1.28125 1.0 -2.15625q1.015625 -0.875 3.140625 -0.875q2.03125 0 3.0 0.65625q0.984375 0.65625 1.359375 1.953125l-2.453125 0.453125q-0.15625 -0.578125 -0.609375 -0.875q-0.4375 -0.3125 -1.25 -0.3125q-1.03125 0 -1.46875 0.296875q-0.296875 0.203125 -0.296875 0.515625q0 0.28125 0.25 0.484375q0.359375 0.25 2.4375 0.734375q2.078125 0.46875 2.90625 1.15625q0.828125 0.6875 0.828125 1.9375q0 1.359375 -1.140625 2.328125q-1.125 0.96875 -3.34375 0.96875q-2.015625 0 -3.1875 -0.8125q-1.171875 -0.8125 -1.53125 -2.21875zm10.688217 -2.25q0 -1.296875 0.640625 -2.515625q0.640625 -1.21875 1.8125 -1.859375q1.171875 -0.640625 2.609375 -0.640625q2.25 0 3.671875 1.453125q1.421875 1.453125 1.421875 3.671875q0 2.234375 -1.4375 3.703125q-1.4375 1.46875 -3.625 1.46875q-1.359375 0 -2.59375 -0.609375q-1.21875 -0.609375 -1.859375 -1.796875q-0.640625 -1.1875 -0.640625 -2.875zm2.671875 0.140625q0 1.46875 0.6875 2.25q0.703125 0.765625 1.71875 0.765625q1.015625 0 1.703125 -0.765625q0.703125 -0.78125 0.703125 -2.265625q0 -1.453125 -0.703125 -2.234375q-0.6875 -0.78125 -1.703125 -0.78125q-1.015625 0 -1.71875 0.78125q-0.6875 0.78125 -0.6875 2.25zm18.286606 4.921875l-2.609375 0l0 -5.03125q0 -1.59375 -0.171875 -2.0625q-0.15625 -0.46875 -0.53125 -0.71875q-0.375 -0.265625 -0.90625 -0.265625q-0.6875 0 -1.234375 0.375q-0.53125 0.359375 -0.734375 0.984375q-0.1875 0.609375 -0.1875 2.25l0 4.46875l-2.609375 0l0 -9.859375l2.421875 0l0 1.453125q1.296875 -1.671875 3.25 -1.671875q0.859375 0 1.578125 0.3125q0.71875 0.3125 1.078125 0.796875q0.359375 0.484375 0.5 1.09375q0.15625 0.609375 0.15625 1.75l0 6.125zm6.942856 -9.859375l0 2.078125l-1.78125 0l0 3.984375q0 1.203125 0.046875 1.40625q0.0625 0.1875 0.234375 0.328125q0.1875 0.125 0.453125 0.125q0.359375 0 1.046875 -0.25l0.21875 2.015625q-0.90625 0.390625 -2.0625 0.390625q-0.703125 0 -1.265625 -0.234375q-0.5625 -0.234375 -0.828125 -0.609375q-0.265625 -0.375 -0.375 -1.015625q-0.078125 -0.453125 -0.078125 -1.84375l0 -4.296875l-1.203125 0l0 -2.078125l1.203125 0l0 -1.953125l2.609375 -1.515625l0 3.46875l1.78125 0zm3.650177 3.015625l-2.359375 -0.4375q0.390625 -1.421875 1.359375 -2.109375q0.984375 -0.6875 2.90625 -0.6875q1.734375 0 2.59375 0.421875q0.859375 0.40625 1.203125 1.046875q0.34375 0.625 0.34375 2.328125l-0.03125 3.046875q0 1.296875 0.125 1.921875q0.125 0.609375 0.46875 1.3125l-2.578125 0q-0.09375 -0.265625 -0.25 -0.765625q-0.0625 -0.234375 -0.09375 -0.3125q-0.65625 0.65625 -1.421875 0.984375q-0.765625 0.3125 -1.625 0.3125q-1.515625 0 -2.40625 -0.8125q-0.875 -0.828125 -0.875 -2.09375q0 -0.84375 0.390625 -1.484375q0.40625 -0.65625 1.125 -1.0q0.71875 -0.359375 2.078125 -0.625q1.828125 -0.328125 2.53125 -0.625l0 -0.265625q0 -0.75 -0.375 -1.0625q-0.359375 -0.328125 -1.390625 -0.328125q-0.703125 0 -1.09375 0.28125q-0.390625 0.265625 -0.625 0.953125zm3.484375 2.109375q-0.5 0.171875 -1.59375 0.40625q-1.078125 0.234375 -1.40625 0.453125q-0.515625 0.359375 -0.515625 0.921875q0 0.546875 0.40625 0.953125q0.40625 0.390625 1.046875 0.390625q0.703125 0 1.34375 -0.46875q0.46875 -0.359375 0.625 -0.859375q0.09375 -0.34375 0.09375 -1.28125l0 -0.515625zm4.828842 4.734375l0 -13.59375l2.609375 0l0 4.890625q1.203125 -1.375 2.859375 -1.375q1.796875 0 2.96875 1.3125q1.1875 1.296875 1.1875 3.734375q0 2.53125 -1.203125 3.890625q-1.203125 1.359375 -2.921875 1.359375q-0.84375 0 -1.671875 -0.421875q-0.8125 -0.421875 -1.40625 -1.25l0 1.453125l-2.421875 0zm2.59375 -5.140625q0 1.53125 0.484375 2.265625q0.671875 1.03125 1.796875 1.03125q0.859375 0 1.46875 -0.734375q0.609375 -0.734375 0.609375 -2.328125q0 -1.6875 -0.609375 -2.421875q-0.609375 -0.75 -1.578125 -0.75q-0.9375 0 -1.5625 0.734375q-0.609375 0.71875 -0.609375 2.203125zm8.911606 5.140625l0 -13.59375l2.609375 0l0 13.59375l-2.609375 0zm10.886429 -3.140625l2.609375 0.4375q-0.5 1.4375 -1.59375 2.1875q-1.078125 0.734375 -2.703125 0.734375q-2.5625 0 -3.796875 -1.671875q-0.96875 -1.34375 -0.96875 -3.40625q0 -2.4375 1.265625 -3.828125q1.28125 -1.390625 3.25 -1.390625q2.1875 0 3.453125 1.453125q1.28125 1.453125 1.234375 4.453125l-6.53125 0q0.015625 1.15625 0.625 1.8125q0.609375 0.640625 1.5 0.640625q0.609375 0 1.03125 -0.328125q0.421875 -0.34375 0.625 -1.09375zm0.15625 -2.625q-0.03125 -1.140625 -0.59375 -1.71875q-0.546875 -0.59375 -1.34375 -0.59375q-0.859375 0 -1.40625 0.625q-0.5625 0.609375 -0.546875 1.6875l3.890625 0zm3.6100922 2.953125l2.609375 -0.390625q0.171875 0.75 0.671875 1.15625q0.515625 0.390625 1.4375 0.390625q1.0 0 1.515625 -0.375q0.34375 -0.265625 0.34375 -0.703125q0 -0.296875 -0.1875 -0.484375q-0.1875 -0.1875 -0.875 -0.34375q-3.140625 -0.703125 -4.0 -1.265625q-1.15625 -0.796875 -1.15625 -2.21875q0 -1.28125 1.0 -2.15625q1.015625 -0.875 3.140625 -0.875q2.03125 0 3.0 0.65625q0.984375 0.65625 1.359375 1.953125l-2.453125 0.453125q-0.15625 -0.578125 -0.609375 -0.875q-0.4375 -0.3125 -1.25 -0.3125q-1.03125 0 -1.46875 0.296875q-0.296875 0.203125 -0.296875 0.515625q0 0.28125 0.25 0.484375q0.359375 0.25 2.4375 0.734375q2.078125 0.46875 2.90625 1.15625q0.828125 0.6875 0.828125 1.9375q0 1.359375 -1.140625 2.328125q-1.125 0.96875 -3.34375 0.96875q-2.015625 0 -3.1875 -0.8125q-1.171875 -0.8125 -1.53125 -2.21875zm19.875717 -4.125l-2.5625 0.46875q-0.140625 -0.78125 -0.59375 -1.171875q-0.453125 -0.390625 -1.1875 -0.390625q-0.984375 0 -1.5625 0.671875q-0.578125 0.671875 -0.578125 2.25q0 1.765625 0.578125 2.484375q0.59375 0.71875 1.59375 0.71875q0.75 0 1.21875 -0.421875q0.46875 -0.421875 0.671875 -1.453125l2.546875 0.4375q-0.390625 1.765625 -1.53125 2.671875q-1.125 0.890625 -3.03125 0.890625q-2.15625 0 -3.453125 -1.359375q-1.28125 -1.359375 -1.28125 -3.78125q0 -2.4375 1.296875 -3.796875q1.296875 -1.359375 3.484375 -1.359375q1.796875 0 2.859375 0.78125q1.0625 0.765625 1.53125 2.359375zm4.391342 -6.65625l0 5.0q1.25 -1.484375 3.015625 -1.484375q0.890625 0 1.609375 0.34375q0.734375 0.328125 1.09375 0.84375q0.375 0.515625 0.5 1.15625q0.140625 0.625 0.140625 1.953125l0 5.78125l-2.609375 0l0 -5.203125q0 -1.546875 -0.15625 -1.96875q-0.140625 -0.421875 -0.515625 -0.65625q-0.375 -0.25 -0.9375 -0.25q-0.65625 0 -1.171875 0.3125q-0.5 0.3125 -0.734375 0.953125q-0.234375 0.640625 -0.234375 1.875l0 4.9375l-2.609375 0l0 -13.59375l2.609375 0zm14.489731 10.453125l2.609375 0.4375q-0.5 1.4375 -1.59375 2.1875q-1.078125 0.734375 -2.703125 0.734375q-2.5625 0 -3.796875 -1.671875q-0.96875 -1.34375 -0.96875 -3.40625q0 -2.4375 1.265625 -3.828125q1.28125 -1.390625 3.25 -1.390625q2.1875 0 3.453125 1.453125q1.28125 1.453125 1.234375 4.453125l-6.53125 0q0.015625 1.15625 0.625 1.8125q0.609375 0.640625 1.5 0.640625q0.609375 0 1.03125 -0.328125q0.421875 -0.34375 0.625 -1.09375zm0.15625 -2.625q-0.03125 -1.140625 -0.59375 -1.71875q-0.546875 -0.59375 -1.34375 -0.59375q-0.859375 0 -1.40625 0.625q-0.5625 0.609375 -0.546875 1.6875l3.890625 0zm4.328842 -4.09375l2.40625 0l0 1.359375q1.28125 -1.578125 3.0625 -1.578125q0.953125 0 1.640625 0.390625q0.703125 0.390625 1.140625 1.1875q0.65625 -0.796875 1.40625 -1.1875q0.75 -0.390625 1.609375 -0.390625q1.078125 0 1.828125 0.453125q0.75 0.4375 1.125 1.28125q0.265625 0.640625 0.265625 2.046875l0 6.296875l-2.609375 0l0 -5.625q0 -1.46875 -0.265625 -1.90625q-0.359375 -0.546875 -1.109375 -0.546875q-0.546875 0 -1.03125 0.34375q-0.484375 0.328125 -0.703125 0.96875q-0.203125 0.640625 -0.203125 2.03125l0 4.734375l-2.609375 0l0 -5.40625q0 -1.4375 -0.140625 -1.84375q-0.140625 -0.421875 -0.4375 -0.625q-0.28125 -0.203125 -0.78125 -0.203125q-0.609375 0 -1.09375 0.328125q-0.484375 0.3125 -0.6875 0.9375q-0.203125 0.609375 -0.203125 2.03125l0 4.78125l-2.609375 0l0 -9.859375zm18.72902 3.015625l-2.359375 -0.4375q0.390625 -1.421875 1.359375 -2.109375q0.984375 -0.6875 2.90625 -0.6875q1.734375 0 2.59375 0.421875q0.859375 0.40625 1.203125 1.046875q0.34375 0.625 0.34375 2.328125l-0.03125 3.046875q0 1.296875 0.125 1.921875q0.125 0.609375 0.46875 1.3125l-2.578125 0q-0.09375 -0.265625 -0.25 -0.765625q-0.0625 -0.234375 -0.09375 -0.3125q-0.65625 0.65625 -1.421875 0.984375q-0.765625 0.3125 -1.625 0.3125q-1.515625 0 -2.40625 -0.8125q-0.875 -0.828125 -0.875 -2.09375q0 -0.84375 0.390625 -1.484375q0.40625 -0.65625 1.125 -1.0q0.71875 -0.359375 2.078125 -0.625q1.828125 -0.328125 2.53125 -0.625l0 -0.265625q0 -0.75 -0.375 -1.0625q-0.359375 -0.328125 -1.390625 -0.328125q-0.703125 0 -1.09375 0.28125q-0.390625 0.265625 -0.625 0.953125zm3.484375 2.109375q-0.5 0.171875 -1.59375 0.40625q-1.078125 0.234375 -1.40625 0.453125q-0.515625 0.359375 -0.515625 0.921875q0 0.546875 0.40625 0.953125q0.40625 0.390625 1.046875 0.390625q0.703125 0 1.34375 -0.46875q0.46875 -0.359375 0.625 -0.859375q0.09375 -0.34375 0.09375 -1.28125l0 -0.515625zm4.656967 1.109375l0 -2.609375l5.109375 0l0 2.609375l-5.109375 0zm5.587677 0.8125l2.609375 -0.390625q0.171875 0.75 0.671875 1.15625q0.515625 0.390625 1.4375 0.390625q1.0 0 1.515625 -0.375q0.34375 -0.265625 0.34375 -0.703125q0 -0.296875 -0.1875 -0.484375q-0.1875 -0.1875 -0.875 -0.34375q-3.140625 -0.703125 -4.0 -1.265625q-1.15625 -0.796875 -1.15625 -2.21875q0 -1.28125 1.0 -2.15625q1.015625 -0.875 3.140625 -0.875q2.03125 0 3.0 0.65625q0.984375 0.65625 1.359375 1.953125l-2.453125 0.453125q-0.15625 -0.578125 -0.609375 -0.875q-0.4375 -0.3125 -1.25 -0.3125q-1.03125 0 -1.46875 0.296875q-0.296875 0.203125 -0.296875 0.515625q0 0.28125 0.25 0.484375q0.359375 0.25 2.4375 0.734375q2.078125 0.46875 2.90625 1.15625q0.828125 0.6875 0.828125 1.9375q0 1.359375 -1.140625 2.328125q-1.125 0.96875 -3.34375 0.96875q-2.015625 0 -3.1875 -0.8125q-1.171875 -0.8125 -1.53125 -2.21875zm17.719467 6.5625l0 -4.953125q-0.5 0.65625 -1.265625 1.046875q-0.765625 0.375 -1.640625 0.375q-1.6875 0 -2.765625 -1.265625q-1.28125 -1.46875 -1.28125 -3.984375q0 -2.375 1.203125 -3.703125q1.203125 -1.34375 2.984375 -1.34375q0.984375 0 1.703125 0.421875q0.71875 0.421875 1.265625 1.265625l0 -1.46875l2.40625 0l0 13.609375l-2.609375 0zm0.09375 -8.796875q0 -1.515625 -0.625 -2.25q-0.609375 -0.734375 -1.546875 -0.734375q-0.9375 0 -1.578125 0.75q-0.640625 0.75 -0.640625 2.375q0 1.625 0.609375 2.34375q0.625 0.71875 1.515625 0.71875q0.90625 0 1.578125 -0.796875q0.6875 -0.8125 0.6875 -2.40625zm4.864731 5.046875l0 -13.59375l2.6093903 0l0 13.59375l-2.6093903 0z" fill-rule="nonzero"></path><path stroke="#000099" stroke-width="1.9596353769302368" stroke-linecap="butt" d="m73.85396 574.3624l184.5493 0" fill-rule="nonzero"></path><a xlink:href="https://www.google.com/url?q=https://github.com/frictionlessdata/jsontableschema-sql-py&amp;sa=D&amp;ust=1462192849549000&amp;usg=AFQjCNGr19Ea2fs8Fp2Sc9zeU6vMpVQSpQ" target="_blank" rel="noreferrer"><path fill="transparent" fill-opacity="0" d="m73.85396 576.3377l0 -20.84375l184.5493 0l0 20.84375zm184.5493 0l0 -20.84375l0 0l0 20.84375z" fill-rule="evenodd"></path></a><a xlink:href="https://www.google.com/url?q=https://github.com/frictionlessdata/jsontableschema-sql-py&amp;sa=D&amp;ust=1462192849550000&amp;usg=AFQjCNF3yWSNeWSljLqpMB9fUclG0qlQ8A" target="_blank" rel="noreferrer"><path fill="transparent" fill-opacity="0" d="m258.40326 576.3377l0 -20.84375l0 0l0 20.84375z" fill-rule="evenodd"></path></a><path fill="#b6d7a8" d="m353.7743 520.4252l261.22833 0l0 90.0788l-261.22833 0z" fill-rule="nonzero"></path><path stroke="#000000" stroke-width="2.0" stroke-linejoin="round" stroke-linecap="butt" d="m353.7743 520.4252l261.22833 0l0 90.0788l-261.22833 0z" fill-rule="nonzero"></path><path fill="#000099" d="m367.51434 561.1971l0 -2.40625l2.609375 0l0 2.40625l-2.609375 0zm2.609375 1.328125l0 9.546875q0 1.890625 -0.25 2.65625q-0.25 0.78125 -0.953125 1.21875q-0.703125 0.4375 -1.78125 0.4375q-0.390625 0 -0.84375 -0.078125q-0.453125 -0.0625 -0.96875 -0.203125l0.453125 -2.21875q0.1875 0.03125 0.359375 0.046875q0.15625 0.03125 0.296875 0.03125q0.390625 0 0.640625 -0.171875q0.265625 -0.171875 0.34375 -0.421875q0.09375 -0.234375 0.09375 -1.4375l0 -9.40625l2.609375 0zm1.7145386 7.046875l2.609375 -0.390625q0.171875 0.75 0.671875 1.15625q0.515625 0.390625 1.4375 0.390625q1.0 0 1.515625 -0.375q0.34375 -0.265625 0.34375 -0.703125q0 -0.296875 -0.1875 -0.484375q-0.1875 -0.1875 -0.875 -0.34375q-3.140625 -0.703125 -4.0 -1.265625q-1.15625 -0.796875 -1.15625 -2.21875q0 -1.28125 1.0 -2.15625q1.015625 -0.875 3.140625 -0.875q2.03125 0 3.0 0.65625q0.984375 0.65625 1.359375 1.953125l-2.453125 0.453125q-0.15625 -0.578125 -0.609375 -0.875q-0.4375 -0.3125 -1.25 -0.3125q-1.03125 0 -1.46875 0.296875q-0.296875 0.203125 -0.296875 0.515625q0 0.28125 0.25 0.484375q0.359375 0.25 2.4375 0.734375q2.078125 0.46875 2.90625 1.15625q0.828125 0.6875 0.828125 1.9375q0 1.359375 -1.140625 2.328125q-1.125 0.96875 -3.34375 0.96875q-2.015625 0 -3.1875 -0.8125q-1.171875 -0.8125 -1.53125 -2.21875zm10.688232 -2.25q0 -1.296875 0.640625 -2.515625q0.640625 -1.21875 1.8125 -1.859375q1.171875 -0.640625 2.609375 -0.640625q2.25 0 3.671875 1.453125q1.421875 1.453125 1.421875 3.671875q0 2.234375 -1.4375 3.703125q-1.4375 1.46875 -3.625 1.46875q-1.359375 0 -2.59375 -0.609375q-1.21875 -0.609375 -1.859375 -1.796875q-0.640625 -1.1875 -0.640625 -2.875zm2.671875 0.140625q0 1.46875 0.6875 2.25q0.703125 0.765625 1.71875 0.765625q1.015625 0 1.703125 -0.765625q0.703125 -0.78125 0.703125 -2.265625q0 -1.453125 -0.703125 -2.234375q-0.6875 -0.78125 -1.703125 -0.78125q-1.015625 0 -1.71875 0.78125q-0.6875 0.78125 -0.6875 2.25zm18.28659 4.921875l-2.609375 0l0 -5.03125q0 -1.59375 -0.171875 -2.0625q-0.15625 -0.46875 -0.53125 -0.71875q-0.375 -0.265625 -0.90625 -0.265625q-0.6875 0 -1.234375 0.375q-0.53125 0.359375 -0.734375 0.984375q-0.1875 0.609375 -0.1875 2.25l0 4.46875l-2.609375 0l0 -9.859375l2.421875 0l0 1.453125q1.296875 -1.671875 3.25 -1.671875q0.859375 0 1.578125 0.3125q0.71875 0.3125 1.078125 0.796875q0.359375 0.484375 0.5 1.09375q0.15625 0.609375 0.15625 1.75l0 6.125zm6.942871 -9.859375l0 2.078125l-1.78125 0l0 3.984375q0 1.203125 0.046875 1.40625q0.0625 0.1875 0.234375 0.328125q0.1875 0.125 0.453125 0.125q0.359375 0 1.046875 -0.25l0.21875 2.015625q-0.90625 0.390625 -2.0625 0.390625q-0.703125 0 -1.265625 -0.234375q-0.5625 -0.234375 -0.828125 -0.609375q-0.265625 -0.375 -0.375 -1.015625q-0.078125 -0.453125 -0.078125 -1.84375l0 -4.296875l-1.203125 0l0 -2.078125l1.203125 0l0 -1.953125l2.609375 -1.515625l0 3.46875l1.78125 0zm3.650177 3.015625l-2.359375 -0.4375q0.390625 -1.421875 1.359375 -2.109375q0.984375 -0.6875 2.90625 -0.6875q1.734375 0 2.59375 0.421875q0.859375 0.40625 1.203125 1.046875q0.34375 0.625 0.34375 2.328125l-0.03125 3.046875q0 1.296875 0.125 1.921875q0.125 0.609375 0.46875 1.3125l-2.578125 0q-0.09375 -0.265625 -0.25 -0.765625q-0.0625 -0.234375 -0.09375 -0.3125q-0.65625 0.65625 -1.421875 0.984375q-0.765625 0.3125 -1.625 0.3125q-1.515625 0 -2.40625 -0.8125q-0.875 -0.828125 -0.875 -2.09375q0 -0.84375 0.390625 -1.484375q0.40625 -0.65625 1.125 -1.0q0.71875 -0.359375 2.078125 -0.625q1.828125 -0.328125 2.53125 -0.625l0 -0.265625q0 -0.75 -0.375 -1.0625q-0.359375 -0.328125 -1.390625 -0.328125q-0.703125 0 -1.09375 0.28125q-0.390625 0.265625 -0.625 0.953125zm3.484375 2.109375q-0.5 0.171875 -1.59375 0.40625q-1.078125 0.234375 -1.40625 0.453125q-0.515625 0.359375 -0.515625 0.921875q0 0.546875 0.40625 0.953125q0.40625 0.390625 1.046875 0.390625q0.703125 0 1.34375 -0.46875q0.46875 -0.359375 0.625 -0.859375q0.09375 -0.34375 0.09375 -1.28125l0 -0.515625zm4.828827 4.734375l0 -13.59375l2.609375 0l0 4.890625q1.203125 -1.375 2.859375 -1.375q1.796875 0 2.96875 1.3125q1.1875 1.296875 1.1875 3.734375q0 2.53125 -1.203125 3.890625q-1.203125 1.359375 -2.921875 1.359375q-0.84375 0 -1.671875 -0.421875q-0.8125 -0.421875 -1.40625 -1.25l0 1.453125l-2.421875 0zm2.59375 -5.140625q0 1.53125 0.484375 2.265625q0.671875 1.03125 1.796875 1.03125q0.859375 0 1.46875 -0.734375q0.609375 -0.734375 0.609375 -2.328125q0 -1.6875 -0.609375 -2.421875q-0.609375 -0.75 -1.578125 -0.75q-0.9375 0 -1.5625 0.734375q-0.609375 0.71875 -0.609375 2.203125zm8.911621 5.140625l0 -13.59375l2.609375 0l0 13.59375l-2.609375 0zm10.886414 -3.140625l2.609375 0.4375q-0.5 1.4375 -1.59375 2.1875q-1.078125 0.734375 -2.703125 0.734375q-2.5625 0 -3.796875 -1.671875q-0.96875 -1.34375 -0.96875 -3.40625q0 -2.4375 1.265625 -3.828125q1.28125 -1.390625 3.25 -1.390625q2.1875 0 3.453125 1.453125q1.28125 1.453125 1.234375 4.453125l-6.53125 0q0.015625 1.15625 0.625 1.8125q0.609375 0.640625 1.5 0.640625q0.609375 0 1.03125 -0.328125q0.421875 -0.34375 0.625 -1.09375zm0.15625 -2.625q-0.03125 -1.140625 -0.59375 -1.71875q-0.546875 -0.59375 -1.34375 -0.59375q-0.859375 0 -1.40625 0.625q-0.5625 0.609375 -0.546875 1.6875l3.890625 0zm3.6101074 2.953125l2.609375 -0.390625q0.171875 0.75 0.671875 1.15625q0.515625 0.390625 1.4375 0.390625q1.0 0 1.515625 -0.375q0.34375 -0.265625 0.34375 -0.703125q0 -0.296875 -0.1875 -0.484375q-0.1875 -0.1875 -0.875 -0.34375q-3.140625 -0.703125 -4.0 -1.265625q-1.15625 -0.796875 -1.15625 -2.21875q0 -1.28125 1.0 -2.15625q1.015625 -0.875 3.140625 -0.875q2.03125 0 3.0 0.65625q0.984375 0.65625 1.359375 1.953125l-2.453125 0.453125q-0.15625 -0.578125 -0.609375 -0.875q-0.4375 -0.3125 -1.25 -0.3125q-1.03125 0 -1.46875 0.296875q-0.296875 0.203125 -0.296875 0.515625q0 0.28125 0.25 0.484375q0.359375 0.25 2.4375 0.734375q2.078125 0.46875 2.90625 1.15625q0.828125 0.6875 0.828125 1.9375q0 1.359375 -1.140625 2.328125q-1.125 0.96875 -3.34375 0.96875q-2.015625 0 -3.1875 -0.8125q-1.171875 -0.8125 -1.53125 -2.21875zm19.875702 -4.125l-2.5625 0.46875q-0.140625 -0.78125 -0.59375 -1.171875q-0.453125 -0.390625 -1.1875 -0.390625q-0.984375 0 -1.5625 0.671875q-0.578125 0.671875 -0.578125 2.25q0 1.765625 0.578125 2.484375q0.59375 0.71875 1.59375 0.71875q0.75 0 1.21875 -0.421875q0.46875 -0.421875 0.671875 -1.453125l2.546875 0.4375q-0.390625 1.765625 -1.53125 2.671875q-1.125 0.890625 -3.03125 0.890625q-2.15625 0 -3.453125 -1.359375q-1.28125 -1.359375 -1.28125 -3.78125q0 -2.4375 1.296875 -3.796875q1.296875 -1.359375 3.484375 -1.359375q1.796875 0 2.859375 0.78125q1.0625 0.765625 1.53125 2.359375zm4.3913574 -6.65625l0 5.0q1.25 -1.484375 3.015625 -1.484375q0.890625 0 1.609375 0.34375q0.734375 0.328125 1.09375 0.84375q0.375 0.515625 0.5 1.15625q0.140625 0.625 0.140625 1.953125l0 5.78125l-2.609375 0l0 -5.203125q0 -1.546875 -0.15625 -1.96875q-0.140625 -0.421875 -0.515625 -0.65625q-0.375 -0.25 -0.9375 -0.25q-0.65625 0 -1.171875 0.3125q-0.5 0.3125 -0.734375 0.953125q-0.234375 0.640625 -0.234375 1.875l0 4.9375l-2.609375 0l0 -13.59375l2.609375 0zm14.489746 10.453125l2.609375 0.4375q-0.5 1.4375 -1.59375 2.1875q-1.078125 0.734375 -2.703125 0.734375q-2.5625 0 -3.796875 -1.671875q-0.9687805 -1.34375 -0.9687805 -3.40625q0 -2.4375 1.2656555 -3.828125q1.28125 -1.390625 3.25 -1.390625q2.1875 0 3.453125 1.453125q1.28125 1.453125 1.234375 4.453125l-6.53125 0q0.015625 1.15625 0.625 1.8125q0.609375 0.640625 1.5 0.640625q0.609375 0 1.03125 -0.328125q0.421875 -0.34375 0.625 -1.09375zm0.15625 -2.625q-0.03125 -1.140625 -0.59375 -1.71875q-0.546875 -0.59375 -1.34375 -0.59375q-0.859375 0 -1.40625 0.625q-0.5625 0.609375 -0.546875 1.6875l3.890625 0zm4.328827 -4.09375l2.40625 0l0 1.359375q1.28125 -1.578125 3.0625 -1.578125q0.953125 0 1.640625 0.390625q0.703125 0.390625 1.140625 1.1875q0.65625 -0.796875 1.40625 -1.1875q0.75 -0.390625 1.609375 -0.390625q1.078125 0 1.828125 0.453125q0.75 0.4375 1.125 1.28125q0.265625 0.640625 0.265625 2.046875l0 6.296875l-2.609375 0l0 -5.625q0 -1.46875 -0.265625 -1.90625q-0.359375 -0.546875 -1.109375 -0.546875q-0.546875 0 -1.03125 0.34375q-0.484375 0.328125 -0.703125 0.96875q-0.203125 0.640625 -0.203125 2.03125l0 4.734375l-2.609375 0l0 -5.40625q0 -1.4375 -0.140625 -1.84375q-0.140625 -0.421875 -0.4375 -0.625q-0.28125 -0.203125 -0.78125 -0.203125q-0.609375 0 -1.09375 0.328125q-0.484375 0.3125 -0.6875 0.9375q-0.203125 0.609375 -0.203125 2.03125l0 4.78125l-2.609375 0l0 -9.859375zm18.729034 3.015625l-2.359375 -0.4375q0.390625 -1.421875 1.359375 -2.109375q0.984375 -0.6875 2.90625 -0.6875q1.734375 0 2.59375 0.421875q0.859375 0.40625 1.203125 1.046875q0.34375 0.625 0.34375 2.328125l-0.03125 3.046875q0 1.296875 0.125 1.921875q0.125 0.609375 0.46875 1.3125l-2.578125 0q-0.09375 -0.265625 -0.25 -0.765625q-0.0625 -0.234375 -0.09375 -0.3125q-0.65625 0.65625 -1.421875 0.984375q-0.765625 0.3125 -1.625 0.3125q-1.515625 0 -2.40625 -0.8125q-0.875 -0.828125 -0.875 -2.09375q0 -0.84375 0.390625 -1.484375q0.40625 -0.65625 1.125 -1.0q0.71875 -0.359375 2.078125 -0.625q1.828125 -0.328125 2.53125 -0.625l0 -0.265625q0 -0.75 -0.375 -1.0625q-0.359375 -0.328125 -1.390625 -0.328125q-0.703125 0 -1.09375 0.28125q-0.390625 0.265625 -0.625 0.953125zm3.484375 2.109375q-0.5 0.171875 -1.59375 0.40625q-1.078125 0.234375 -1.40625 0.453125q-0.515625 0.359375 -0.515625 0.921875q0 0.546875 0.40625 0.953125q0.40625 0.390625 1.046875 0.390625q0.703125 0 1.34375 -0.46875q0.46875 -0.359375 0.625 -0.859375q0.09375 -0.34375 0.09375 -1.28125l0 -0.515625zm4.6569214 1.109375l0 -2.609375l5.109375 0l0 2.609375l-5.109375 0zm6.3845825 3.625l0 -13.59375l2.609375 0l0 4.890625q1.203125 -1.375 2.859375 -1.375q1.796875 0 2.96875 1.3125q1.1875 1.296875 1.1875 3.734375q0 2.53125 -1.203125 3.890625q-1.203125 1.359375 -2.921875 1.359375q-0.84375 0 -1.671875 -0.421875q-0.8125 -0.421875 -1.40625 -1.25l0 1.453125l-2.421875 0zm2.59375 -5.140625q0 1.53125 0.484375 2.265625q0.671875 1.03125 1.796875 1.03125q0.859375 0 1.46875 -0.734375q0.609375 -0.734375 0.609375 -2.328125q0 -1.6875 -0.609375 -2.421875q-0.609375 -0.75 -1.578125 -0.75q-0.9375 0 -1.5625 0.734375q-0.609375 0.71875 -0.609375 2.203125zm8.911621 -6.046875l0 -2.40625l2.609375 0l0 2.40625l-2.609375 0zm0 11.1875l0 -9.859375l2.609375 0l0 9.859375l-2.609375 0zm4.9489136 0.65625l2.96875 0.359375q0.078125 0.515625 0.34375 0.703125q0.375 0.28125 1.171875 0.28125q1.03125 0 1.53125 -0.296875q0.34375 -0.203125 0.515625 -0.65625q0.125 -0.328125 0.125 -1.203125l0 -1.4375q-1.171875 1.59375 -2.953125 1.59375q-1.984375 0 -3.140625 -1.671875q-0.90625 -1.328125 -0.90625 -3.3125q0 -2.46875 1.1875 -3.78125q1.1875 -1.3125 2.96875 -1.3125q1.828125 0 3.015625 1.609375l0 -1.390625l2.4375 0l0 8.84375q0 1.75 -0.296875 2.609375q-0.28125 0.859375 -0.796875 1.34375q-0.515625 0.5 -1.390625 0.78125q-0.859375 0.28125 -2.1875 0.28125q-2.515625 0 -3.5625 -0.859375q-1.046875 -0.859375 -1.046875 -2.171875q0 -0.140625 0.015625 -0.3125zm2.328125 -5.78125q0 1.5625 0.609375 2.296875q0.609375 0.71875 1.5 0.71875q0.953125 0 1.609375 -0.734375q0.65625 -0.75 0.65625 -2.21875q0 -1.53125 -0.640625 -2.265625q-0.625 -0.75 -1.578125 -0.75q-0.9375 0 -1.546875 0.734375q-0.609375 0.71875 -0.609375 2.21875zm15.739746 8.875l0 -4.953125q-0.5 0.65625 -1.265625 1.046875q-0.765625 0.375 -1.640625 0.375q-1.6875 0 -2.765625 -1.265625q-1.28125 -1.46875 -1.28125 -3.984375q0 -2.375 1.203125 -3.703125q1.203125 -1.34375 2.984375 -1.34375q0.984375 0 1.703125 0.421875q0.71875 0.421875 1.265625 1.265625l0 -1.46875l2.40625 0l0 13.609375l-2.609375 0zm0.09375 -8.796875q0 -1.515625 -0.625 -2.25q-0.609375 -0.734375 -1.546875 -0.734375q-0.9375 0 -1.578125 0.75q-0.640625 0.75 -0.640625 2.375q0 1.625 0.609375 2.34375q0.625 0.71875 1.515625 0.71875q0.90625 0 1.578125 -0.796875q0.6875 -0.8125 0.6875 -2.40625zm11.34906 5.046875l0 -1.46875q-0.53125 0.78125 -1.40625 1.234375q-0.875 0.453125 -1.859375 0.453125q-0.984375 0 -1.78125 -0.4375q-0.78125 -0.4375 -1.140625 -1.21875q-0.34375 -0.796875 -0.34375 -2.1875l0 -6.234375l2.609375 0l0 4.53125q0 2.078125 0.140625 2.546875q0.140625 0.46875 0.515625 0.75q0.390625 0.265625 0.96875 0.265625q0.671875 0 1.203125 -0.359375q0.53125 -0.375 0.71875 -0.90625q0.1875 -0.546875 0.1875 -2.671875l0 -4.15625l2.609375 0l0 9.859375l-2.421875 0zm10.614746 -3.140625l2.609375 0.4375q-0.5 1.4375 -1.59375 2.1875q-1.078125 0.734375 -2.703125 0.734375q-2.5625 0 -3.796875 -1.671875q-0.96875 -1.34375 -0.96875 -3.40625q0 -2.4375 1.265625 -3.828125q1.28125 -1.390625 3.25 -1.390625q2.1875 0 3.453125 1.453125q1.28125 1.453125 1.234375 4.453125l-6.53125 0q0.015625 1.15625 0.625 1.8125q0.609375 0.640625 1.5 0.640625q0.609375 0 1.03125 -0.328125q0.421875 -0.34375 0.625 -1.09375zm0.15625 -2.625q-0.03125 -1.140625 -0.59375 -1.71875q-0.546875 -0.59375 -1.34375 -0.59375q-0.859375 0 -1.40625 0.625q-0.5625 0.609375 -0.546875 1.6875l3.890625 0zm7.0163574 5.765625l-2.609375 0l0 -9.859375l2.421875 0l0 1.40625q0.625 -0.984375 1.109375 -1.296875q0.5 -0.328125 1.140625 -0.328125q0.890625 0 1.71875 0.5l-0.8125 2.265625q-0.65625 -0.421875 -1.21875 -0.421875q-0.546875 0 -0.9375 0.296875q-0.375 0.296875 -0.59375 1.09375q-0.21875 0.78125 -0.21875 3.296875l0 3.046875zm3.525879 -9.859375l2.78125 0l2.359375 7.0l2.296875 -7.0l2.703125 0l-3.484375 9.484375l-0.625 1.71875q-0.34375 0.859375 -0.65625 1.3125q-0.296875 0.46875 -0.703125 0.75q-0.40625 0.28125 -1.0 0.4375q-0.59375 0.15625 -1.328125 0.15625q-0.75 0 -1.46875 -0.15625l-0.234375 -2.046875q0.609375 0.125 1.09375 0.125q0.921875 0 1.34375 -0.53125q0.4375 -0.53125 0.671875 -1.359375l-3.75 -9.890625z" fill-rule="nonzero"></path><path stroke="#000099" stroke-width="1.9596353769302368" stroke-linecap="butt" d="m366.20184 574.3624l236.37323 0" fill-rule="nonzero"></path><a xlink:href="https://www.google.com/url?q=https://github.com/frictionlessdata/jsontableschema-bigquery-py&amp;sa=D&amp;ust=1462192849552000&amp;usg=AFQjCNGFdGGIH1Fkh2yJK5iHo9E0e0SxGQ" target="_blank" rel="noreferrer"><path fill="transparent" fill-opacity="0" d="m366.20184 576.3377l0 -20.84375l236.37323 0l0 20.84375zm236.37323 0l0 -20.84375l0 0l0 20.84375z" fill-rule="evenodd"></path></a><a xlink:href="https://www.google.com/url?q=https://github.com/frictionlessdata/jsontableschema-bigquery-py&amp;sa=D&amp;ust=1462192849553000&amp;usg=AFQjCNFRQDBDCpge23AbMUavGHD6wUYU8w" target="_blank" rel="noreferrer"><path fill="transparent" fill-opacity="0" d="m602.5751 576.3377l0 -20.84375l0 0l0 20.84375z" fill-rule="evenodd"></path></a><path fill="#000000" fill-opacity="0.0" d="m322.9265 417.99213l-156.7874 102.42517" fill-rule="nonzero"></path><path stroke="#000000" stroke-width="2.0" stroke-linejoin="round" stroke-linecap="butt" d="m322.9265 417.99213l-156.7874 102.42517" fill-rule="nonzero"></path><path fill="#000000" fill-opacity="0.0" d="m322.9265 417.99213l161.44882 102.42517" fill-rule="nonzero"></path><path stroke="#000000" stroke-width="2.0" stroke-linejoin="round" stroke-linecap="butt" d="m322.9265 417.99213l161.44882 102.42517" fill-rule="nonzero"></path><path fill="#b6d7a8" d="m64.45276 147.12599l234.20471 0l0 90.078735l-234.20471 0z" fill-rule="nonzero"></path><path stroke="#000000" stroke-width="2.0" stroke-linejoin="round" stroke-linecap="butt" d="m64.45276 147.12599l234.20471 0l0 90.078735l-234.20471 0z" fill-rule="nonzero"></path><path fill="#000099" d="m135.44604 199.08536l-2.421875 0l0 -1.453125q-0.609375 0.84375 -1.4375 1.265625q-0.8125 0.40625 -1.640625 0.40625q-1.703125 0 -2.9218674 -1.359375q-1.203125 -1.375 -1.203125 -3.828125q0 -2.5 1.171875 -3.796875q1.1874924 -1.3125 2.9843674 -1.3125q1.65625 0 2.859375 1.375l0 -4.890625l2.609375 0l0 13.59375zm-6.96875 -5.140625q0 1.578125 0.4375 2.28125q0.640625 1.015625 1.765625 1.015625q0.90625 0 1.53125 -0.765625q0.625 -0.765625 0.625 -2.28125q0 -1.703125 -0.609375 -2.4375q-0.609375 -0.75 -1.5625 -0.75q-0.9375 0 -1.5625 0.734375q-0.625 0.734375 -0.625 2.203125zm11.270981 -1.703125l-2.359375 -0.4375q0.390625 -1.421875 1.359375 -2.109375q0.984375 -0.6875 2.90625 -0.6875q1.734375 0 2.59375 0.421875q0.859375 0.40625 1.203125 1.046875q0.34375 0.625 0.34375 2.328125l-0.03125 3.046875q0 1.296875 0.125 1.921875q0.125 0.609375 0.46875 1.3125l-2.578125 0q-0.09375 -0.265625 -0.25 -0.765625q-0.0625 -0.234375 -0.09375 -0.3125q-0.65625 0.65625 -1.421875 0.984375q-0.765625 0.3125 -1.625 0.3125q-1.515625 0 -2.40625 -0.8125q-0.875 -0.828125 -0.875 -2.09375q0 -0.84375 0.390625 -1.484375q0.40625 -0.65625 1.125 -1.0q0.71875 -0.359375 2.078125 -0.625q1.828125 -0.328125 2.53125 -0.625l0 -0.265625q0 -0.75 -0.375 -1.0625q-0.359375 -0.328125 -1.390625 -0.328125q-0.703125 0 -1.09375 0.28125q-0.390625 0.265625 -0.625 0.953125zm3.484375 2.109375q-0.5 0.171875 -1.59375 0.40625q-1.078125 0.234375 -1.40625 0.453125q-0.515625 0.359375 -0.515625 0.921875q0 0.546875 0.40625 0.953125q0.40625 0.390625 1.046875 0.390625q0.703125 0 1.34375 -0.46875q0.46875 -0.359375 0.625 -0.859375q0.09375 -0.34375 0.09375 -1.28125l0 -0.515625zm9.453842 -5.125l0 2.078125l-1.78125 0l0 3.984375q0 1.203125 0.046875 1.40625q0.0625 0.1875 0.234375 0.328125q0.1875 0.125 0.453125 0.125q0.359375 0 1.046875 -0.25l0.21875 2.015625q-0.90625 0.390625 -2.0625 0.390625q-0.703125 0 -1.265625 -0.234375q-0.5625 -0.234375 -0.828125 -0.609375q-0.265625 -0.375 -0.375 -1.015625q-0.078125 -0.453125 -0.078125 -1.84375l0 -4.296875l-1.203125 0l0 -2.078125l1.203125 0l0 -1.953125l2.609375 -1.515625l0 3.46875l1.78125 0zm3.650177 3.015625l-2.359375 -0.4375q0.390625 -1.421875 1.359375 -2.109375q0.984375 -0.6875 2.90625 -0.6875q1.734375 0 2.59375 0.421875q0.859375 0.40625 1.203125 1.046875q0.34375 0.625 0.34375 2.328125l-0.03125 3.046875q0 1.296875 0.125 1.921875q0.125 0.609375 0.46875 1.3125l-2.578125 0q-0.09375 -0.265625 -0.25 -0.765625q-0.0625 -0.234375 -0.09375 -0.3125q-0.65625 0.65625 -1.421875 0.984375q-0.765625 0.3125 -1.625 0.3125q-1.515625 0 -2.40625 -0.8125q-0.875 -0.828125 -0.875 -2.09375q0 -0.84375 0.390625 -1.484375q0.40625 -0.65625 1.125 -1.0q0.71875 -0.359375 2.078125 -0.625q1.828125 -0.328125 2.53125 -0.625l0 -0.265625q0 -0.75 -0.375 -1.0625q-0.359375 -0.328125 -1.390625 -0.328125q-0.703125 0 -1.09375 0.28125q-0.390625 0.265625 -0.625 0.953125zm3.484375 2.109375q-0.5 0.171875 -1.59375 0.40625q-1.078125 0.234375 -1.40625 0.453125q-0.515625 0.359375 -0.515625 0.921875q0 0.546875 0.40625 0.953125q0.40625 0.390625 1.046875 0.390625q0.703125 0 1.34375 -0.46875q0.46875 -0.359375 0.625 -0.859375q0.09375 -0.34375 0.09375 -1.28125l0 -0.515625zm4.875717 -5.125l2.421875 0l0 1.453125q0.46875 -0.734375 1.28125 -1.203125q0.8125 -0.46875 1.796875 -0.46875q1.703125 0 2.90625 1.34375q1.203125 1.34375 1.203125 3.75q0 2.46875 -1.21875 3.84375q-1.203125 1.359375 -2.921875 1.359375q-0.8125 0 -1.484375 -0.3125q-0.65625 -0.328125 -1.390625 -1.125l0 4.96875l-2.59375 0l0 -13.609375zm2.578125 4.765625q0 1.65625 0.65625 2.453125q0.65625 0.796875 1.59375 0.796875q0.921875 0 1.515625 -0.71875q0.609375 -0.734375 0.609375 -2.40625q0 -1.546875 -0.625 -2.296875q-0.625 -0.75 -1.53125 -0.75q-0.96875 0 -1.59375 0.734375q-0.625 0.734375 -0.625 2.1875zm10.833481 -1.75l-2.359375 -0.4375q0.390625 -1.421875 1.359375 -2.109375q0.984375 -0.6875 2.90625 -0.6875q1.734375 0 2.59375 0.421875q0.859375 0.40625 1.203125 1.046875q0.34375 0.625 0.34375 2.328125l-0.03125 3.046875q0 1.296875 0.125 1.921875q0.125 0.609375 0.46875 1.3125l-2.578125 0q-0.09375 -0.265625 -0.25 -0.765625q-0.0625 -0.234375 -0.09375 -0.3125q-0.65625 0.65625 -1.421875 0.984375q-0.765625 0.3125 -1.625 0.3125q-1.515625 0 -2.40625 -0.8125q-0.875 -0.828125 -0.875 -2.09375q0 -0.84375 0.390625 -1.484375q0.40625 -0.65625 1.125 -1.0q0.71875 -0.359375 2.078125 -0.625q1.828125 -0.328125 2.53125 -0.625l0 -0.265625q0 -0.75 -0.375 -1.0625q-0.359375 -0.328125 -1.390625 -0.328125q-0.703125 0 -1.09375 0.28125q-0.390625 0.265625 -0.625 0.953125zm3.484375 2.109375q-0.5 0.171875 -1.59375 0.40625q-1.078125 0.234375 -1.40625 0.453125q-0.515625 0.359375 -0.515625 0.921875q0 0.546875 0.40625 0.953125q0.40625 0.390625 1.046875 0.390625q0.703125 0 1.34375 -0.46875q0.46875 -0.359375 0.625 -0.859375q0.09375 -0.34375 0.09375 -1.28125l0 -0.515625zm13.531982 -2.203125l-2.5625 0.46875q-0.14064026 -0.78125 -0.59376526 -1.171875q-0.453125 -0.390625 -1.1875 -0.390625q-0.984375 0 -1.5625 0.671875q-0.578125 0.671875 -0.578125 2.25q0 1.765625 0.578125 2.484375q0.59375 0.71875 1.59375 0.71875q0.75 0 1.21875 -0.421875q0.46876526 -0.421875 0.67189026 -1.453125l2.546875 0.4375q-0.390625 1.765625 -1.53125 2.671875q-1.125 0.890625 -3.0312653 0.890625q-2.15625 0 -3.453125 -1.359375q-1.28125 -1.359375 -1.28125 -3.78125q0 -2.4375 1.296875 -3.796875q1.296875 -1.359375 3.484375 -1.359375q1.7968903 0 2.8593903 0.78125q1.0625 0.765625 1.53125 2.359375zm1.6882019 6.9375l0 -13.59375l2.609375 0l0 7.203125l3.0625 -3.46875l3.203125 0l-3.375 3.609375l3.609375 6.25l-2.796875 0l-2.484375 -4.421875l-1.21875 1.265625l0 3.15625l-2.609375 0zm12.422607 -6.84375l-2.359375 -0.4375q0.390625 -1.421875 1.359375 -2.109375q0.984375 -0.6875 2.90625 -0.6875q1.734375 0 2.59375 0.421875q0.859375 0.40625 1.203125 1.046875q0.34375 0.625 0.34375 2.328125l-0.03125 3.046875q0 1.296875 0.125 1.921875q0.125 0.609375 0.46875 1.3125l-2.578125 0q-0.09375 -0.265625 -0.25 -0.765625q-0.0625 -0.234375 -0.09375 -0.3125q-0.65625 0.65625 -1.421875 0.984375q-0.765625 0.3125 -1.625 0.3125q-1.515625 0 -2.40625 -0.8125q-0.875 -0.828125 -0.875 -2.09375q0 -0.84375 0.390625 -1.484375q0.40625 -0.65625 1.125 -1.0q0.71875 -0.359375 2.078125 -0.625q1.828125 -0.328125 2.53125 -0.625l0 -0.265625q0 -0.75 -0.375 -1.0625q-0.359375 -0.328125 -1.390625 -0.328125q-0.703125 0 -1.09375 0.28125q-0.390625 0.265625 -0.625 0.953125zm3.484375 2.109375q-0.5 0.171875 -1.59375 0.40625q-1.078125 0.234375 -1.40625 0.453125q-0.515625 0.359375 -0.515625 0.921875q0 0.546875 0.40625 0.953125q0.40625 0.390625 1.046875 0.390625q0.703125 0 1.34375 -0.46875q0.46875 -0.359375 0.625 -0.859375q0.09375 -0.34375 0.09375 -1.28125l0 -0.515625zm4.703827 5.390625l2.96875 0.359375q0.078125 0.515625 0.34375 0.703125q0.375 0.28125 1.171875 0.28125q1.03125 0 1.53125 -0.296875q0.34375 -0.203125 0.515625 -0.65625q0.125 -0.328125 0.125 -1.203125l0 -1.4375q-1.171875 1.59375 -2.953125 1.59375q-1.984375 0 -3.140625 -1.671875q-0.90625 -1.328125 -0.90625 -3.3125q0 -2.46875 1.1875 -3.78125q1.1875 -1.3125 2.96875 -1.3125q1.828125 0 3.015625 1.609375l0 -1.390625l2.4375 0l0 8.84375q0 1.75 -0.296875 2.609375q-0.28125 0.859375 -0.796875 1.34375q-0.515625 0.5 -1.390625 0.78125q-0.859375 0.28125 -2.1875 0.28125q-2.515625 0 -3.5625 -0.859375q-1.046875 -0.859375 -1.046875 -2.171875q0 -0.140625 0.015625 -0.3125zm2.328125 -5.78125q0 1.5625 0.609375 2.296875q0.609375 0.71875 1.5 0.71875q0.953125 0 1.609375 -0.734375q0.65625 -0.75 0.65625 -2.21875q0 -1.53125 -0.640625 -2.265625q-0.625 -0.75 -1.578125 -0.75q-0.9375 0 -1.546875 0.734375q-0.609375 0.71875 -0.609375 2.21875zm15.005371 1.984375l2.609375 0.4375q-0.5 1.4375 -1.59375 2.1875q-1.078125 0.734375 -2.703125 0.734375q-2.5625 0 -3.796875 -1.671875q-0.96875 -1.34375 -0.96875 -3.40625q0 -2.4375 1.265625 -3.828125q1.28125 -1.390625 3.25 -1.390625q2.1875 0 3.453125 1.453125q1.28125 1.453125 1.234375 4.453125l-6.53125 0q0.015625 1.15625 0.625 1.8125q0.609375 0.640625 1.5 0.640625q0.609375 0 1.03125 -0.328125q0.421875 -0.34375 0.625 -1.09375zm0.15625 -2.625q-0.03125 -1.140625 -0.59375 -1.71875q-0.546875 -0.59375 -1.34375 -0.59375q-0.859375 0 -1.40625 0.625q-0.5625 0.609375 -0.546875 1.6875l3.890625 0z" fill-rule="nonzero"></path><path stroke="#000099" stroke-width="1.9596353769302368" stroke-linecap="butt" d="m125.0398 201.06322l113.03063 0" fill-rule="nonzero"></path><a xlink:href="https://www.google.com/url?q=https://github.com/frictionlessdata/datapackage-py&amp;sa=D&amp;ust=1462192849556000&amp;usg=AFQjCNGWQ3AR9DQ5z_VskudhnNo5JTu_MA" target="_blank" rel="noreferrer"><path fill="transparent" fill-opacity="0" d="m125.0398 203.03848l0 -20.84375l113.03063 0l0 20.84375zm113.03063 0l0 -20.84375l0 0l0 20.84375z" fill-rule="evenodd"></path></a><a xlink:href="https://www.google.com/url?q=https://github.com/frictionlessdata/datapackage-py&amp;sa=D&amp;ust=1462192849556000&amp;usg=AFQjCNGWQ3AR9DQ5z_VskudhnNo5JTu_MA" target="_blank" rel="noreferrer"><path fill="transparent" fill-opacity="0" d="m238.07043 203.03848l0 -20.84375l0 0l0 20.84375z" fill-rule="evenodd"></path></a><path fill="#000000" fill-opacity="0.0" d="m181.55511 237.20473l141.38583 90.708664" fill-rule="nonzero"></path><path stroke="#000000" stroke-width="2.0" stroke-linejoin="round" stroke-linecap="butt" d="m181.55511 237.20473l141.38583 90.708664" fill-rule="nonzero"></path><path fill="#000000" fill-opacity="0.0" d="m464.2979 237.20473l-141.38583 90.708664" fill-rule="nonzero"></path><path stroke="#000000" stroke-width="2.0" stroke-linejoin="round" stroke-linecap="butt" d="m464.2979 237.20473l-141.38583 90.708664" fill-rule="nonzero"></path></g></svg>

